<svg xmlns="http://www.w3.org/2000/svg" width="23.174" height="24.041" viewBox="0 0 23.174 24.041">
  <path
    d="M8.717,16.194c.122.167.241.324.354.484a.176.176,0,0,0,.161.085h2.093c.125,0,.128,0,.128-.137v-.6c0-.139,0-.134.129-.14.25-.01.5-.021.748-.043a1.381,1.381,0,0,0,.266-.079v.894c0,.076.022.109.1.107h1.359c.07,0,.1-.028.1-.1V16.2l.108.133c.093.119.188.237.278.36a.183.183,0,0,0,.164.081h7.2a1.9,1.9,0,0,0,1.2-.273v7.4c0,.149,0,.149-.135.149H.136C0,24.029,0,24.029,0,23.88V11.95C0,11.8,0,11.8.144,11.8H.963a.128.128,0,0,0,.144-.1c.046-.134.1-.266.152-.4a.1.1,0,0,1,.112-.082h.454a.1.1,0,0,1,.115.081c.05.137.108.272.156.409a.121.121,0,0,0,.052.079.112.112,0,0,0,.091.015.593.593,0,0,1,.067,0h8.376a.589.589,0,0,1,.067,0c.085.01.113-.028.111-.115v-.464c.144.181.268.337.39.5a.184.184,0,0,0,.164.081h2.14c.09,0,.131-.025.122-.124s0-.166,0-.263a.774.774,0,0,1,.072.045,1.559,1.559,0,0,0,.911.33c.494.01.989.01,1.483.018a.118.118,0,0,0,.129-.091c.049-.137.108-.272.155-.409a.106.106,0,0,1,.121-.084h.431a.114.114,0,0,1,.129.088c.049.14.1.281.165.416a.144.144,0,0,0,.1.075h2.14c.072,0,.095-.031.093-.1V11.15c.115.187.224.346.316.515a.239.239,0,0,0,.247.14h1.3c.1,0,.125-.033.125-.133V8.124c0-.1-.024-.125-.118-.124H20.006v.613l-.023.009-.172-.278c-.057-.093-.125-.267-.227-.327S19.335,8,19.206,8H18.135c-.144,0-.144,0-.144.149,0,.313,0,.625-.013.942l-.354-.86C17.529,8,17.529,8,17.29,8H14.86a1.762,1.762,0,0,0-1.148.382.371.371,0,0,1-.044.027V8.08c0-.061-.022-.087-.08-.081H5.4c-.1,0-.144.025-.171.122-.069.228-.144.448-.234.706l-.161-.469c-.032-.094-.066-.188-.095-.284A.092.092,0,0,0,4.639,8H2.916c-.08,0-.1.031-.1.106,0,.327,0,.655-.01.987L2.569,8.51c-.059-.14-.121-.281-.172-.424A.115.115,0,0,0,2.268,8H.957A.144.144,0,0,0,.8,8.106C.548,8.736.287,9.356.034,9.979A.074.074,0,0,1,0,10.021V.149C0,0,0,0,.144,0H22.963c.144,0,.144,0,.144.149V12.82c0,.149,0,.149-.144.149H9.284a.235.235,0,0,0-.224.115c-.1.149-.214.291-.327.448-.123-.167-.244-.324-.357-.484a.159.159,0,0,0-.144-.073H4.588c-.082,0-.111.019-.109.11v3.582c0,.087.023.116.108.115H8.211a.169.169,0,0,0,.152-.084C8.476,16.519,8.594,16.361,8.717,16.194Z"
    fill="#3d3d3d"></path>
  <path
    d="M24.791,58.7c.024-.067.05-.134.073-.2.165-.491.33-.981.492-1.473a.121.121,0,0,1,.135-.1h.877c.08,0,.1.025.1.109v2.606c0,.079-.022.106-.1.1h-.454c-.089,0-.115-.025-.115-.118V57.67l-.029-.007c-.014.033-.03.064-.042.1-.212.618-.431,1.236-.633,1.857-.027.082-.063.118-.144.112a2.891,2.891,0,0,0-.376,0c-.08,0-.111-.028-.136-.1q-.314-.929-.634-1.855c-.013-.036-.027-.072-.042-.106h-.026V59.61c0,.094-.026.121-.115.116h-.462c-.062,0-.086-.018-.086-.085V57c0-.069.027-.085.086-.085h.926c.075,0,.09.045.109.1l.535,1.585c.01.031.023.061.034.091Z"
    transform="translate(-19.768 -48.416)" fill="#3d3d3d"></path>
  <path
    d="M129.382,57.991v1.67c0,.087-.02.118-.108.115h-.482c-.063,0-.092-.015-.092-.088V57.052c0-.07.022-.094.089-.093h.7a.143.143,0,0,1,.126.087q.471.763.943,1.524c.024.04.055.079.08.118h.026V57.082c0-.087.02-.119.108-.115h.472c.063,0,.083.024.083.088V59.7c0,.06-.017.084-.077.084h-.675a.164.164,0,0,1-.108-.076c-.323-.518-.642-1.045-.962-1.558-.032-.052-.066-.1-.1-.149Z"
    transform="translate(-110.229 -48.458)" fill="#3d3d3d"></path>
  <path
    d="M92.843,91.924l.875,1.024h-.794c-.032,0-.069-.043-.095-.075-.225-.275-.449-.549-.67-.827a.205.205,0,0,0-.2-.1,1.116,1.116,0,0,1-.155,0v.9c0,.082-.026.1-.1.1h-.472c-.083,0-.111-.022-.109-.112V90.215c0-.055.019-.078.073-.078.524,0,1.048-.009,1.57,0a.831.831,0,0,1,.789.746.882.882,0,0,1-.6,1ZM91.8,91.336h.778a.28.28,0,0,0,.214-.072.3.3,0,0,0,.021-.427.282.282,0,0,0-.2-.094c-.25-.012-.5,0-.751,0a.082.082,0,0,0-.059.055C91.8,90.979,91.8,91.158,91.8,91.336Z"
    transform="translate(-78.042 -76.681)" fill="#3d3d3d"></path>
  <path
    d="M69.956,58.721l.877,1.027a4.834,4.834,0,0,0-.537,0,.466.466,0,0,1-.477-.227c-.181-.254-.39-.488-.587-.73a.327.327,0,0,0-.3-.052.129.129,0,0,0-.026.088v.812c0,.084-.023.11-.1.107h-.452c-.085,0-.111-.022-.111-.112v-2.6c0-.081.02-.112.1-.11h1.484a.834.834,0,0,1,.84.793.87.87,0,0,1-.6.961Zm-.6-.581H69.7a.281.281,0,0,0,.212-.082.307.307,0,0,0,0-.431.281.281,0,0,0-.209-.084h-.718c-.059,0-.077.024-.077.084v.43c0,.064.019.09.082.087C69.107,58.133,69.229,58.14,69.354,58.14Z"
    transform="translate(-58.446 -48.432)" fill="#3d3d3d"></path>
  <path
    d="M50,58.356V57.063c0-.088.024-.113.109-.113H52.1c.082,0,.116.019.111.112a3.554,3.554,0,0,0,0,.391c0,.093-.029.112-.111.11h-1.31c-.095,0-.126.031-.119.125a1.748,1.748,0,0,1,0,.24c0,.085.022.116.108.115h1.273c.1,0,.128.03.122.13a3.723,3.723,0,0,0,0,.381c0,.075-.022.1-.093.1H50.794c-.1,0-.135.025-.126.128a2.223,2.223,0,0,1,0,.27c0,.078.024.1.1.1h1.32c.092,0,.125.024.119.122-.007.133,0,.267,0,.4,0,.076-.017.1-.1.1H50.1c-.072,0-.095-.024-.093-.1C50,59.232,50,58.795,50,58.356Z"
    transform="translate(-42.824 -48.45)" fill="#3d3d3d"></path>
  <path
    d="M35.236,92.348h1.409c.086,0,.122.018.116.115-.009.14,0,.281,0,.421,0,.061-.013.091-.08.091H34.638c-.088,0-.079-.052-.079-.112V90.247c0-.067.023-.087.085-.087h2.034c.072,0,.086.03.085.1v.41c0,.079-.022.1-.1.1h-1.31c-.093,0-.126.028-.118.124a1.264,1.264,0,0,1,0,.24c-.01.1.024.133.122.131h1.148c.217,0,.217,0,.217.228v.261c0,.087-.023.1-.1.1H35.371c-.135,0-.135,0-.135.14Z"
    transform="translate(-29.599 -76.704)" fill="#3d3d3d"></path>
  <path
    d="M110.859,92.365h1.418c.085,0,.113.024.109.113V92.9c0,.067-.017.094-.088.094h-2.034c-.063,0-.085-.021-.085-.087V90.271c0-.072.024-.091.089-.091h2.024c.075,0,.093.028.092.1v.41c0,.084-.03.1-.1.1h-1.31c-.085,0-.125.019-.116.116a1.711,1.711,0,0,1,0,.27c0,.085.027.109.1.109h1.31c.055,0,.073.024.073.078v.41c0,.081-.024.1-.1.1h-1.253c-.135,0-.135,0-.135.14C110.859,92.12,110.859,92.234,110.859,92.365Z"
    transform="translate(-94.367 -76.721)" fill="#3d3d3d"></path>
  <path
    d="M3.223,59.761H2.536a.126.126,0,0,1-.086-.07c-.062-.149-.118-.288-.172-.434a.1.1,0,0,0-.108-.076H1.062a.092.092,0,0,0-.1.072c-.055.149-.109.3-.169.436-.013.031-.049.072-.075.072H.03c.063-.149.121-.3.179-.448q.468-1.133.936-2.273a.125.125,0,0,1,.135-.094h.7a.121.121,0,0,1,.129.091q.545,1.328,1.092,2.657a.616.616,0,0,1,.019.069ZM2.006,58.567l-.373-.96H1.6l-.372.961Z"
    transform="translate(-0.026 -48.445)" fill="#3d3d3d"></path>
  <path
    d="M108.918,59.757H108.2c-.023,0-.055-.042-.066-.07q-.088-.21-.168-.425a.105.105,0,0,0-.112-.082h-1.1a.1.1,0,0,0-.111.084q-.077.215-.166.427c-.013.03-.05.069-.078.069h-.68c.014-.043.024-.076.037-.107q.538-1.306,1.075-2.613a.125.125,0,0,1,.135-.1h.7a.113.113,0,0,1,.125.081q.543,1.325,1.089,2.649A.253.253,0,0,1,108.918,59.757Zm-1.589-2.148H107.3l-.37.957h.775Z"
    transform="translate(-90.547 -48.443)" fill="#3d3d3d"></path>
  <path
    d="M146.984,90.117c-.085.2-.158.379-.241.555a.141.141,0,0,1-.109.051h-1.069a.249.249,0,0,0-.242.353.225.225,0,0,0,.133.117.509.509,0,0,0,.151.022h.693a.737.737,0,0,1,.739.857.835.835,0,0,1-.778.833c-.086,0-.172.015-.258.016h-1.185c-.077,0-.111-.018-.106-.106v-.421c0-.081.024-.1.1-.1H146.1c.172,0,.27-.087.268-.239s-.1-.239-.273-.239h-.654a.787.787,0,0,1-.66-.307.909.909,0,0,1-.1-.837.855.855,0,0,1,.623-.541,1.335,1.335,0,0,1,.238-.021h1.329Z"
    transform="translate(-123.866 -76.661)" fill="#3d3d3d"></path>
  <path
    d="M129.642,90.149c-.085.2-.161.382-.244.561-.011.024-.063.039-.1.039h-1.079a.226.226,0,0,0-.2.073.247.247,0,0,0-.059.21c.014.127.116.206.276.207h.718a.745.745,0,0,1,.733.951.78.78,0,0,1-.774.736c-.344.027-.692.015-1.039.019h-.415c-.055,0-.085-.013-.083-.078V92.4c0-.084.049-.078.1-.078h1.31a.222.222,0,0,0,.2-.093.242.242,0,0,0,.031-.223.233.233,0,0,0-.231-.161h-.685a.849.849,0,0,1-.574-.21.892.892,0,0,1,.3-1.43,1.109,1.109,0,0,1,.347-.063h1.368Z"
    transform="translate(-109.025 -76.687)" fill="#3d3d3d"></path>
  <path
    d="M72.43,92.041v.8c0,.091-.02.124-.112.119-.161-.007-.321,0-.481,0-.069,0-.088-.025-.088-.094V90.247c0-.076.023-.1.095-.1h1.521a.865.865,0,0,1,.842.873.9.9,0,0,1-.718,1,1.456,1.456,0,0,1-.267.028C72.964,92.044,72.706,92.041,72.43,92.041Zm0-.624h.791a.292.292,0,0,0,.226-.082.316.316,0,0,0,.1-.228.328.328,0,0,0-.077-.237.3.3,0,0,0-.217-.107c-.25-.01-.5,0-.752,0-.022,0-.06.034-.06.054-.007.194,0,.391,0,.6Z"
    transform="translate(-61.453 -76.695)" fill="#3d3d3d"></path>
  <path
    d="M51.967,92.11l-.287.391c-.1.149-.208.288-.316.43-.02.027-.053.06-.08.061H50.5l.26-.342c.253-.328.5-.658.761-.984a.11.11,0,0,0,0-.161q-.484-.622-.963-1.251l-.046-.067h.738a.167.167,0,0,1,.154.079c.169.234.343.467.515.7l.069.088c.034-.043.063-.078.089-.113.171-.23.339-.461.511-.69a.143.143,0,0,1,.09-.06h.758a.82.82,0,0,1-.043.073c-.316.409-.63.818-.949,1.224a.124.124,0,0,0,0,.185c.32.41.634.824.95,1.236l.066.093h-.805c-.029,0-.063-.042-.085-.072-.175-.234-.347-.472-.521-.707Z"
    transform="translate(-43.252 -76.727)" fill="#3d3d3d"></path>
  <path
    d="M95.974,59.132c-.093.209-.174.394-.26.576a.1.1,0,0,1-.082.046,1.169,1.169,0,0,1-1.216-1.112,1.681,1.681,0,0,1,.212-1.181,1.122,1.122,0,0,1,.9-.513c.287-.019.564,0,.847-.009.066,0,.092.022.09.093v.448c0,.073-.02.1-.093.1h-.6a.667.667,0,0,0-.718.707,1.37,1.37,0,0,0,.053.412.593.593,0,0,0,.574.44C95.774,59.134,95.863,59.132,95.974,59.132Z"
    transform="translate(-80.841 -48.441)" fill="#3d3d3d"></path>
  <path
    d="M87.32,58.36V57.069c0-.09.023-.125.113-.121H87.9c.065,0,.092.018.09.091v2.633c0,.069-.019.1-.088.094h-.481c-.08,0-.1-.03-.1-.1C87.321,59.227,87.32,58.793,87.32,58.36Z"
    transform="translate(-74.788 -48.448)" fill="#3d3d3d"></path>
</svg>