<svg xmlns="http://www.w3.org/2000/svg" width="512pt" height="512pt" viewBox="0 0 512.00001 512">
  <path fill="#3c3c3b"
    d="M497 36.953h-65.703c.238-7.277.371-14.598.371-21.953 0-8.285-6.719-15-15-15H95.336c-8.285 0-15 6.715-15 15 0 7.355.129 14.676.367 21.953H15c-8.285 0-15 6.715-15 15 0 67.211 17.566 130.621 49.46 178.555 31.528 47.387 73.524 74.566 118.888 77.21 10.285 11.192 21.16 20.317 32.484 27.278v66.668h-25.164c-30.422 0-55.168 24.75-55.168 55.168v25.164h-1.066c-8.286 0-15 6.719-15 15 0 8.285 6.714 15 15 15h273.132c8.286 0 15-6.715 15-15 0-8.281-6.714-15-15-15H391.5v-25.164c0-30.418-24.75-55.168-55.168-55.168h-25.164v-66.668c11.324-6.96 22.195-16.086 32.48-27.277 45.368-2.645 87.36-29.824 118.891-77.211C494.434 182.574 512 119.164 512 51.953c0-8.285-6.719-15-15-15zM74.437 213.891c-26.308-39.54-41.765-91.246-44.12-146.938h52.062c5.41 68.461 21.48 131.738 46.598 181.973 4 8 8.183 15.554 12.523 22.676-24.95-9.422-48.04-29.118-67.063-57.711zm363.125 0C418.54 242.484 395.45 262.18 370.5 271.6c4.344-7.12 8.523-14.675 12.523-22.675 25.118-50.235 41.184-113.512 46.598-181.973h52.063c-2.356 55.692-17.813 107.399-44.122 146.938zm0 0">
  </path>
</svg>