<svg xmlns="http://www.w3.org/2000/svg" width="29.043" height="25.236" viewBox="0 0 29.043 25.236">
  <path
    d="M54.612,0c.317.03.632.049.952.093a7.489,7.489,0,0,1,6.349,6.046,7.186,7.186,0,0,1-1.955,6.54,7.5,7.5,0,0,1-5.479,2.4c-1.138.009-2.275,0-3.413,0a7.3,7.3,0,0,1-6.84-4.863A7.656,7.656,0,0,1,47.6.864,7.175,7.175,0,0,1,50.749.021,1.353,1.353,0,0,0,50.926,0ZM51.086.627A6.771,6.771,0,0,0,44.446,7.52a6.64,6.64,0,1,0,13.271.02A6.775,6.775,0,0,0,51.086.627Z"
    transform="translate(-38.224)" fill="#3d3d3d"></path>
  <path
    d="M154.159,174.927c-.1-.024-.2-.043-.306-.071a1.243,1.243,0,0,1-.862-.855,1.308,1.308,0,0,1,.248-1.212,1.289,1.289,0,1,1,1.2,2.094c-.063.01-.126.028-.19.042Zm.059-2.428a.668.668,0,0,0-.7.44,1.591,1.591,0,0,0,.155,1.494.678.678,0,0,0,1.187-.08,1.594,1.594,0,0,0-.058-1.475A.664.664,0,0,0,154.219,172.5Z"
    transform="translate(-133.607 -149.691)" fill="#3d3d3d"></path>
  <path
    d="M0,172.8c.182,0,.365.009.547.01h.522c-.061.049-.091.093-.126.095-.167.007-.191.124-.192.263v1.743c0,.131.044.219.185.235.038,0,.072.041.109.062l-.013.058H0v-.032c.035-.029.07-.08.107-.084.161-.017.206-.117.206-.263v-1.739c0-.16-.059-.221-.21-.233A.729.729,0,0,1,0,172.9Q0,172.847,0,172.8Z"
    transform="translate(0 -150.088)" fill="#3d3d3d"></path>
  <path
    d="M.245,132.258V132.1l.139-.02c.325-.054.417-.16.42-.506v-3.022a1.719,1.719,0,0,0-.013-.233c-.039-.277-.126-.364-.4-.394l-.154-.013v-.147H.631c.514,0,1.029-.018,1.542,0a2.374,2.374,0,0,1,1.8.789,2.2,2.2,0,0,1-1.092,3.591,4.663,4.663,0,0,1-.993.114c-.506.018-1.017,0-1.527,0ZM1.408,128v3.5a.47.47,0,0,0,.344.518,1.658,1.658,0,0,0,1.809-.789,2.536,2.536,0,0,0,.253-1.552,1.909,1.909,0,0,0-2.405-1.672Z"
    transform="translate(-0.21 -110.966)" fill="#3d3d3d"></path>
  <path
    d="M206.381,124.49v2.442l.284-.212a1.087,1.087,0,0,1,1.748.686,1.711,1.711,0,0,1-1.107,2.073,1.486,1.486,0,0,1-1.049-.122.2.2,0,0,0-.253.026.149.149,0,0,1-.139.014c-.028-.013-.047-.081-.044-.124.021-.435.064-.869.071-1.3.011-.81,0-1.619,0-2.429v-.218a.333.333,0,0,0-.253-.359.12.12,0,0,1-.071-.062.083.083,0,0,1,.033-.072C205.847,124.717,206.1,124.611,206.381,124.49Zm.008,3.457h0c0,.244-.006.488,0,.732a.687.687,0,0,0,.21.491.633.633,0,0,0,.488.176.794.794,0,0,0,.622-.354,1.534,1.534,0,0,0-.161-1.908.707.707,0,0,0-1.081-.021.267.267,0,0,0-.076.17c-.01.238-.01.48-.01.715Z"
    transform="translate(-179.587 -108.127)" fill="#3d3d3d"></path>
  <path
    d="M141.961,130.4l.119.02a.171.171,0,0,1,.011.05c-.038.263-.075.534-.126.8a.192.192,0,0,1-.085.131,2.678,2.678,0,0,1-2.8-.158,2.383,2.383,0,0,1,1.279-4.228,3.629,3.629,0,0,1,1.59.313.155.155,0,0,1,.076.11c.023.263.037.538.057.866-.076-.05-.155-.072-.163-.11a1.211,1.211,0,0,0-1.428-.971,1.729,1.729,0,0,0-1.606,1.6,2.436,2.436,0,0,0,.758,2.261,1.545,1.545,0,0,0,1.026.414,1.249,1.249,0,0,0,1.244-.946C141.932,130.5,141.944,130.452,141.961,130.4Z"
    transform="translate(-120.737 -110.31)" fill="#3d3d3d"></path>
  <path
    d="M49.078,142.369v.158H47.76v-.146a.592.592,0,0,1,.075-.013c.317-.013.329-.025.329-.348v-1.525a.413.413,0,0,0-.264-.438c-.04-.017-.066-.072-.1-.11a.456.456,0,0,1,.106-.085c.238-.092.478-.177.739-.273v.489l.24-.179a1.467,1.467,0,0,1,.829-.318.69.69,0,0,1,.723.766c.014.544,0,1.09.006,1.634,0,.36,0,.363.345.382a.16.16,0,0,1,.066.011v.154h-1.3v-.143a.283.283,0,0,1,.047-.013c.353-.029.353-.028.353-.4v-1.431c0-.452-.293-.694-.712-.572a2.616,2.616,0,0,0-.513.243.2.2,0,0,0-.066.152V142.1c0,.216.044.263.253.263A1.057,1.057,0,0,1,49.078,142.369Z"
    transform="translate(-41.724 -121.234)" fill="#3d3d3d"></path>
  <path
    d="M182.938,140.452l.892-.092c.126-.014.1.078.1.152v2.149c0,.313,0,.313.3.311h.158c-.052.068-.076.131-.11.139-.272.066-.545.12-.839.183v-.535l-.216.172a1.534,1.534,0,0,1-.765.365.685.685,0,0,1-.809-.727c-.008-.54,0-1.08,0-1.621,0-.292-.023-.321-.3-.415-.028-.009-.047-.051-.07-.079.024-.021.047-.057.072-.059.234-.017.469-.034.7-.033.03,0,.087.1.087.155.008.426,0,.852,0,1.278,0,.2,0,.406.01.607a.516.516,0,0,0,.771.492,2.684,2.684,0,0,0,.445-.284.2.2,0,0,0,.062-.143c0-.526.006-1.051,0-1.577a.272.272,0,0,0-.115-.191,2.164,2.164,0,0,0-.307-.117.559.559,0,0,1-.115-.089Z"
    transform="translate(-158.377 -121.91)" fill="#3d3d3d"></path>
  <path
    d="M72.708,140.752a1.792,1.792,0,0,0,.186,1.013.85.85,0,0,0,.54.45.816.816,0,0,0,.682-.122,1.806,1.806,0,0,0,.273-.219c.07-.064.109-.055.145.037a1.554,1.554,0,0,1-.9.69,1.084,1.084,0,0,1-1.289-.723,1.9,1.9,0,0,1,.32-1.931,1.088,1.088,0,0,1,1.168-.3.969.969,0,0,1,.688.933c0,.131-.037.175-.162.173H72.708Zm.03-.2h1.083a.144.144,0,0,0,.112-.035.156.156,0,0,0,.053-.108.555.555,0,0,0-.431-.6c-.418-.07-.738.22-.818.744Z"
    transform="translate(-63.085 -121.239)" fill="#3d3d3d"></path>
  <path
    d="M171.639,124.48c0,.087.014.156.014.227v4.219c0,.289.015.306.293.322.058,0,.126-.011.126.088s-.067.083-.126.083h-1.2l-.008-.158c.043,0,.072-.011.1-.012.3-.017.311-.029.311-.335v-3.643a.306.306,0,0,0-.226-.31c-.035-.011-.064-.05-.1-.076.029-.029.053-.07.087-.085C171.143,124.694,171.377,124.594,171.639,124.48Z"
    transform="translate(-149.16 -108.119)" fill="#3d3d3d"></path>
  <path
    d="M111.4,140.389h-.137c-.009-.032-.02-.064-.029-.1a.623.623,0,0,0-.734-.526.415.415,0,0,0-.385.295.44.44,0,0,0,.14.476,2.288,2.288,0,0,0,.372.227c.177.1.365.168.535.276a.805.805,0,0,1,.039,1.341,1.354,1.354,0,0,1-1.437.024.165.165,0,0,1-.061-.112c-.023-.191-.04-.381-.051-.573,0-.039.034-.081.068-.158a4.264,4.264,0,0,0,.158.4.7.7,0,0,0,.738.417.425.425,0,0,0,.4-.3.467.467,0,0,0-.126-.526,2.005,2.005,0,0,0-.34-.221,5.739,5.739,0,0,1-.525-.3.8.8,0,0,1-.336-.7.791.791,0,0,1,.412-.656,1.254,1.254,0,0,1,1.208.025.116.116,0,0,1,.058.079C111.376,139.995,111.385,140.184,111.4,140.389Z"
    transform="translate(-95.791 -121.199)" fill="#3d3d3d"></path>
  <path
    d="M67.13,172.952c.045-.045.071-.092.1-.092.4,0,.8,0,1.194.017a.553.553,0,0,1,.592.442.641.641,0,0,1-.4.743c-.013,0-.025.017-.059.041.329.371.435.92.928,1.149l-.024.039h-.632c-.028,0-.059-.05-.08-.084-.187-.3-.379-.6-.554-.9a.217.217,0,0,0-.129-.132.205.205,0,0,0-.18.019c0,.239,0,.478,0,.716,0,.149.038.281.227.276.04,0,.081.037.126.057l-.009.043H67.14c.039-.035.067-.083.1-.088.164-.03.217-.131.216-.3v-1.588C67.456,173.032,67.422,172.99,67.13,172.952Zm.774.543c0,.139-.006.28,0,.419,0,.039.054.106.087.108a.864.864,0,0,0,.294-.026c.307-.091.343-.394.283-.689a.481.481,0,0,0-.585-.323.167.167,0,0,0-.08.124c-.008.127,0,.258,0,.386Z"
    transform="translate(-58.645 -150.14)" fill="#3d3d3d"></path>
  <path
    d="M11.221,174.393v-1.306c0-.2-.094-.271-.4-.319.064-.049.1-.1.126-.1h.811c-.046.06-.066.114-.1.131-.187.062-.244.131-.244.355v1.853a.815.815,0,0,1-.037.171.565.565,0,0,1-.172-.093q-.758-.878-1.517-1.764c-.032-.038-.058-.081-.086-.122l-.038.022c0,.049-.009.1-.009.146v1.246c0,.3.018.318.284.417a.171.171,0,0,1,.092.087H9c.062-.047.094-.092.126-.1a.25.25,0,0,0,.177-.1.27.27,0,0,0,.055-.2c.009-.549.008-1.1,0-1.651a.289.289,0,0,0-.24-.28c-.034-.011-.061-.046-.091-.07a.323.323,0,0,1,.109-.047,3.562,3.562,0,0,1,.487.008.329.329,0,0,1,.181.12c.418.488.833.979,1.249,1.469l.126.146Z"
    transform="translate(-7.862 -149.975)" fill="#3d3d3d"></path>
  <path
    d="M86.22,175.023c.034-.025.067-.066.1-.072a.258.258,0,0,0,.243-.263c.011-.17.024-.34.027-.511,0-.354.009-.706,0-1.059-.009-.279-.059-.394-.369-.451.035-.02.07-.055.1-.057.174,0,.349-.009.522,0a.26.26,0,0,1,.162.085q.64.743,1.264,1.493a1.422,1.422,0,0,1,.1.151l.058-.034v-.288c0-.333,0-.665-.008-1-.009-.217-.058-.255-.262-.3a.189.189,0,0,1-.106-.068c.293-.072.594.01.9-.067l-.006.139c-.263.009-.341.087-.343.372,0,.649,0,1.3.009,1.947a.222.222,0,0,1-.008.038c-.1.059-.155-.013-.21-.076-.221-.263-.439-.519-.66-.775q-.431-.5-.867-1a.856.856,0,0,0-.083-.071.818.818,0,0,0-.024.131v1.262c0,.314.032.34.329.406a.464.464,0,0,1,.076.046.573.573,0,0,1-.15.057h-.782Z"
    transform="translate(-75.323 -149.905)" fill="#3d3d3d"></path>
  <path
    d="M174.253,173.126v1.438c0,.292.027.323.295.384a.616.616,0,0,1,.063.022c-.011.029-.019.07-.028.07h-.852l-.011-.049c.029-.018.057-.049.087-.051.191-.02.253-.156.259-.323.01-.145.009-.29.01-.435v-1.091c0-.23-.057-.3-.272-.382-.033-.012-.057-.047-.085-.072l.016-.035h.65c.043,0,.088.06.126.1q.647.756,1.292,1.514c.033.038.063.08.094.12l.037-.014v-1.262c0-.233-.064-.3-.273-.351-.03-.007-.054-.043-.082-.066.029-.018.057-.051.087-.053h.688c.024,0,.049.032.073.047-.019.018-.037.045-.059.053-.219.08-.253.131-.253.373v1.84a.751.751,0,0,1-.052.188.616.616,0,0,1-.183-.1c-.523-.607-1.04-1.218-1.56-1.828A.516.516,0,0,0,174.253,173.126Z"
    transform="translate(-151.763 -149.905)" fill="#3d3d3d"></path>
  <path
    d="M93.145,142.31v.164h-1.6l-.01-.162h.168c.268,0,.3-.037.3-.314v-1.6a.33.33,0,0,0-.225-.356c-.039-.016-.068-.059-.1-.091a.555.555,0,0,1,.1-.095c.173-.091.349-.177.526-.263.047-.024.1-.039.172-.07v.636l.037.016a1.089,1.089,0,0,1,.09-.131,3.889,3.889,0,0,1,.413-.421.4.4,0,0,1,.479-.025.331.331,0,0,1,.146.209.342.342,0,0,1-.042.254.268.268,0,0,1-.187.145.26.26,0,0,1-.225-.063c-.253-.222-.632.035-.674.322a1.069,1.069,0,0,0-.014.171v1.4c0,.237.035.272.253.277C92.891,142.313,93.015,142.31,93.145,142.31Z"
    transform="translate(-79.97 -121.182)" fill="#3d3d3d"></path>
  <path
    d="M52.654,172.623a3.667,3.667,0,0,1-.021.561h-.078c-.008-.028-.016-.055-.021-.083a.329.329,0,0,0-.339-.318,3.08,3.08,0,0,0-.434.009.129.129,0,0,0-.088.087c-.008.263,0,.538,0,.824.157,0,.3.007.441,0a.235.235,0,0,0,.207-.2.186.186,0,0,1,.092-.095c.045.588.024.789-.067.8-.1-.343-.183-.381-.676-.31,0,.29-.01.584.009.875,0,.054.115.131.185.142a2.057,2.057,0,0,0,.463,0c.244-.022.388-.167.431-.459.039.05.082.081.077.1-.032.171-.073.34-.111.507H50.945l-.019-.042a.452.452,0,0,1,.126-.07.157.157,0,0,0,.154-.171v-1.869c0-.116-.068-.159-.169-.18a.4.4,0,0,1-.118-.075l.016-.038Z"
    transform="translate(-44.484 -149.931)" fill="#3d3d3d"></path>
  <path
    d="M108.538,174.65h-.758c0-.029,0-.047.008-.049.229-.064.311-.246.379-.461.187-.6.391-1.191.586-1.786.019-.059.291-.246.331-.216a.314.314,0,0,1,.092.147c.215.632.422,1.267.642,1.9.052.147.057.352.281.367.01,0,.021.021.027.035a.5.5,0,0,1,.018.066h-.961l-.01-.029c.043-.028.085-.075.126-.08.119-.014.126-.078.094-.172-.052-.156-.095-.317-.155-.469a.175.175,0,0,0-.126-.092,5.465,5.465,0,0,0-.569,0,.158.158,0,0,0-.115.083,4.432,4.432,0,0,0-.14.44c-.032.117-.032.219.133.217.042,0,.085.038.126.059Zm.605-1.051-.284-.911h-.052l-.288.906Z"
    transform="translate(-94.158 -149.51)" fill="#3d3d3d"></path>
  <path
    d="M195.14,174.678c.028-.026.057-.051.083-.078.078-.079.193-.145.228-.242.225-.637.432-1.282.645-1.923.029-.087.243-.271.321-.248a.217.217,0,0,1,.1.131c.195.564.379,1.129.578,1.693.042.122.083.243.126.364.035.1.072.192.193.21.028,0,.049.057.095.116h-.981l-.018-.043a.633.633,0,0,1,.149-.072c.1-.02.118-.08.09-.168-.052-.162-.1-.325-.164-.481a.179.179,0,0,0-.126-.093,4.509,4.509,0,0,0-.554,0,.187.187,0,0,0-.126.106c-.053.131-.082.284-.126.425s-.006.2.126.217a.168.168,0,0,1,.071.021.28.28,0,0,1,.051.062c-.019.012-.038.035-.057.035h-.683Zm1.36-1.042-.288-.911c-.032.013-.053.016-.057.026-.1.29-.192.581-.292.885Z"
    transform="translate(-170.476 -149.554)" fill="#3d3d3d"></path>
  <path
    d="M36.692,139.49c.006.093.015.159.015.225v2.209c0,.339.006.346.334.359a.259.259,0,0,1,.071.008l.009.147H35.8l-.011-.158h.233a.164.164,0,0,0,.138-.05.179.179,0,0,0,.049-.144v-1.84a.364.364,0,0,0-.216-.327.518.518,0,0,1-.1-.114.648.648,0,0,1,.126-.085C36.231,139.646,36.448,139.574,36.692,139.49Z"
    transform="translate(-31.266 -121.156)" fill="#3d3d3d"></path>
  <path
    d="M33.4,174.489H32.27l-.008-.042a.526.526,0,0,1,.155-.055.2.2,0,0,0,.155-.065.213.213,0,0,0,.054-.164c.008-.637,0-1.275,0-1.928-.234,0-.458-.01-.679.008-.057,0-.115.095-.159.156a.619.619,0,0,0-.058.155l-.061-.013.049-.542c.178.02.337.05.5.053.415.008.829,0,1.242,0a1.752,1.752,0,0,0,.284,0A1.408,1.408,0,0,0,34,171.96l-.063.6c-.215-.323-.215-.323-.618-.323h-.27v1.8c0,.275.025.3.273.372a.4.4,0,0,1,.092.055Z"
    transform="translate(-27.667 -149.358)" fill="#3d3d3d"></path>
  <path
    d="M124.94,174.245c.042-.025.082-.07.126-.07.153,0,.234-.063.234-.23V172.02a6.6,6.6,0,0,0-.685.009c-.061,0-.111.125-.163.195a1.41,1.41,0,0,0-.076.131l-.037-.02.067-.626c.159.217.36.12.54.131.4.013.808.008,1.212,0,.173,0,.358.051.518-.121a1.871,1.871,0,0,1-.071.627h-.04c-.013-.047-.023-.095-.037-.142a.216.216,0,0,0-.216-.177h-.566v1.834c0,.237.02.263.243.331a.486.486,0,0,1,.091.051l-.009.041h-1.09Z"
    transform="translate(-108.625 -149.141)" fill="#3d3d3d"></path>
  <path
    d="M216.52,174.7l-.126.557H214.61l-.01-.043a.877.877,0,0,1,.126-.049.2.2,0,0,0,.14-.08.221.221,0,0,0,.043-.161v-1.76c0-.154-.064-.233-.216-.23a.32.32,0,0,1-.091-.026v-.049a.7.7,0,0,1,.147-.033h.791a.326.326,0,0,1,.107.046c-.033.021-.066.06-.1.06-.143,0-.195.067-.193.21v1.76c0,.131.056.208.179.213a2.589,2.589,0,0,0,.478,0,.486.486,0,0,0,.379-.317.621.621,0,0,1,.095-.124Z"
    transform="translate(-187.477 -150.114)" fill="#3d3d3d"></path>
  <path
    d="M144.873,175.146h-1l-.019-.032c.03-.022.061-.059.094-.063.173-.018.219-.121.216-.288v-1.7c0-.2-.033-.231-.214-.263-.035-.007-.064-.049-.1-.074l.027-.051a2.02,2.02,0,0,0,.288.035c.2,0,.4-.022.594-.028.039,0,.08.035.12.054-.033.022-.063.06-.1.066-.136.016-.167.1-.167.227v1.789a.205.205,0,0,0,.041.152.19.19,0,0,0,.134.074.429.429,0,0,1,.106.057Z"
    transform="translate(-125.669 -149.983)" fill="#3d3d3d"></path>
  <path
    d="M38.99,127.854a.327.327,0,0,1-.31-.315.322.322,0,0,1,.293-.312.289.289,0,0,1,.218.083.313.313,0,0,1,.093.221A.317.317,0,0,1,38.99,127.854Z"
    transform="translate(-33.791 -110.505)" fill="#3d3d3d"></path>
  <path d="M113.74,26.37a4.419,4.419,0,0,1,0,8.128Z" transform="translate(-99.364 -22.904)" fill="#3d3d3d"></path>
  <path d="M71.191,26.41v8.131A4.354,4.354,0,0,1,68.5,30.662,4.3,4.3,0,0,1,71.191,26.41Z"
    transform="translate(-59.842 -22.939)" fill="#3d3d3d"></path>
</svg>