<svg xmlns="http://www.w3.org/2000/svg" width="33.325" height="17.277" viewBox="0 0 33.325 17.277">
  <path
    d="M13.372,26.551,1.114,32a7.264,7.264,0,0,1-.336-7.153,6.752,6.752,0,0,1,6.93-3.683A6.915,6.915,0,0,1,13.372,26.551ZM9.805,25.487a3.838,3.838,0,0,0-4.663-1.12,4.122,4.122,0,0,0-2.313,4.216Z"
    transform="translate(0.001 -17.939)" fill="#3d3d3d"></path>
  <path
    d="M106.516,14.587l-1.076,2.687-.457-.2c-.6-.261-1.215-.508-1.812-.788a2.547,2.547,0,0,1-1.482-2.109,6.971,6.971,0,0,1-.045-.9V0h2.592V13.329a.349.349,0,0,0,.248.388C105.161,13.994,105.83,14.29,106.516,14.587Z"
    transform="translate(-87.006)" fill="#3d3d3d"></path>
  <path d="M142.428,35.151a4.322,4.322,0,0,0,0,6.245L140.6,43.543A7.2,7.2,0,0,1,140.6,33Z"
    transform="translate(-118.386 -28.058)" fill="#3d3d3d"></path>
  <path
    d="M176.5,27.315a4.2,4.2,0,0,0-1.93-2.748,3.909,3.909,0,0,0-3.254-.364l-.89-2.763c.419-.1.811-.217,1.211-.271a6.462,6.462,0,0,1,4.7,1.111,6.951,6.951,0,0,1,2.849,4.235c.048.2,0,.247-.181.283-.759.15-1.515.319-2.271.481C176.663,27.3,176.589,27.3,176.5,27.315Z"
    transform="translate(-145.886 -17.941)" fill="#3d3d3d"></path>
  <path
    d="M170.49,79.659l.873-2.721a3.921,3.921,0,0,0,3.266-.362,4.212,4.212,0,0,0,1.939-2.756l2.692.572A6.719,6.719,0,0,1,170.49,79.659Z"
    transform="translate(-145.937 -62.765)" fill="#3d3d3d"></path>
  <path d="M28.473,88.13,30.4,90.183a6.507,6.507,0,0,1-8.327.918l1.46-2.422A3.918,3.918,0,0,0,28.473,88.13Z"
    transform="translate(-18.892 -74.931)" fill="#3d3d3d"></path>
</svg>