<svg xmlns="http://www.w3.org/2000/svg" width="11.319" height="8.561" viewBox="0 0 11.319 8.561"><path d="M11.062,6H.257A.263.263,0,0,0,0,6.268v8.026a.263.263,0,0,0,.257.268h10.8a.263.263,0,0,0,.257-.268V6.268A.263.263,0,0,0,11.062,6ZM10.8,13.379,7.618,10.065l-.364.378L10.7,14.026H.62l3.445-3.583L3.7,10.065.515,13.379V6.535H10.8Z" transform="translate(0 -6)" fill="#3d3d3d"/><path d="M11.77,8,7.145,12.81,2.52,8H2v.216l4.963,5.161a.25.25,0,0,0,.364,0L12.29,8.216V8Z" transform="translate(-1.485 -7.465)" fill="#3d3d3d"/></svg>