<svg xmlns="http://www.w3.org/2000/svg" width="13.147" height="13.147" viewBox="0 0 13.147 13.147"><g transform="translate(0 0)"><path d="M9.231,0H3.917A3.921,3.921,0,0,0,0,3.917V9.231a3.921,3.921,0,0,0,3.917,3.917H9.231a3.921,3.921,0,0,0,3.917-3.917V3.917A3.921,3.921,0,0,0,9.231,0Zm2.594,9.231a2.594,2.594,0,0,1-2.594,2.594H3.917A2.594,2.594,0,0,1,1.323,9.231V3.917A2.594,2.594,0,0,1,3.917,1.323H9.231a2.594,2.594,0,0,1,2.594,2.594Z" transform="translate(0 0)" fill="#5c5c5c"></path><path d="M136.4,133a3.4,3.4,0,1,0,3.4,3.4A3.4,3.4,0,0,0,136.4,133Zm0,5.478a2.078,2.078,0,1,1,2.078-2.078A2.078,2.078,0,0,1,136.4,138.478Z" transform="translate(-129.827 -129.827)" fill="#5c5c5c"></path><ellipse cx="0.815" cy="0.815" rx="0.815" ry="0.815" transform="translate(9.165 2.384)" fill="#5c5c5c"></ellipse></g></svg>