<svg xmlns="http://www.w3.org/2000/svg" width="32.317" height="25.157" viewBox="0 0 32.317 25.157">
  <path
    d="M134.3,8.536a9.934,9.934,0,0,0-6.669-8.09,8.965,8.965,0,0,0-1.891-.4L125.27,0h-1.014a.562.562,0,0,1-.076.014A8.909,8.909,0,0,0,122.393.3a9.309,9.309,0,0,0-4.023,2.224,10.477,10.477,0,0,1,.675,14.277c-.214.247-.438.485-.668.706q.305.286.638.542a9.345,9.345,0,0,0,8.211,1.665,10.039,10.039,0,0,0,7.086-11.181Z"
    transform="translate(-102.101)" fill="#3d3d3d"></path>
  <path
    d="M13.159,12.407a10.114,10.114,0,0,1-.25-3.073,10.194,10.194,0,0,1,3.115-6.78h0l.025-.024q-.241-.223-.5-.429A9.417,9.417,0,0,0,12.513.445a8.965,8.965,0,0,0-1.891-.4L10.148,0H9.134a.564.564,0,0,1-.076.014A8.909,8.909,0,0,0,7.272.3,9.316,9.316,0,0,0,3.1,2.667,10.037,10.037,0,0,0,.031,9.345,9.921,9.921,0,0,0,.28,12.371,9.923,9.923,0,0,0,3.886,18.05a9.205,9.205,0,0,0,5.262,1.98,9.033,9.033,0,0,0,2.952-.314,9.428,9.428,0,0,0,3.956-2.206,10.128,10.128,0,0,1-2.9-5.1Z"
    transform="translate(-0.005)" fill="#3d3d3d"></path>
  <path
    d="M95.842,26.378A10.087,10.087,0,0,0,98.8,34.214c.192-.189.379-.39.559-.6a10.154,10.154,0,0,0,2.313-8.039A10.014,10.014,0,0,0,98.8,19.86a9.917,9.917,0,0,0-2.957,6.518Z"
    transform="translate(-82.647 -17.021)" fill="#3d3d3d"></path>
  <path
    d="M19.5,159.08h-.559v-1.448a1.45,1.45,0,0,0-.055-.382.454.454,0,0,0-.436-.343.589.589,0,0,0-.687.632c-.015.473,0,.946-.008,1.419v.12h-.568v-1.431a1.5,1.5,0,0,0-.054-.4.454.454,0,0,0-.437-.342.591.591,0,0,0-.687.629c-.014.477,0,.956-.007,1.429v.107h-.55V156.43H16v.3l.016.01a.85.85,0,0,1,.807-.379.925.925,0,0,1,.764.466.179.179,0,0,0,.025-.023.98.98,0,0,1,1-.437.964.964,0,0,1,.892,1.066v1.429C19.5,158.931,19.5,159,19.5,159.08Z"
    transform="translate(-13.327 -134.003)" fill="#3d3d3d"></path>
  <path
    d="M203.026,153.148h-.55v-.3a.263.263,0,0,0-.038.029.988.988,0,0,1-.954.334,1.341,1.341,0,0,1-1.093-1.538,1.321,1.321,0,0,1,.642-1.069,1.184,1.184,0,0,1,.9-.143.9.9,0,0,1,.48.286c.017.019.03.041.045.061l.018-.01V149.43h.55Zm-2.062-1.326q0,.053,0,.106a.8.8,0,0,0,.428.676.745.745,0,0,0,.776-.057.848.848,0,0,0,.34-.782.808.808,0,0,0-.268-.6.744.744,0,0,0-.615-.181A.785.785,0,0,0,200.964,151.821Z"
    transform="translate(-172.841 -128.071)" fill="#3d3d3d"></path>
  <path
    d="M50.57,159.123v-.286h-.019a1.021,1.021,0,0,1-1.133.312,1.3,1.3,0,0,1-.926-1.159,1.519,1.519,0,0,1,.3-1.116,1.227,1.227,0,0,1,1.31-.417,1.036,1.036,0,0,1,.466.32v-.3h.55v2.647ZM50.6,157.8a.772.772,0,0,0-1.141-.758.84.84,0,0,0-.412.815.813.813,0,0,0,.311.645.747.747,0,0,0,.683.124.809.809,0,0,0,.558-.826Z"
    transform="translate(-41.817 -134.049)" fill="#3d3d3d"></path>
  <path
    d="M164.889,156.751v-.286h.55v2.644h-.55V158.8c-.025.023-.034.03-.043.039a.974.974,0,0,1-.942.329,1.3,1.3,0,0,1-1.1-1.3,1.4,1.4,0,0,1,.481-1.193,1.179,1.179,0,0,1,1.123-.242A1.072,1.072,0,0,1,164.889,156.751Zm-.739.184a.788.788,0,0,0-.781.858.824.824,0,0,0,.21.606.76.76,0,0,0,.57.252.863.863,0,0,0,0-1.715Z"
    transform="translate(-140.423 -134.034)" fill="#3d3d3d"></path>
  <path
    d="M111.346,158h-1.909a.707.707,0,0,0,.687.65,1.175,1.175,0,0,0,.756-.23l.062-.044.275.429a3.131,3.131,0,0,1-.264.176,1.561,1.561,0,0,1-1.159.143,1.243,1.243,0,0,1-.914-1.086,1.754,1.754,0,0,1,.087-.858,1.214,1.214,0,0,1,1.3-.792,1.2,1.2,0,0,1,1.06,1.108C111.341,157.661,111.337,157.826,111.346,158Zm-.59-.459a.65.65,0,0,0-1.092-.473.683.683,0,0,0-.213.473Z"
    transform="translate(-93.899 -134.027)" fill="#3d3d3d"></path>
  <path
    d="M71.73,158.862l.242-.415a4.774,4.774,0,0,0,.471.2,1.283,1.283,0,0,0,.709.014.488.488,0,0,0,.155-.071.225.225,0,0,0,.113-.216.222.222,0,0,0-.146-.193,3.318,3.318,0,0,0-.445-.107,4.1,4.1,0,0,1-.514-.126.68.68,0,0,1-.489-.675.763.763,0,0,1,.471-.735,1.308,1.308,0,0,1,.55-.116,1.994,1.994,0,0,1,.947.193c.034.017.069.039.1.059.011,0,.021.016.038.027l-.225.439c-.187-.061-.364-.127-.55-.174a.9.9,0,0,0-.509,0,.45.45,0,0,0-.162.09.218.218,0,0,0-.081.208.212.212,0,0,0,.142.169,2.572,2.572,0,0,0,.363.084c.177.039.36.06.533.114a.7.7,0,0,1,.55.646.749.749,0,0,1-.467.783,1.806,1.806,0,0,1-1.772-.177.109.109,0,0,1-.018-.016A.019.019,0,0,1,71.73,158.862Z"
    transform="translate(-61.871 -134.067)" fill="#3d3d3d"></path>
  <path
    d="M91.507,152.6H91v-.526h.509v-.8h.562v.8h.9v.532h-.881c-.01.011-.012.014-.012.016,0,.429-.011.858,0,1.286.01.274.2.4.492.333a3.708,3.708,0,0,0,.367-.119l.1.323c.054.167.055.169-.1.239a1.326,1.326,0,0,1-.816.093.714.714,0,0,1-.6-.693c-.016-.16-.016-.323-.018-.486v-.965A.186.186,0,0,0,91.507,152.6Z"
    transform="translate(-78.493 -129.648)" fill="#3d3d3d"></path>
  <path
    d="M146.124,158.386l.263.46a1.18,1.18,0,0,1-.518.276,1.624,1.624,0,0,1-.833-.017,1.3,1.3,0,0,1-.926-1.235,1.425,1.425,0,0,1,.392-1.128,1.272,1.272,0,0,1,.815-.363,1.351,1.351,0,0,1,1.067.312l-.254.446a2.973,2.973,0,0,0-.381-.174.775.775,0,0,0-.884.227.905.905,0,0,0,.348,1.394.965.965,0,0,0,.833-.143Z"
    transform="translate(-124.297 -134.015)" fill="#3d3d3d"></path>
  <path
    d="M131.69,159.145h-.55V156.5h.542v.286l.015.014a.839.839,0,0,1,1.06-.3l-.17.542a.927.927,0,0,0-.465-.053.45.45,0,0,0-.385.353,1.434,1.434,0,0,0-.044.343v1.371Z"
    transform="translate(-113.116 -134.068)" fill="#3d3d3d"></path>
  <path
    d="M187.44,156.478h.542v.286a.869.869,0,0,1,1.073-.286l-.165.526a3.253,3.253,0,0,0-.352-.044.476.476,0,0,0-.36.119.515.515,0,0,0-.171.35,1.657,1.657,0,0,0-.016.242v1.457h-.55Z"
    transform="translate(-161.677 -134.051)" fill="#3d3d3d"></path>
</svg>