<svg xmlns="http://www.w3.org/2000/svg" width="21.194" height="19" viewBox="0 0 21.194 19">
  <path
    d="M28.7,30.9H7.5l.156-.59C8.75,26.179,8.9,26,15,22.524c-1.468-1.772-1.678-3.306-1.542-5.555.152-2.518,1.8-5.068,4.642-5.068s4.49,2.55,4.642,5.068a7.02,7.02,0,0,1-1.554,5.558l.117.069c5.8,3.4,6.149,3.608,7.236,7.715Zm-19.973-.94h18.75c-.86-3.159-1.258-3.393-6.646-6.555l-1.11-.652.4-.428c1.6-1.737,1.822-3.094,1.688-5.3-.125-2.08-1.438-4.185-3.7-4.185s-3.578,2.1-3.7,4.184c-.134,2.215.083,3.574,1.682,5.3l.4.434-.514.293C9.93,26.495,9.605,26.679,8.723,29.961Z"
    transform="translate(-7.501 -11.901)" fill="#5d5d5d"></path>
</svg>