<svg xmlns="http://www.w3.org/2000/svg" width="26.215" height="26.214" viewBox="0 0 26.215 26.214"><g transform="translate(-38.19 12.917) rotate(-3)"><g transform="matrix(0.695, 0.719, -0.719, 0.695, 51.444, -10.239)"><path d="M.405,8.1l7.249,2.814,2.792,7.249a.581.581,0,0,0,.563.383h0a.581.581,0,0,0,.563-.383L18.505.828A.585.585,0,0,0,18.37.175.626.626,0,0,0,17.717.04L.383,6.974A.665.665,0,0,0,0,7.537.635.635,0,0,0,.405,8.1ZM16.862,1.706,11.031,16.249l-2.116-5.47L11.8,7.92l-.855-.855L8.194,9.788,2.319,7.537Z" transform="translate(0 0)" fill="#fff"/></g></g></svg>