<svg xmlns="http://www.w3.org/2000/svg" width="22.764" height="31.361" viewBox="0 0 22.764 31.361">
  <g transform="translate(-4.934 6)">
    <path
      d="M90.223,10.082l-3.587,0V5.1a5.1,5.1,0,0,0-10.2,0V10.08H72.892a.558.558,0,0,0-.53.474c-.019.185-2.159,20.034-2.183,20.279a.556.556,0,0,0,.56.528H92.385a.559.559,0,0,0,.558-.559c-.023-.214-2.161-20.064-2.183-20.264A.554.554,0,0,0,90.223,10.082ZM77.551,5.1a3.984,3.984,0,0,1,7.968,0V10.08H77.551ZM71.364,30.243l.042-.387c.308-2.882,1.171-10.884,1.8-16.712l.21-1.947h3.02v2.167a.558.558,0,0,0,1.116,0V11.2h7.968v2.167a.558.558,0,0,0,1.117,0V11.2h3.072L91.76,30.243h-20.4Z"
      transform="translate(-65.245 -6)" fill="#5c5c5c"></path>
  </g>
  <path d="M-10418.36-35.082l1.435,2.711-4.143,6.964h7.581l1.542,2.578h-10.155l-1.731-2.859Z"
    transform="translate(10431.642 51.119)" fill="#862a13"></path>
  <path d="M-10475.689-.637l5.916,9.544h2.509l5.745-9.544h-3.117l-3.951,6.391-4.052-6.391Z"
    transform="translate(10479.201 19.423)" fill="#c52d16"></path>
</svg>