<svg xmlns="http://www.w3.org/2000/svg" width="10.982" height="11.464" viewBox="0 0 10.982 11.464"><path d="M3.137,7.62a11.774,11.774,0,0,0,3.89,3.169,5.884,5.884,0,0,0,2.177.67c.053,0,.1,0,.155,0a1.771,1.771,0,0,0,1.4-.625.051.051,0,0,0,.009-.012,6.022,6.022,0,0,1,.441-.475c.107-.107.217-.219.322-.333a1.178,1.178,0,0,0,0-1.708L10.152,6.884a1.093,1.093,0,0,0-.8-.385,1.129,1.129,0,0,0-.813.382l-.818.85c-.075-.045-.153-.086-.226-.124a2.793,2.793,0,0,1-.251-.143A8.785,8.785,0,0,1,5.172,5.509a5.22,5.22,0,0,1-.7-1.159c.215-.2.416-.413.61-.62.069-.074.139-.147.21-.221a1.24,1.24,0,0,0,.379-.855A1.23,1.23,0,0,0,5.293,1.8L4.613,1.09c-.08-.083-.155-.164-.233-.247C4.229.682,4.071.515,3.916.366A1.118,1.118,0,0,0,3.112,0,1.151,1.151,0,0,0,2.3.368l-.854.888A1.857,1.857,0,0,0,.921,2.425a4.554,4.554,0,0,0,.318,1.9,11.156,11.156,0,0,0,1.9,3.295ZM1.479,2.475a1.278,1.278,0,0,1,.363-.808l.85-.884a.6.6,0,0,1,.42-.2.575.575,0,0,1,.411.207c.153.147.3.3.452.466l.238.252.681.708a.655.655,0,0,1,.215.444.655.655,0,0,1-.215.444l-.212.223c-.212.223-.411.435-.63.637l-.011.012a.478.478,0,0,0-.114.527l.007.019a5.636,5.636,0,0,0,.8,1.356,9.273,9.273,0,0,0,2.2,2.086,3.232,3.232,0,0,0,.3.171,2.793,2.793,0,0,1,.251.143l.025.014a.463.463,0,0,0,.222.059.478.478,0,0,0,.34-.162L8.93,7.3a.6.6,0,0,1,.418-.211.567.567,0,0,1,.4.211l1.377,1.43a.587.587,0,0,1-.007.9c-.1.107-.2.209-.3.316a6.731,6.731,0,0,0-.477.515,1.232,1.232,0,0,1-.98.432c-.039,0-.08,0-.119,0a5.347,5.347,0,0,1-1.969-.613,11.185,11.185,0,0,1-3.7-3.017,10.677,10.677,0,0,1-1.8-3.124,3.968,3.968,0,0,1-.288-1.656Z" transform="translate(-0.912)" fill="#3d3d3d"/></svg>