<svg xmlns="http://www.w3.org/2000/svg" width="44.242" height="14.15" viewBox="0 0 44.242 14.15">
  <path
    d="M74.459,3.846H71.676A1.771,1.771,0,0,0,69.8,4.989L64.456,17.562H68.24s.612-1.693.765-2.069H73.61c.1.477.431,2.054.431,2.054h3.325Zm-4.438,8.84c.292-.8,1.433-3.834,1.433-3.834-.014.029.292-.8.473-1.317l.237,1.186s.682,3.27.835,3.964Zm-5.315.376c-.028,2.85-2.476,4.688-6.261,4.688a10.747,10.747,0,0,1-4.007-.738l.5-3.067.459.217a7.392,7.392,0,0,0,3.395.723c1.043,0,2.143-.42,2.156-1.346,0-.608-.459-1.027-1.864-1.693-1.363-.651-3.172-1.751-3.144-3.733,0-2.662,2.5-4.514,6.066-4.514a8.665,8.665,0,0,1,3.214.579l-.487,2.966-.32-.159a6.274,6.274,0,0,0-2.685-.521c-1.405,0-2.059.608-2.059,1.186,0,.637.765,1.071,2.017,1.693C63.76,10.313,64.72,11.5,64.706,13.062ZM49.388,3.846,43.726,17.533h-3.8L36.7,6.1a14.357,14.357,0,0,1,4.981,5.686l.376,1.418,3.52-9.361h3.812Zm1.447-.014h3.6L52.185,17.547h-3.6L50.835,3.831Z"
    transform="translate(-33.124 -3.6)" fill="#3d3d3d"></path>
  <path d="M11,4.675l.042-.275h5.579a1.461,1.461,0,0,1,1.572,1.114l1.21,6.062C18.207,8.408,15.341,5.76,11,4.675Z"
    transform="translate(-11 -4.284)" fill="#3d3d3d"></path>
</svg>