<svg xmlns="http://www.w3.org/2000/svg" width="11.095" height="11.633" viewBox="0 0 11.095 11.633">
  <path
    d="M6.967.007A5.684,5.684,0,0,0,1.69,5.787a5.93,5.93,0,0,0,.6,2.6L1.7,11.363a.22.22,0,0,0,.261.264l2.8-.69a5.351,5.351,0,0,0,2.384.6,5.66,5.66,0,0,0,5.631-5.584A5.658,5.658,0,0,0,6.967.007Zm3.343,8.957a4.233,4.233,0,0,1-3.072,1.323A4.163,4.163,0,0,1,5.3,9.816l-.39-.2L3.2,10.037l.362-1.825L3.366,7.82a4.662,4.662,0,0,1,.8-5.245,4.227,4.227,0,0,1,6.143,0,4.646,4.646,0,0,1,0,6.389Z"
    transform="translate(-1.69 0)" fill="#3d3d3d" />
  <path
    d="M110.068,111.449l-1.075-.321a.39.39,0,0,0-.4.109l-.263.278a.381.381,0,0,1-.426.093,5.814,5.814,0,0,1-1.851-1.7.42.42,0,0,1,.031-.451l.229-.309a.43.43,0,0,0,.049-.423l-.452-1.063a.393.393,0,0,0-.626-.149,1.887,1.887,0,0,0-.7,1.109,3.725,3.725,0,0,0,1.468,2.955c1.411,1.369,2.54,1.55,3.276,1.365a1.831,1.831,0,0,0,.961-.871A.422.422,0,0,0,110.068,111.449Z"
    transform="translate(-101.828 -104.429)" fill="#3d3d3d" />
</svg>