<svg xmlns="http://www.w3.org/2000/svg" width="13.838" height="13.951" viewBox="0 0 13.838 13.951"><path d="M8.271.008A6.922,6.922,0,0,0,2.443,10.061l-.735,3.566a.269.269,0,0,0,.326.316l3.494-.828A6.919,6.919,0,1,0,8.271.008ZM12.44,10.75A5.421,5.421,0,0,1,6.2,11.772l-.487-.242-2.142.508L4.02,9.848l-.24-.469a5.422,5.422,0,0,1,1-6.29A5.418,5.418,0,1,1,12.44,10.75Z" transform="translate(-1.69 0)" fill="#5c5c5c"></path><path d="M111.424,112.253l-1.34-.385a.5.5,0,0,0-.494.13l-.328.334a.488.488,0,0,1-.531.112,7.154,7.154,0,0,1-2.308-2.035.488.488,0,0,1,.039-.541l.286-.37a.5.5,0,0,0,.062-.507l-.564-1.275a.5.5,0,0,0-.78-.179,2.254,2.254,0,0,0-.872,1.33c-.1.939.308,2.123,1.83,3.544,1.759,1.642,3.168,1.859,4.085,1.637a2.254,2.254,0,0,0,1.2-1.045A.5.5,0,0,0,111.424,112.253Z" transform="translate(-101.148 -103.833)" fill="#5c5c5c"></path></svg>