<svg style="display:none">
	<symbol id="Logo" viewBox="0 0 373.251 22.86" fill="none" xmlns="http://www.w3.org/2000/svg">
		<path
			d="M0,22.846V0H4.388V18.761h17.7v4.085ZM25.569,0h4.388V22.846H25.569ZM50.685,22.846H45.541L32.832,0h4.993L48.113,18.912,58.25,0h4.993ZM87.9,7.262c0-2.269-1.362-3.329-4.236-3.329H70.656v6.354H83.97c2.572.151,3.934-.908,3.934-3.026m-.151,15.584-5.9-8.321H70.5v8.321H66.117V0H84.575c4.842,0,8.019,2.875,8.019,7.262a6.633,6.633,0,0,1-5.749,6.96l6.2,8.624ZM109.237,3.782,103.79,13.919h10.893Zm10.288,19.063L116.953,18H101.672L99.1,22.846H94.107L106.513,0h5.447l12.406,22.846ZM149.331,7.262c0-2.269-1.362-3.329-4.236-3.329H132.083v6.354H145.4c2.572.151,3.934-.908,3.934-3.026m0,15.584-5.9-8.321H132.083v8.321H127.7V0h18.458c4.842,0,8.019,2.875,8.019,7.262a6.633,6.633,0,0,1-5.749,6.96l6.2,8.624h-5.3ZM159.77,0h4.388V22.846H159.77Zm22.846,3.782-5.447,10.137h10.893ZM192.9,22.846,190.332,18H175.051l-2.572,4.842h-4.842L179.893,0h5.447l12.406,22.846ZM234.814,11.5c0-4.539-3.177-7.414-8.17-7.414H216.053V18.761h11.2a7.1,7.1,0,0,0,7.565-6.506V11.5m4.69-.3a11.683,11.683,0,0,1-3.782,8.624,12.455,12.455,0,0,1-8.775,3.026H211.363V0H226.19C234.36,0,239.5,4.69,239.5,11.2m15.13-7.414-5.447,10.137H260.08L254.634,3.782Zm10.288,19.063L262.2,18H246.918l-2.572,4.842H239.5L251.91,0h5.6l12.406,22.846Zm28.293,0h-4.993L275.513,0h4.993l10.288,18.912L300.931,0h4.993ZM308.8,0h4.388V22.846H308.8Zm11.347,22.846V0h4.388V18.761h17.551v4.085ZM358.272,3.782l-5.447,10.137h10.893Zm10.288,19.063L365.989,18H350.708l-2.572,4.842h-4.842L355.4,0h5.447l12.406,22.846Z"
			fill="#a61e07" />
	</symbol>

	<symbol id="ChevronLeft" xmlns="http://www.w3.org/2000/svg" fill="none" viewBox="0 0 24 24"
		stroke="currentColor">
		<path stroke-linecap="round" stroke-linejoin="round" d="M15.75 19.5L8.25 12l7.5-7.5" />
	</symbol>

	<symbol id="ChevronRight" xmlns="http://www.w3.org/2000/svg" fill="none" viewBox="0 0 24 24"
		stroke="currentColor">
		<path stroke-linecap="round" stroke-linejoin="round" d="M8.25 4.5l7.5 7.5-7.5 7.5" />
	</symbol>

	<symbol id="ChevronUp" xmlns="http://www.w3.org/2000/svg" fill="none" viewBox="0 0 24 24"
		stroke="currentColor">
		<path stroke-linecap="round" stroke-linejoin="round" d="M4.5 15.75l7.5-7.5 7.5 7.5" />
	</symbol>

	<symbol id="ChevronDown" xmlns="http://www.w3.org/2000/svg" fill="none" viewBox="0 0 24 24"
		stroke="currentColor">
		<path stroke-linecap="round" stroke-linejoin="round" d="M19.5 8.25l-7.5 7.5-7.5-7.5" />
	</symbol>

	<symbol id="QuestionMarkCircle" xmlns="http://www.w3.org/2000/svg" fill="none" viewBox="0 0 24 24"
		stroke="currentColor">
		<path stroke-linecap="round" stroke-linejoin="round"
			d="M9.879 7.519c1.171-1.025 3.071-1.025 4.242 0 1.172 1.025 1.172 2.687 0 3.712-.203.179-.43.326-.67.442-.745.361-1.45.999-1.45 1.827v.75M21 12a9 9 0 11-18 0 9 9 0 0118 0zm-9 5.25h.008v.008H12v-.008z" />
	</symbol>

	<symbol id="User" width="21.194" height="19" viewBox="0 0 21.194 19"
		xmlns="http://www.w3.org/2000/svg">
		<path
			d="M28.7,30.9H7.5l.156-.59C8.75,26.179,8.9,26,15,22.524c-1.468-1.772-1.678-3.306-1.542-5.555.152-2.518,1.8-5.068,4.642-5.068s4.49,2.55,4.642,5.068a7.02,7.02,0,0,1-1.554,5.558l.117.069c5.8,3.4,6.149,3.608,7.236,7.715Zm-19.973-.94h18.75c-.86-3.159-1.258-3.393-6.646-6.555l-1.11-.652.4-.428c1.6-1.737,1.822-3.094,1.688-5.3-.125-2.08-1.438-4.185-3.7-4.185s-3.578,2.1-3.7,4.184c-.134,2.215.083,3.574,1.682,5.3l.4.434-.514.293C9.93,26.495,9.605,26.679,8.723,29.961Z"
			transform="translate(-7.501 -11.901)" fill="#5d5d5d"></path>
	</symbol>

	<symbol id="ShoppingCart" width="22.764" height="31.361" viewBox="0 0 22.764 31.361"
		xmlns="http://www.w3.org/2000/svg">
		<g transform="translate(-4.934 6)">
			<path
				d="M90.223,10.082l-3.587,0V5.1a5.1,5.1,0,0,0-10.2,0V10.08H72.892a.558.558,0,0,0-.53.474c-.019.185-2.159,20.034-2.183,20.279a.556.556,0,0,0,.56.528H92.385a.559.559,0,0,0,.558-.559c-.023-.214-2.161-20.064-2.183-20.264A.554.554,0,0,0,90.223,10.082ZM77.551,5.1a3.984,3.984,0,0,1,7.968,0V10.08H77.551ZM71.364,30.243l.042-.387c.308-2.882,1.171-10.884,1.8-16.712l.21-1.947h3.02v2.167a.558.558,0,0,0,1.116,0V11.2h7.968v2.167a.558.558,0,0,0,1.117,0V11.2h3.072L91.76,30.243h-20.4Z"
				transform="translate(-65.245 -6)" fill="#5c5c5c"></path>
		</g>
		<path d="M-10418.36-35.082l1.435,2.711-4.143,6.964h7.581l1.542,2.578h-10.155l-1.731-2.859Z"
			transform="translate(10431.642 51.119)" fill="#862a13"></path>
		<path d="M-10475.689-.637l5.916,9.544h2.509l5.745-9.544h-3.117l-3.951,6.391-4.052-6.391Z"
			transform="translate(10479.201 19.423)" fill="#c52d16"></path>
	</symbol>

	<symbol id="Bars3" xmlns="http://www.w3.org/2000/svg" viewBox="0 0 20 20" stroke="currentColor"
		fill="none">
		<path fill-rule="evenodd" clip-rule="evenodd"
			d="M2.5 5.00033C2.5 4.54009 2.8731 4.16699 3.33333 4.16699H16.6667C17.1269 4.16699 17.5 4.54009 17.5 5.00033C17.5 5.46056 17.1269 5.83366 16.6667 5.83366H3.33333C2.8731 5.83366 2.5 5.46056 2.5 5.00033ZM2.5 10.0003C2.5 9.54009 2.8731 9.16699 3.33333 9.16699H16.6667C17.1269 9.16699 17.5 9.54009 17.5 10.0003C17.5 10.4606 17.1269 10.8337 16.6667 10.8337H3.33333C2.8731 10.8337 2.5 10.4606 2.5 10.0003ZM2.5 15.0003C2.5 14.5401 2.8731 14.167 3.33333 14.167H16.6667C17.1269 14.167 17.5 14.5401 17.5 15.0003C17.5 15.4606 17.1269 15.8337 16.6667 15.8337H3.33333C2.8731 15.8337 2.5 15.4606 2.5 15.0003Z"
			fill="currentColor" />
	</symbol>

	<symbol id="Heart" xmlns="http://www.w3.org/2000/svg" fill="none" viewBox="0 0 24 24"
		stroke="currentColor">
		<path stroke-linecap="round" stroke-linejoin="round"
			d="M21 8.25c0-2.485-2.099-4.5-4.688-4.5-1.935 0-3.597 1.126-4.312 2.733-.715-1.607-2.377-2.733-4.313-2.733C5.1 3.75 3 5.765 3 8.25c0 7.22 9 12 9 12s9-4.78 9-12z" />
	</symbol>

	<symbol id="MagnifyingGlass" width="20" height="20" viewBox="0 0 20 20" fill="none"
		xmlns="http://www.w3.org/2000/svg">
		<path fill-rule="evenodd" clip-rule="evenodd"
			d="M8.33366 3.33366C5.57223 3.33366 3.33366 5.57223 3.33366 8.33366C3.33366 11.0951 5.57223 13.3337 8.33366 13.3337C11.0951 13.3337 13.3337 11.0951 13.3337 8.33366C13.3337 5.57223 11.0951 3.33366 8.33366 3.33366ZM1.66699 8.33366C1.66699 4.65176 4.65176 1.66699 8.33366 1.66699C12.0156 1.66699 15.0003 4.65176 15.0003 8.33366C15.0003 9.87425 14.4778 11.2928 13.6002 12.4217L18.0896 16.9111C18.415 17.2365 18.415 17.7641 18.0896 18.0896C17.7641 18.415 17.2365 18.415 16.9111 18.0896L12.4217 13.6002C11.2928 14.4778 9.87425 15.0003 8.33366 15.0003C4.65176 15.0003 1.66699 12.0156 1.66699 8.33366Z"
			fill="currentColor" />
	</symbol>

	<symbol id="XMark" xmlns="http://www.w3.org/2000/svg" fill="none" viewBox="0 0 24 24"
		stroke="currentColor">
		<path stroke-linecap="round" stroke-linejoin="round" d="M6 18L18 6M6 6l12 12" />
	</symbol>

	<symbol id="Plus" xmlns="http://www.w3.org/2000/svg" fill="none" viewBox="0 0 24 24"
		stroke="currentColor">
		<path stroke-linecap="round" stroke-linejoin="round" d="M12 4.5v15m7.5-7.5h-15" />
	</symbol>

	<symbol id="Minus" xmlns="http://www.w3.org/2000/svg" fill="none" viewBox="0 0 24 24"
		stroke="currentColor">
		<path stroke-linecap="round" stroke-linejoin="round" d="M19.5 12h-15" />
	</symbol>

	<symbol id="MapPin" xmlns="http://www.w3.org/2000/svg" fill="none" viewBox="0 0 24 24"
		stroke="currentColor">
		<path stroke-linecap="round" stroke-linejoin="round" d="M15 10.5a3 3 0 11-6 0 3 3 0 016 0z" />
		<path stroke-linecap="round" stroke-linejoin="round"
			d="M19.5 10.5c0 7.142-7.5 11.25-7.5 11.25S4.5 17.642 4.5 10.5a7.5 7.5 0 1115 0z" />
	</symbol>

	<symbol id="Phone" xmlns="http://www.w3.org/2000/svg" fill="none" viewBox="0 0 24 24"
		stroke="currentColor">
		<path stroke-linecap="round" stroke-linejoin="round"
			d="M2.25 6.75c0 8.284 6.716 15 15 15h2.25a2.25 2.25 0 002.25-2.25v-1.372c0-.516-.351-.966-.852-1.091l-4.423-1.106c-.44-.11-.902.055-1.173.417l-.97 1.293c-.282.376-.769.542-1.21.38a12.035 12.035 0 01-7.143-7.143c-.162-.441.004-.928.38-1.21l1.293-.97c.363-.271.527-.734.417-1.173L6.963 3.102a1.125 1.125 0 00-1.091-.852H4.5A2.25 2.25 0 002.25 4.5v2.25z" />
	</symbol>


	<symbol id="Pix" viewBox="0 0 512 512" xmlns="http://www.w3.org/2000/svg" fill="none"
		stroke="currentColor">
		<defs />
		<g fill="currentColor" fill-rule="evenodd">
			<path
				d="M393.072 391.897c-20.082 0-38.969-7.81-53.176-22.02l-77.069-77.067c-5.375-5.375-14.773-5.395-20.17 0l-76.784 76.786c-14.209 14.207-33.095 22.019-53.179 22.019h-9.247l97.521 97.52c30.375 30.375 79.614 30.375 109.988 0l97.239-97.238h-15.123zm-105.049 74.327c-8.55 8.53-19.93 13.25-32.05 13.25h-.02c-12.12 0-23.522-4.721-32.05-13.25l-56.855-56.855c7.875-4.613 15.165-10.248 21.758-16.84l63.948-63.948 64.23 64.23c7.637 7.66 16.188 14.013 25.478 18.952l-54.439 54.46zM310.958 22.78c-30.374-30.374-79.613-30.374-109.988 0l-97.52 97.52h9.247c20.082 0 38.97 7.834 53.178 22.02l76.784 76.785c5.57 5.592 14.622 5.57 20.17 0l77.069-77.068c14.207-14.187 33.094-22.02 53.176-22.02h15.123l-97.239-97.237zm6.028 96.346l-64.23 64.23-63.97-63.97c-6.593-6.592-13.86-12.206-21.736-16.818l56.853-56.877c17.69-17.645 46.476-17.668 64.121 0l54.44 54.461c-9.292 4.961-17.842 11.315-25.479 18.974h.001z" />
			<path
				d="M489.149 200.97l-58.379-58.377h-37.706c-13.838 0-27.394 5.635-37.185 15.426l-77.068 77.069c-7.202 7.18-16.623 10.77-26.067 10.77-9.443 0-18.885-3.59-26.066-10.77l-76.785-76.785c-9.792-9.814-23.346-15.427-37.207-15.427h-31.81L22.78 200.97c-30.374 30.375-30.374 79.614 0 109.988l58.095 58.074 31.81.021c13.86 0 27.416-5.635 37.208-15.426l76.784-76.764c13.925-13.947 38.208-13.924 52.133-.02l77.068 77.066c9.791 9.792 23.346 15.405 37.185 15.405h37.706l58.379-58.356c30.374-30.374 30.374-79.613 0-109.988zm-362.19 129.724c-3.763 3.786-8.942 5.917-14.273 5.917H94.302l-48.59-48.564c-17.689-17.69-17.689-46.476 0-64.143L94.3 175.296h18.385c5.331 0 10.51 2.154 14.295 5.918l74.74 74.74-74.761 74.74zm339.257-42.647l-48.848 48.87h-24.305c-5.309 0-10.508-2.155-14.251-5.92l-75.023-75.043 75.023-75.023c3.743-3.764 8.942-5.918 14.252-5.918h24.304l48.847 48.891c8.573 8.551 13.273 19.93 13.273 32.05 0 12.141-4.7 23.52-13.273 32.093z" />
		</g>
	</symbol>

	<symbol id="Facebook" xmlns="http://www.w3.org/2000/svg" width="17.412" height="18.107"
		viewBox="0 0 17.412 18.107">
		<path
			d="M16.451,0H.961A.981.981,0,0,0,0,1V17.108a.981.981,0,0,0,.961,1H9.3V11.1H7.031V8.363H9.3V6.347c0-2.338,1.373-3.612,3.379-3.612a18.105,18.105,0,0,1,2.027.107V5.287H13.315c-1.091,0-1.3.539-1.3,1.33V8.362h2.6l-.34,2.733H12.014v7.013H16.45a.982.982,0,0,0,.962-1V1a.981.981,0,0,0-.962-1Z"
			transform="translate(0 -0.001)" fill="#5d5d5d"></path>
	</symbol>

	<symbol id="Instagram" xmlns="http://www.w3.org/2000/svg" width="17.412" height="18.107"
		viewBox="0 0 17.412 18.107">
		<path
			d="M12.225,0H5.187A5.3,5.3,0,0,0,0,5.394v7.319a5.3,5.3,0,0,0,5.187,5.394h7.038a5.3,5.3,0,0,0,5.187-5.394V5.394A5.3,5.3,0,0,0,12.225,0Zm3.436,12.713a3.506,3.506,0,0,1-3.436,3.573H5.187a3.506,3.506,0,0,1-3.436-3.573V5.394A3.506,3.506,0,0,1,5.187,1.822h7.038a3.506,3.506,0,0,1,3.436,3.573Z"
			transform="translate(0 0)" fill="#5d5d5d"></path>
		<path
			d="M137.5,133a4.687,4.687,0,1,0,4.5,4.683A4.6,4.6,0,0,0,137.5,133Zm0,7.545a2.864,2.864,0,1,1,2.752-2.862A2.808,2.808,0,0,1,137.5,140.545Z"
			transform="translate(-128.797 -128.63)" fill="#5d5d5d"></path>
		<ellipse cx="1.079" cy="1.122" rx="1.079" ry="1.122" transform="translate(12.139 3.283)"
			fill="#5d5d5d"></ellipse>
	</symbol>

	<symbol id="Tiktok" xmlns="http://www.w3.org/2000/svg" viewBox="0 0 24 24" stroke="currentColor"
		fill="none" stroke-linecap="round" stroke-linejoin="round">
		<path stroke="none" d="M0 0h24v24H0z" fill="none" />
		<path d="M9 12a4 4 0 1 0 4 4v-12a5 5 0 0 0 5 5" />
	</symbol>

	<symbol id="Truck" xmlns="http://www.w3.org/2000/svg" viewBox="0 0 36 28" stroke="currentColor"
		fill="none">
		<path
			d="M14 22.333C14 24.174 12.5077 25.6663 10.6667 25.6663C8.82576 25.6663 7.33337 24.174 7.33337 22.333M14 22.333C14 20.4921 12.5077 18.9997 10.6667 18.9997C8.82576 18.9997 7.33337 20.4921 7.33337 22.333M14 22.333H24M7.33337 22.333H4.00004V15.6663M30.6667 22.333C30.6667 24.174 29.1743 25.6663 27.3334 25.6663C25.4924 25.6663 24 24.174 24 22.333M30.6667 22.333C30.6667 20.4921 29.1743 18.9997 27.3334 18.9997C25.4924 18.9997 24 20.4921 24 22.333M30.6667 22.333H34V12.333M2.33337 2.33301H20.6667V22.333M34 12.333H20.6667M34 12.333L29 3.99967H20.6667M4.00004 8.99967H10.6667"
			stroke-linecap="round" stroke-linejoin="round" />
	</symbol>

	<symbol id="Discount" xmlns="http://www.w3.org/2000/svg" viewBox="0 0 34 34" stroke="currentColor"
		fill="none">
		<path
			d="M12 21.9998L22 11.9998M13.6667 12.8332C13.6667 13.2934 13.2936 13.6665 12.8333 13.6665C12.3731 13.6665 12 13.2934 12 12.8332C12 12.3729 12.3731 11.9998 12.8333 11.9998C13.2936 11.9998 13.6667 12.3729 13.6667 12.8332ZM22 21.1665C22 21.6267 21.6269 21.9998 21.1667 21.9998C20.7064 21.9998 20.3333 21.6267 20.3333 21.1665C20.3333 20.7063 20.7064 20.3332 21.1667 20.3332C21.6269 20.3332 22 20.7063 22 21.1665ZM5.33334 8.99979C5.33334 8.02733 5.71965 7.0947 6.40728 6.40707C7.09491 5.71943 8.02755 5.33313 9.00001 5.33313H10.6667C11.6348 5.33257 12.5635 4.94913 13.25 4.26646L14.4167 3.09979C14.7574 2.75713 15.1625 2.4852 15.6087 2.29964C16.0549 2.11408 16.5334 2.01855 17.0167 2.01855C17.4999 2.01855 17.9784 2.11408 18.4246 2.29964C18.8708 2.4852 19.2759 2.75713 19.6167 3.09979L20.7833 4.26646C21.4699 4.94913 22.3985 5.33257 23.3667 5.33313H25.0333C26.0058 5.33313 26.9384 5.71943 27.6261 6.40707C28.3137 7.0947 28.7 8.02733 28.7 8.99979V10.6665C28.7006 11.6346 29.084 12.5633 29.7667 13.2498L30.9333 14.4165C31.276 14.7572 31.5479 15.1623 31.7335 15.6085C31.9191 16.0547 32.0146 16.5332 32.0146 17.0165C32.0146 17.4997 31.9191 17.9782 31.7335 18.4244C31.5479 18.8706 31.276 19.2757 30.9333 19.6165L29.7667 20.7831C29.084 21.4696 28.7006 22.3983 28.7 23.3665V25.0331C28.7 26.0056 28.3137 26.9382 27.6261 27.6259C26.9384 28.3135 26.0058 28.6998 25.0333 28.6998H23.3667C22.3985 28.7003 21.4699 29.0838 20.7833 29.7665L19.6167 30.9331C19.2759 31.2758 18.8708 31.5477 18.4246 31.7333C17.9784 31.9188 17.4999 32.0144 17.0167 32.0144C16.5334 32.0144 16.0549 31.9188 15.6087 31.7333C15.1625 31.5477 14.7574 31.2758 14.4167 30.9331L13.25 29.7665C12.5635 29.0838 11.6348 28.7003 10.6667 28.6998H9.00001C8.02755 28.6998 7.09491 28.3135 6.40728 27.6259C5.71965 26.9382 5.33334 26.0056 5.33334 25.0331V23.3665C5.33279 22.3983 4.94934 21.4696 4.26667 20.7831L3.10001 19.6165C2.75734 19.2757 2.48541 18.8706 2.29985 18.4244C2.11429 17.9782 2.01877 17.4997 2.01877 17.0165C2.01877 16.5332 2.11429 16.0547 2.29985 15.6085C2.48541 15.1623 2.75734 14.7572 3.10001 14.4165L4.26667 13.2498C4.94934 12.5633 5.33279 11.6346 5.33334 10.6665V8.99979Z"
			stroke-linecap="round" stroke-linejoin="round" />
	</symbol>

	<symbol id="Return" xmlns="http://www.w3.org/2000/svg" viewBox="0 0 34 30" stroke="currentColor"
		fill="none">
		<path
			d="M32 6.66699H2M32 6.66699L27 11.667M32 6.66699L27 1.66699M7 28.3337L2 23.3337M2 23.3337L7 18.3337M2 23.3337H32"
			stroke-linecap="round" stroke-linejoin="round" />
	</symbol>

	<symbol id="CreditCard" xmlns="http://www.w3.org/2000/svg" viewBox="0 0 34 28"
		stroke="currentColor" fill="none">
		<path
			d="M2 10.6663H32M8.66667 18.9997H8.68333M15.3333 18.9997H18.6667M7 2.33301H27C29.7614 2.33301 32 4.57158 32 7.33301V20.6663C32 23.4278 29.7614 25.6663 27 25.6663H7C4.23858 25.6663 2 23.4278 2 20.6663V7.33301C2 4.57158 4.23858 2.33301 7 2.33301Z"
			stroke-linecap="round" stroke-linejoin="round" />
	</symbol>

	<symbol id="Deco" xmlns="http://www.w3.org/2000/svg" viewBox="0 0 58 20" stroke="currentColor"
		fill="none">
		<path
			d="M49.5359 16.9432C47.3666 16.9432 46.9948 14.8019 47.6797 12.7178C48.2221 11.0615 49.5066 9.31991 51.4201 9.31991C53.676 9.31991 53.9039 11.6038 53.247 13.6026C52.6753 15.3162 51.3908 16.9432 49.5359 16.9432ZM48.879 19.9973C52.6473 19.9973 56.0159 17.9133 57.3578 14.1449C58.7569 10.1767 57.1859 6.2085 52.0477 6.2085C47.9369 6.2085 44.7962 8.77758 43.5969 12.1755C42.2551 16.0011 43.7115 19.9973 48.879 19.9973ZM36.3747 19.9973C37.8591 19.9973 39.3729 19.6829 40.4282 19.2271C40.8 18.1998 40.828 17.2004 40.5428 16.201C39.8006 16.4862 38.7732 16.7727 37.7165 16.7727C34.861 16.7727 34.6051 14.6606 35.2048 12.8617C35.8617 10.9496 37.574 9.40786 40.287 9.40786C41.0012 9.40786 41.6861 9.52246 42.1138 9.77963C42.856 8.78025 43.2838 7.78086 43.3704 6.7535C42.7428 6.46834 41.6861 6.21117 40.3163 6.21117C35.863 6.21117 32.3505 8.80956 31.0953 12.406C29.896 15.8039 30.8101 20 36.3774 20L36.3747 19.9973ZM21.0442 11.8037C21.8143 10.0901 23.0136 9.09206 24.5846 9.09206C25.9838 9.09206 26.2116 9.86225 25.9838 10.4619C25.6413 11.2894 24.47 11.8037 21.0442 11.8037ZM22.2714 19.9973C23.7278 19.9973 25.7826 19.7122 27.4962 18.8554C27.7813 17.9133 27.7534 16.9712 27.4389 15.9998C26.3542 16.5421 24.8405 16.8566 23.4707 16.8566C21.4439 16.8566 20.3299 16.1997 20.3592 14.5447C25.8972 14.6873 28.7807 13.6879 29.7228 11.2334C30.6649 8.7496 29.0379 6.2085 25.1829 6.2085C21.0721 6.2085 18.046 9.14935 16.932 12.3181C15.7621 15.6867 16.5043 19.9973 22.2701 19.9973H22.2714ZM5.72293 19.9973C9.52059 19.9973 11.6806 18.2557 14.1924 12.9177C15.5622 9.97684 16.7335 7.09329 18.0753 4.23905L19.6743 4.7534C20.1021 4.89598 20.3313 4.6388 20.1314 4.23905L18.1899 0.270827C18.0473 -0.0143302 17.7329 -0.0436454 17.533 0.0429678L12.708 1.86984C12.3082 2.01242 12.3362 2.38419 12.7359 2.49745L14.1631 2.95451C12.9931 5.6102 11.5367 9.60641 10.3654 12.1182C9.05155 14.9165 8.39595 16.8859 6.16933 16.8859C3.9427 16.8859 3.57093 15.1443 4.51301 12.6605C5.59768 9.77697 7.42455 8.92016 9.5086 9.51979C10.0802 8.72028 10.508 7.52103 10.6785 6.43636C10.0789 6.26447 9.36469 6.2085 8.76639 6.2085C5.3978 6.2085 2.05719 7.95009 0.687373 11.6038C-1.0822 16.3143 0.554122 19.9973 5.7216 19.9973H5.72293Z"
			fill="currentColor" />
	</symbol>

	<symbol id="Discord" xmlns="http://www.w3.org/2000/svg" viewBox="0 0 127.14 96.36"
		stroke="currentColor" fill="none">
		<g id="图层_2" data-name="图层 2">
			<g id="Discord_Logos" data-name="Discord Logos">
				<g id="Discord_Logo_-_Large_-_White" data-name="Discord Logo - Large - White">
					<path class="cls-1"
						d="M107.7,8.07A105.15,105.15,0,0,0,81.47,0a72.06,72.06,0,0,0-3.36,6.83A97.68,97.68,0,0,0,49,6.83,72.37,72.37,0,0,0,45.64,0,105.89,105.89,0,0,0,19.39,8.09C2.79,32.65-1.71,56.6.54,80.21h0A105.73,105.73,0,0,0,32.71,96.36,77.7,77.7,0,0,0,39.6,85.25a68.42,68.42,0,0,1-10.85-5.18c.91-.66,1.8-1.34,2.66-2a75.57,75.57,0,0,0,64.32,0c.87.71,1.76,1.39,2.66,2a68.68,68.68,0,0,1-10.87,5.19,77,77,0,0,0,6.89,11.1A105.25,105.25,0,0,0,126.6,80.22h0C129.24,52.84,122.09,29.11,107.7,8.07ZM42.45,65.69C36.18,65.69,31,60,31,53s5-12.74,11.43-12.74S54,46,53.89,53,48.84,65.69,42.45,65.69Zm42.24,0C78.41,65.69,73.25,60,73.25,53s5-12.74,11.44-12.74S96.23,46,96.12,53,91.08,65.69,84.69,65.69Z" />
				</g>
			</g>
		</g>
	</symbol>

	<symbol id="FilterList" xmlns="http://www.w3.org/2000/svg" viewBox="0 0 16 16" fill="none">
		<path
			d="M6.66667 12H9.33333V10.6667H6.66667V12ZM2 4V5.33333H14V4H2ZM4 8.66667H12V7.33333H4V8.66667Z"
			fill="currentColor" />
	</symbol>

	<symbol id="ChevronUp" xmlns="http://www.w3.org/2000/svg" viewBox="0 0 16 16"
		stroke="currentColor" fill="none">
		<path fill-rule="evenodd" clip-rule="evenodd"
			d="M7.52851 5.52827C7.78886 5.26792 8.21097 5.26792 8.47132 5.52827L12.4713 9.52827C12.7317 9.78862 12.7317 10.2107 12.4713 10.4711C12.211 10.7314 11.7889 10.7314 11.5285 10.4711L7.99992 6.94248L4.47132 10.4711C4.21097 10.7314 3.78886 10.7314 3.52851 10.4711C3.26816 10.2107 3.26816 9.78862 3.52851 9.52827L7.52851 5.52827Z"
			fill="black" />
	</symbol>

	<symbol id="Trash" width="20" height="20" viewBox="0 0 20 20" fill="none"
		xmlns="http://www.w3.org/2000/svg">
		<path fill-rule="evenodd" clip-rule="evenodd"
			d="M7.15482 2.15483C7.46738 1.84227 7.89131 1.66667 8.33333 1.66667H11.6667C12.1087 1.66667 12.5326 1.84227 12.8452 2.15483C13.1577 2.46739 13.3333 2.89131 13.3333 3.33334V5H15.8236C15.8295 4.99994 15.8353 4.99994 15.8412 5H16.6667C17.1269 5 17.5 5.3731 17.5 5.83334C17.5 6.29357 17.1269 6.66667 16.6667 6.66667H16.6001L15.833 15.8715C15.8231 16.5207 15.5609 17.1413 15.1011 17.6011C14.6323 18.0699 13.9964 18.3333 13.3333 18.3333H6.66667C6.00362 18.3333 5.36774 18.0699 4.8989 17.6011C4.43906 17.1413 4.17685 16.5207 4.16696 15.8715L3.39989 6.66667H3.33333C2.8731 6.66667 2.5 6.29357 2.5 5.83334C2.5 5.3731 2.8731 5 3.33333 5H4.15878C4.16467 4.99994 4.17055 4.99994 4.17641 5H6.66667V3.33334C6.66667 2.89131 6.84226 2.46739 7.15482 2.15483ZM5.07233 6.66667L5.83045 15.7641C5.83237 15.7871 5.83333 15.8102 5.83333 15.8333C5.83333 16.0543 5.92113 16.2663 6.07741 16.4226C6.23369 16.5789 6.44565 16.6667 6.66667 16.6667H13.3333C13.5543 16.6667 13.7663 16.5789 13.9226 16.4226C14.0789 16.2663 14.1667 16.0543 14.1667 15.8333C14.1667 15.8102 14.1676 15.7871 14.1695 15.7641L14.9277 6.66667H5.07233ZM11.6667 5H8.33333V3.33334H11.6667V5ZM8.33333 8.33334C8.79357 8.33334 9.16667 8.70643 9.16667 9.16667V14.1667C9.16667 14.6269 8.79357 15 8.33333 15C7.8731 15 7.5 14.6269 7.5 14.1667V9.16667C7.5 8.70643 7.8731 8.33334 8.33333 8.33334ZM11.6667 8.33334C12.1269 8.33334 12.5 8.70643 12.5 9.16667V14.1667C12.5 14.6269 12.1269 15 11.6667 15C11.2064 15 10.8333 14.6269 10.8333 14.1667V9.16667C10.8333 8.70643 11.2064 8.33334 11.6667 8.33334Z"
			fill="currentColor" />
	</symbol>

	<symbol id="WhatsApp" xmlns="http://www.w3.org/2000/svg" viewBox="0 0 18 18" fill="none">
		<path fill-rule="evenodd" clip-rule="evenodd"
			d="M13.333 3.94275C12.0977 2.88909 10.5203 2.32246 8.89688 2.34921C7.27345 2.37596 5.71558 2.99425 4.51564 4.08804C3.3157 5.18184 2.55617 6.67594 2.3796 8.28996C2.20302 9.90398 2.62153 11.527 3.5566 12.8543C3.72398 13.0919 3.75547 13.3996 3.63972 13.6661L2.88341 15.408L5.56246 14.9305C5.73665 14.8995 5.9162 14.9247 6.07512 15.0025C7.53336 15.7165 9.20204 15.8737 10.768 15.4448C12.334 15.0158 13.6896 14.0301 14.5804 12.6727C15.4712 11.3152 15.836 9.67933 15.6064 8.07201C15.3767 6.46468 14.5684 4.99641 13.333 3.94275ZM8.86942 0.682773C10.8987 0.649334 12.8704 1.35761 14.4146 2.67469C15.9588 3.99177 16.9692 5.8271 17.2563 7.83626C17.5433 9.84542 17.0873 11.8903 15.9738 13.5871C14.8603 15.2839 13.1658 16.516 11.2083 17.0522C9.34061 17.5638 7.35601 17.4083 5.59455 16.6177L1.64654 17.3213C1.34428 17.3752 1.03687 17.2585 0.846507 17.0176C0.656144 16.7767 0.613663 16.4506 0.735949 16.169L1.93091 13.417C0.947723 11.8367 0.519412 9.96793 0.722814 8.1087C0.943534 6.09118 1.89294 4.22355 3.39287 2.85631C4.8928 1.48907 6.84013 0.716212 8.86942 0.682773ZM6.03312 5.61685C6.26754 5.38243 6.58548 5.25073 6.917 5.25073C7.24852 5.25073 7.56646 5.38243 7.80088 5.61685C8.03531 5.85127 8.167 6.16921 8.167 6.50073V7.33407C8.167 7.66558 8.03531 7.98353 7.80088 8.21795C7.71659 8.30224 7.62149 8.37326 7.51885 8.42964C7.68255 8.89999 7.95113 9.33224 8.30998 9.69109C8.66883 10.0499 9.10107 10.3185 9.57143 10.4822C9.62781 10.3796 9.69882 10.2845 9.78312 10.2002C10.0175 9.96576 10.3355 9.83407 10.667 9.83407H11.5003C11.8319 9.83407 12.1498 9.96576 12.3842 10.2002C12.6186 10.4346 12.7503 10.7525 12.7503 11.0841C12.7503 11.4156 12.6186 11.7335 12.3842 11.9679C12.1498 12.2024 11.8319 12.3341 11.5003 12.3341H10.667C9.34092 12.3341 8.06915 11.8073 7.13147 10.8696C6.19378 9.93192 5.667 8.66015 5.667 7.33407V6.50073C5.667 6.16921 5.79869 5.85127 6.03312 5.61685Z"
			fill="currentColor" />
	</symbol>

	<symbol id="NotFound" xmlns="http://www.w3.org/2000/svg" width="199" height="229.059"
		viewBox="0 0 199 229.059">
		<g id="noun_Sad_2267597" opacity="0.22">
			<path id="Caminho_1767" data-name="Caminho 1767"
				d="M225.8,0H74.9A19.587,19.587,0,0,0,55.2,19.419V199.594a19.587,19.587,0,0,0,19.7,19.419H225.8a4.326,4.326,0,0,0,4.356-4.294V4.294A4.326,4.326,0,0,0,225.8,0Zm-15.16,188.759h10.8v21.665h-10.8Zm10.8-8.589H87.7V8.589H221.44ZM63.913,19.419A10.922,10.922,0,0,1,74.9,8.589h4.086V180.17H74.9c-.309,0-.61,0-.915.026h-.266c-.222,0-.436.03-.671.052l-.257.021c-.3.034-.6.069-.871.112h0c-.292.043-.579.094-.871.15l-.248.052-.645.15-.24.06c-.283.073-.566.15-.845.236h0c-.274.086-.54.176-.81.271l-.231.086-.61.236-.222.09c-.266.116-.531.232-.788.352h-.031c-.248.12-.492.245-.736.374l-.222.116-.558.318-.2.125c-.24.142-.479.292-.71.429Zm0,180.175A10.927,10.927,0,0,1,74.9,188.759h127.02v6.54H83.342a4.295,4.295,0,1,0,0,8.589H201.924v6.536H74.9a10.923,10.923,0,0,1-10.991-10.83Z"
				transform="translate(-31.153)"></path>
			<ellipse id="Elipse_55" data-name="Elipse 55" cx="8.404" cy="8.284" rx="8.404" ry="8.284"
				transform="translate(81.173 82.92)"></ellipse>
			<ellipse id="Elipse_56" data-name="Elipse 56" cx="8.404" cy="8.284" rx="8.404" ry="8.284"
				transform="translate(146.576 82.92)"></ellipse>
			<path id="Caminho_1768" data-name="Caminho 1768"
				d="M274.882,251.255c-.157-.477-3.982-11.715-18.733-11.715s-18.589,11.238-18.733,11.715h0a4.291,4.291,0,0,0,3.469,5.625,4.36,4.36,0,0,0,4.821-2.971c.3-.786,2.514-5.763,10.455-5.763s10.146,4.977,10.455,5.763a4.36,4.36,0,0,0,4.825,2.985,4.313,4.313,0,0,0,3.7-4.274,4.184,4.184,0,0,0-.231-1.366Z"
				transform="translate(-133.86 -136.673)"></path>
			<text id="Created_by_AomAm" data-name="Created by AomAm" transform="translate(0 225.059)"
				font-size="1" font-family="HelveticaNeue, Helvetica Neue">
				<tspan x="0" y="0">Created by AomAm</tspan>
			</text>
			<text id="from_the_Noun_Project" data-name="from the Noun Project"
				transform="translate(0 228.059)" font-size="1" font-family="HelveticaNeue, Helvetica Neue">
				<tspan x="0" y="0">from the Noun Project</tspan>
			</text>
		</g>
	</symbol>

	<symbol id="Mail" xmlns="http://www.w3.org/2000/svg" width="46" height="46" viewBox="0 0 46 46">
		<circle cx="23" cy="23" r="23" fill="#fff"></circle>
		<g transform="translate(-9 -57.247)">
			<g transform="translate(17.113 70.247)">
				<g transform="translate(0 0)">
					<path d="M46.016,68.267H17.067L31.541,80.19,46.18,68.3A1.006,1.006,0,0,0,46.016,68.267Z"
						transform="translate(-17.067 -68.267)" fill="#af0100"></path>
				</g>
			</g>
			<g transform="translate(16 70.648)">
				<g transform="translate(0 0)">
					<path
						d="M16.29,110.665a1.113,1.113,0,0,1-1.411,0L0,98.406v19.189a1.113,1.113,0,0,0,1.113,1.113H30.062a1.113,1.113,0,0,0,1.113-1.113V98.571Z"
						transform="translate(0 -98.406)" fill="#af0100"></path>
				</g>
			</g>
		</g>
	</symbol>

	<symbol id="DoubleRightArrow" xmlns="http://www.w3.org/2000/svg" width="21.757" height="24.964"
		viewBox="0 0 21.757 24.964">
		<g opacity="0.29">
			<path
				d="M5.989,2a1.135,1.135,0,0,0-.824,1.936l10.2,10.552L5.165,25.043A1.135,1.135,0,1,0,6.8,26.62L17.759,15.28a1.135,1.135,0,0,0,0-1.579L6.8,2.361A1.135,1.135,0,0,0,5.989,2ZM14.5,2a1.135,1.135,0,0,0-.824,1.936l10.2,10.552L13.68,25.043a1.135,1.135,0,1,0,1.633,1.578L26.273,15.28a1.135,1.135,0,0,0,0-1.579L15.313,2.361A1.135,1.135,0,0,0,14.5,2Z"
				transform="translate(-4.835 -2.002)" fill="#fff" fill-rule="evenodd"></path>
		</g>
	</symbol>

	<symbol id="RightArrow" xmlns="http://www.w3.org/2000/svg" width="26.215" height="26.214"
		viewBox="0 0 26.215 26.214">
		<g transform="translate(-38.19 12.917) rotate(-3)">
			<g transform="matrix(0.695, 0.719, -0.719, 0.695, 51.444, -10.239)">
				<path
					d="M.405,8.1l7.249,2.814,2.792,7.249a.581.581,0,0,0,.563.383h0a.581.581,0,0,0,.563-.383L18.505.828A.585.585,0,0,0,18.37.175.626.626,0,0,0,17.717.04L.383,6.974A.665.665,0,0,0,0,7.537.635.635,0,0,0,.405,8.1ZM16.862,1.706,11.031,16.249l-2.116-5.47L11.8,7.92l-.855-.855L8.194,9.788,2.319,7.537Z"
					transform="translate(0 0)" fill="#fff" />
			</g>
		</g>
	</symbol>

	<symbol id="InstagramHeader" xmlns="http://www.w3.org/2000/svg" width="13.147" height="13.147"
		viewBox="0 0 13.147 13.147">
		<g transform="translate(0 0)">
			<path
				d="M9.231,0H3.917A3.921,3.921,0,0,0,0,3.917V9.231a3.921,3.921,0,0,0,3.917,3.917H9.231a3.921,3.921,0,0,0,3.917-3.917V3.917A3.921,3.921,0,0,0,9.231,0Zm2.594,9.231a2.594,2.594,0,0,1-2.594,2.594H3.917A2.594,2.594,0,0,1,1.323,9.231V3.917A2.594,2.594,0,0,1,3.917,1.323H9.231a2.594,2.594,0,0,1,2.594,2.594Z"
				transform="translate(0 0)" fill="#5c5c5c"></path>
			<path
				d="M136.4,133a3.4,3.4,0,1,0,3.4,3.4A3.4,3.4,0,0,0,136.4,133Zm0,5.478a2.078,2.078,0,1,1,2.078-2.078A2.078,2.078,0,0,1,136.4,138.478Z"
				transform="translate(-129.827 -129.827)" fill="#5c5c5c"></path>
			<ellipse cx="0.815" cy="0.815" rx="0.815" ry="0.815" transform="translate(9.165 2.384)"
				fill="#5c5c5c"></ellipse>
		</g>
	</symbol>

	<symbol id="FacebookHeader" xmlns="http://www.w3.org/2000/svg" width="12.747" height="12.747"
		viewBox="0 0 12.747 12.747">
		<path
			d="M12.043,0H.7A.7.7,0,0,0,0,.7v11.34a.7.7,0,0,0,.7.7h6.1V7.812H5.147V5.888H6.808V4.469A2.318,2.318,0,0,1,9.282,1.926,13.778,13.778,0,0,1,10.767,2V3.722H9.748c-.8,0-.953.38-.953.937V5.887H10.7l-.249,1.924H8.795v4.937h3.248a.7.7,0,0,0,.7-.7V.7a.7.7,0,0,0-.7-.7Z"
			transform="translate(0 -0.001)" fill="#5c5c5c"></path>
	</symbol>

	<symbol id="WhatsappHeader" xmlns="http://www.w3.org/2000/svg" width="13.838" height="13.951"
		viewBox="0 0 13.838 13.951">
		<path
			d="M8.271.008A6.922,6.922,0,0,0,2.443,10.061l-.735,3.566a.269.269,0,0,0,.326.316l3.494-.828A6.919,6.919,0,1,0,8.271.008ZM12.44,10.75A5.421,5.421,0,0,1,6.2,11.772l-.487-.242-2.142.508L4.02,9.848l-.24-.469a5.422,5.422,0,0,1,1-6.29A5.418,5.418,0,1,1,12.44,10.75Z"
			transform="translate(-1.69 0)" fill="#5c5c5c"></path>
		<path
			d="M111.424,112.253l-1.34-.385a.5.5,0,0,0-.494.13l-.328.334a.488.488,0,0,1-.531.112,7.154,7.154,0,0,1-2.308-2.035.488.488,0,0,1,.039-.541l.286-.37a.5.5,0,0,0,.062-.507l-.564-1.275a.5.5,0,0,0-.78-.179,2.254,2.254,0,0,0-.872,1.33c-.1.939.308,2.123,1.83,3.544,1.759,1.642,3.168,1.859,4.085,1.637a2.254,2.254,0,0,0,1.2-1.045A.5.5,0,0,0,111.424,112.253Z"
			transform="translate(-101.148 -103.833)" fill="#5c5c5c"></path>
	</symbol>

	<symbol id="MyStores" xmlns="http://www.w3.org/2000/svg" width="9.416" height="13"
		viewBox="0 0 9.416 13">
		<path
			d="M75.281,0a4.713,4.713,0,0,0-4.708,4.708c0,3.222,4.213,7.952,4.393,8.151a.424.424,0,0,0,.631,0c.179-.2,4.393-4.93,4.393-8.151A4.713,4.713,0,0,0,75.281,0Zm0,7.077A2.369,2.369,0,1,1,77.65,4.708,2.371,2.371,0,0,1,75.281,7.077Z"
			transform="translate(-70.573)" fill="#5c5c5c"></path>
	</symbol>

	<symbol id="Wishlist" xmlns="http://www.w3.org/2000/svg" width="22.455" height="19"
		viewBox="0 0 22.455 19">
		<g transform="translate(17.567 -236)">
			<g transform="translate(-17.567 236)">
				<path
					d="M146.007,251.965l-5.8-5.832c-.251-.314-2.352-2.383-2.634-2.665-1.1-1.1-2.038-1.944-2.038-3.7a4.691,4.691,0,0,1,.972-2.79,5.231,5.231,0,0,1,4.139-2.226,5.133,5.133,0,0,1,3.323,1.348,8.148,8.148,0,0,1,1.818,2.289,2.338,2.338,0,0,1,.219.376h.063a14.781,14.781,0,0,1,1.129-1.724,2.286,2.286,0,0,0,.282-.314,6.335,6.335,0,0,1,1.975-1.536,4.829,4.829,0,0,1,5.079.658,5.274,5.274,0,0,1,1.724,2.383,4.333,4.333,0,0,1-.157,3.323,11.441,11.441,0,0,1-1.913,2.195c-1.38,1.38-2.728,2.728-4.107,4.076-.188.188-.314.345-.47.533C149.237,248.736,146.1,251.809,146.007,251.965ZM151.275,234h.439a5.775,5.775,0,0,1,3.386,1.348l1.035,1.1a5.044,5.044,0,0,1,.533.878,5.464,5.464,0,0,1,.6,2.195v.408a4.608,4.608,0,0,1-.22,1.285,7.932,7.932,0,0,1-.5,1.035,30.034,30.034,0,0,1-2.947,3.1c-.251.282-.5.533-.752.784-.408.439-6.71,6.678-6.835,6.866-.125-.094-2.069-2.069-2.257-2.226a1.228,1.228,0,0,0-.251-.314l-6.96-6.992a7.3,7.3,0,0,1-.815-.878,4.95,4.95,0,0,1-.878-3.449,5.8,5.8,0,0,1,.345-1.317,6.333,6.333,0,0,1,3.355-3.386,5.049,5.049,0,0,1,2.351-.408,6.408,6.408,0,0,1,4.7,2.728l.439.6a1.227,1.227,0,0,0,.251-.314,9.929,9.929,0,0,1,1.442-1.6l.47-.345a5.051,5.051,0,0,1,1.411-.752A4.777,4.777,0,0,1,151.275,234Z"
					transform="translate(-134.808 -234)" fill="#5d5d5d" fill-rule="evenodd"></path>
			</g>
		</g>
	</symbol>

	<symbol id="HeartFooter" xmlns="http://www.w3.org/2000/svg" width="11.722" height="10.761"
		viewBox="0 0 11.722 10.761">
		<g transform="translate(0 0)">
			<path
				d="M8.608,30a2.708,2.708,0,0,0-1.733.623,4.077,4.077,0,0,0-1.014,1.268,4.076,4.076,0,0,0-1.014-1.268A2.708,2.708,0,0,0,3.114,30,3.257,3.257,0,0,0,0,33.512c0,2.163,1.67,3.643,4.2,5.883.429.38.916.812,1.422,1.272a.356.356,0,0,0,.482,0c.506-.46.992-.891,1.422-1.272,2.528-2.24,4.2-3.72,4.2-5.883A3.257,3.257,0,0,0,8.608,30Z"
				transform="translate(0 -30)" fill="#0080c7"></path>
		</g>
	</symbol>

	<symbol id="PhoneFooter" xmlns="http://www.w3.org/2000/svg" width="10.982" height="11.464"
		viewBox="0 0 10.982 11.464">
		<path
			d="M3.137,7.62a11.774,11.774,0,0,0,3.89,3.169,5.884,5.884,0,0,0,2.177.67c.053,0,.1,0,.155,0a1.771,1.771,0,0,0,1.4-.625.051.051,0,0,0,.009-.012,6.022,6.022,0,0,1,.441-.475c.107-.107.217-.219.322-.333a1.178,1.178,0,0,0,0-1.708L10.152,6.884a1.093,1.093,0,0,0-.8-.385,1.129,1.129,0,0,0-.813.382l-.818.85c-.075-.045-.153-.086-.226-.124a2.793,2.793,0,0,1-.251-.143A8.785,8.785,0,0,1,5.172,5.509a5.22,5.22,0,0,1-.7-1.159c.215-.2.416-.413.61-.62.069-.074.139-.147.21-.221a1.24,1.24,0,0,0,.379-.855A1.23,1.23,0,0,0,5.293,1.8L4.613,1.09c-.08-.083-.155-.164-.233-.247C4.229.682,4.071.515,3.916.366A1.118,1.118,0,0,0,3.112,0,1.151,1.151,0,0,0,2.3.368l-.854.888A1.857,1.857,0,0,0,.921,2.425a4.554,4.554,0,0,0,.318,1.9,11.156,11.156,0,0,0,1.9,3.295ZM1.479,2.475a1.278,1.278,0,0,1,.363-.808l.85-.884a.6.6,0,0,1,.42-.2.575.575,0,0,1,.411.207c.153.147.3.3.452.466l.238.252.681.708a.655.655,0,0,1,.215.444.655.655,0,0,1-.215.444l-.212.223c-.212.223-.411.435-.63.637l-.011.012a.478.478,0,0,0-.114.527l.007.019a5.636,5.636,0,0,0,.8,1.356,9.273,9.273,0,0,0,2.2,2.086,3.232,3.232,0,0,0,.3.171,2.793,2.793,0,0,1,.251.143l.025.014a.463.463,0,0,0,.222.059.478.478,0,0,0,.34-.162L8.93,7.3a.6.6,0,0,1,.418-.211.567.567,0,0,1,.4.211l1.377,1.43a.587.587,0,0,1-.007.9c-.1.107-.2.209-.3.316a6.731,6.731,0,0,0-.477.515,1.232,1.232,0,0,1-.98.432c-.039,0-.08,0-.119,0a5.347,5.347,0,0,1-1.969-.613,11.185,11.185,0,0,1-3.7-3.017,10.677,10.677,0,0,1-1.8-3.124,3.968,3.968,0,0,1-.288-1.656Z"
			transform="translate(-0.912)" fill="#3d3d3d" />
	</symbol>

	<symbol id="WhatsappFooter" xmlns="http://www.w3.org/2000/svg" width="11.095" height="11.633"
		viewBox="0 0 11.095 11.633">
		<path
			d="M6.967.007A5.684,5.684,0,0,0,1.69,5.787a5.93,5.93,0,0,0,.6,2.6L1.7,11.363a.22.22,0,0,0,.261.264l2.8-.69a5.351,5.351,0,0,0,2.384.6,5.66,5.66,0,0,0,5.631-5.584A5.658,5.658,0,0,0,6.967.007Zm3.343,8.957a4.233,4.233,0,0,1-3.072,1.323A4.163,4.163,0,0,1,5.3,9.816l-.39-.2L3.2,10.037l.362-1.825L3.366,7.82a4.662,4.662,0,0,1,.8-5.245,4.227,4.227,0,0,1,6.143,0,4.646,4.646,0,0,1,0,6.389Z"
			transform="translate(-1.69 0)" fill="#3d3d3d" />
		<path
			d="M110.068,111.449l-1.075-.321a.39.39,0,0,0-.4.109l-.263.278a.381.381,0,0,1-.426.093,5.814,5.814,0,0,1-1.851-1.7.42.42,0,0,1,.031-.451l.229-.309a.43.43,0,0,0,.049-.423l-.452-1.063a.393.393,0,0,0-.626-.149,1.887,1.887,0,0,0-.7,1.109,3.725,3.725,0,0,0,1.468,2.955c1.411,1.369,2.54,1.55,3.276,1.365a1.831,1.831,0,0,0,.961-.871A.422.422,0,0,0,110.068,111.449Z"
			transform="translate(-101.828 -104.429)" fill="#3d3d3d" />
	</symbol>

	<symbol id="MailFooter" xmlns="http://www.w3.org/2000/svg" width="11.319" height="8.561"
		viewBox="0 0 11.319 8.561">
		<path
			d="M11.062,6H.257A.263.263,0,0,0,0,6.268v8.026a.263.263,0,0,0,.257.268h10.8a.263.263,0,0,0,.257-.268V6.268A.263.263,0,0,0,11.062,6ZM10.8,13.379,7.618,10.065l-.364.378L10.7,14.026H.62l3.445-3.583L3.7,10.065.515,13.379V6.535H10.8Z"
			transform="translate(0 -6)" fill="#3d3d3d" />
		<path d="M11.77,8,7.145,12.81,2.52,8H2v.216l4.963,5.161a.25.25,0,0,0,.364,0L12.29,8.216V8Z"
			transform="translate(-1.485 -7.465)" fill="#3d3d3d" />
	</symbol>

	<symbol
		id="Visa"
		xmlns="http://www.w3.org/2000/svg"
		width="44.242"
		height="14.15"
		viewBox="0 0 44.242 14.15"
	>
		<path
			d="M74.459,3.846H71.676A1.771,1.771,0,0,0,69.8,4.989L64.456,17.562H68.24s.612-1.693.765-2.069H73.61c.1.477.431,2.054.431,2.054h3.325Zm-4.438,8.84c.292-.8,1.433-3.834,1.433-3.834-.014.029.292-.8.473-1.317l.237,1.186s.682,3.27.835,3.964Zm-5.315.376c-.028,2.85-2.476,4.688-6.261,4.688a10.747,10.747,0,0,1-4.007-.738l.5-3.067.459.217a7.392,7.392,0,0,0,3.395.723c1.043,0,2.143-.42,2.156-1.346,0-.608-.459-1.027-1.864-1.693-1.363-.651-3.172-1.751-3.144-3.733,0-2.662,2.5-4.514,6.066-4.514a8.665,8.665,0,0,1,3.214.579l-.487,2.966-.32-.159a6.274,6.274,0,0,0-2.685-.521c-1.405,0-2.059.608-2.059,1.186,0,.637.765,1.071,2.017,1.693C63.76,10.313,64.72,11.5,64.706,13.062ZM49.388,3.846,43.726,17.533h-3.8L36.7,6.1a14.357,14.357,0,0,1,4.981,5.686l.376,1.418,3.52-9.361h3.812Zm1.447-.014h3.6L52.185,17.547h-3.6L50.835,3.831Z"
			transform="translate(-33.124 -3.6)"
			fill="#3d3d3d"
		>
		</path>
		<path
			d="M11,4.675l.042-.275h5.579a1.461,1.461,0,0,1,1.572,1.114l1.21,6.062C18.207,8.408,15.341,5.76,11,4.675Z"
			transform="translate(-11 -4.284)"
			fill="#3d3d3d"
		>
		</path>
	</symbol>

	<symbol
		id="Mastercard"
		xmlns="http://www.w3.org/2000/svg"
		width="32.317"
		height="25.157"
		viewBox="0 0 32.317 25.157"
	>
		<path
			d="M134.3,8.536a9.934,9.934,0,0,0-6.669-8.09,8.965,8.965,0,0,0-1.891-.4L125.27,0h-1.014a.562.562,0,0,1-.076.014A8.909,8.909,0,0,0,122.393.3a9.309,9.309,0,0,0-4.023,2.224,10.477,10.477,0,0,1,.675,14.277c-.214.247-.438.485-.668.706q.305.286.638.542a9.345,9.345,0,0,0,8.211,1.665,10.039,10.039,0,0,0,7.086-11.181Z"
			transform="translate(-102.101)"
			fill="#3d3d3d"
		>
		</path>
		<path
			d="M13.159,12.407a10.114,10.114,0,0,1-.25-3.073,10.194,10.194,0,0,1,3.115-6.78h0l.025-.024q-.241-.223-.5-.429A9.417,9.417,0,0,0,12.513.445a8.965,8.965,0,0,0-1.891-.4L10.148,0H9.134a.564.564,0,0,1-.076.014A8.909,8.909,0,0,0,7.272.3,9.316,9.316,0,0,0,3.1,2.667,10.037,10.037,0,0,0,.031,9.345,9.921,9.921,0,0,0,.28,12.371,9.923,9.923,0,0,0,3.886,18.05a9.205,9.205,0,0,0,5.262,1.98,9.033,9.033,0,0,0,2.952-.314,9.428,9.428,0,0,0,3.956-2.206,10.128,10.128,0,0,1-2.9-5.1Z"
			transform="translate(-0.005)"
			fill="#3d3d3d"
		>
		</path>
		<path
			d="M95.842,26.378A10.087,10.087,0,0,0,98.8,34.214c.192-.189.379-.39.559-.6a10.154,10.154,0,0,0,2.313-8.039A10.014,10.014,0,0,0,98.8,19.86a9.917,9.917,0,0,0-2.957,6.518Z"
			transform="translate(-82.647 -17.021)"
			fill="#3d3d3d"
		>
		</path>
		<path
			d="M19.5,159.08h-.559v-1.448a1.45,1.45,0,0,0-.055-.382.454.454,0,0,0-.436-.343.589.589,0,0,0-.687.632c-.015.473,0,.946-.008,1.419v.12h-.568v-1.431a1.5,1.5,0,0,0-.054-.4.454.454,0,0,0-.437-.342.591.591,0,0,0-.687.629c-.014.477,0,.956-.007,1.429v.107h-.55V156.43H16v.3l.016.01a.85.85,0,0,1,.807-.379.925.925,0,0,1,.764.466.179.179,0,0,0,.025-.023.98.98,0,0,1,1-.437.964.964,0,0,1,.892,1.066v1.429C19.5,158.931,19.5,159,19.5,159.08Z"
			transform="translate(-13.327 -134.003)"
			fill="#3d3d3d"
		>
		</path>
		<path
			d="M203.026,153.148h-.55v-.3a.263.263,0,0,0-.038.029.988.988,0,0,1-.954.334,1.341,1.341,0,0,1-1.093-1.538,1.321,1.321,0,0,1,.642-1.069,1.184,1.184,0,0,1,.9-.143.9.9,0,0,1,.48.286c.017.019.03.041.045.061l.018-.01V149.43h.55Zm-2.062-1.326q0,.053,0,.106a.8.8,0,0,0,.428.676.745.745,0,0,0,.776-.057.848.848,0,0,0,.34-.782.808.808,0,0,0-.268-.6.744.744,0,0,0-.615-.181A.785.785,0,0,0,200.964,151.821Z"
			transform="translate(-172.841 -128.071)"
			fill="#3d3d3d"
		>
		</path>
		<path
			d="M50.57,159.123v-.286h-.019a1.021,1.021,0,0,1-1.133.312,1.3,1.3,0,0,1-.926-1.159,1.519,1.519,0,0,1,.3-1.116,1.227,1.227,0,0,1,1.31-.417,1.036,1.036,0,0,1,.466.32v-.3h.55v2.647ZM50.6,157.8a.772.772,0,0,0-1.141-.758.84.84,0,0,0-.412.815.813.813,0,0,0,.311.645.747.747,0,0,0,.683.124.809.809,0,0,0,.558-.826Z"
			transform="translate(-41.817 -134.049)"
			fill="#3d3d3d"
		>
		</path>
		<path
			d="M164.889,156.751v-.286h.55v2.644h-.55V158.8c-.025.023-.034.03-.043.039a.974.974,0,0,1-.942.329,1.3,1.3,0,0,1-1.1-1.3,1.4,1.4,0,0,1,.481-1.193,1.179,1.179,0,0,1,1.123-.242A1.072,1.072,0,0,1,164.889,156.751Zm-.739.184a.788.788,0,0,0-.781.858.824.824,0,0,0,.21.606.76.76,0,0,0,.57.252.863.863,0,0,0,0-1.715Z"
			transform="translate(-140.423 -134.034)"
			fill="#3d3d3d"
		>
		</path>
		<path
			d="M111.346,158h-1.909a.707.707,0,0,0,.687.65,1.175,1.175,0,0,0,.756-.23l.062-.044.275.429a3.131,3.131,0,0,1-.264.176,1.561,1.561,0,0,1-1.159.143,1.243,1.243,0,0,1-.914-1.086,1.754,1.754,0,0,1,.087-.858,1.214,1.214,0,0,1,1.3-.792,1.2,1.2,0,0,1,1.06,1.108C111.341,157.661,111.337,157.826,111.346,158Zm-.59-.459a.65.65,0,0,0-1.092-.473.683.683,0,0,0-.213.473Z"
			transform="translate(-93.899 -134.027)"
			fill="#3d3d3d"
		>
		</path>
		<path
			d="M71.73,158.862l.242-.415a4.774,4.774,0,0,0,.471.2,1.283,1.283,0,0,0,.709.014.488.488,0,0,0,.155-.071.225.225,0,0,0,.113-.216.222.222,0,0,0-.146-.193,3.318,3.318,0,0,0-.445-.107,4.1,4.1,0,0,1-.514-.126.68.68,0,0,1-.489-.675.763.763,0,0,1,.471-.735,1.308,1.308,0,0,1,.55-.116,1.994,1.994,0,0,1,.947.193c.034.017.069.039.1.059.011,0,.021.016.038.027l-.225.439c-.187-.061-.364-.127-.55-.174a.9.9,0,0,0-.509,0,.45.45,0,0,0-.162.09.218.218,0,0,0-.081.208.212.212,0,0,0,.142.169,2.572,2.572,0,0,0,.363.084c.177.039.36.06.533.114a.7.7,0,0,1,.55.646.749.749,0,0,1-.467.783,1.806,1.806,0,0,1-1.772-.177.109.109,0,0,1-.018-.016A.019.019,0,0,1,71.73,158.862Z"
			transform="translate(-61.871 -134.067)"
			fill="#3d3d3d"
		>
		</path>
		<path
			d="M91.507,152.6H91v-.526h.509v-.8h.562v.8h.9v.532h-.881c-.01.011-.012.014-.012.016,0,.429-.011.858,0,1.286.01.274.2.4.492.333a3.708,3.708,0,0,0,.367-.119l.1.323c.054.167.055.169-.1.239a1.326,1.326,0,0,1-.816.093.714.714,0,0,1-.6-.693c-.016-.16-.016-.323-.018-.486v-.965A.186.186,0,0,0,91.507,152.6Z"
			transform="translate(-78.493 -129.648)"
			fill="#3d3d3d"
		>
		</path>
		<path
			d="M146.124,158.386l.263.46a1.18,1.18,0,0,1-.518.276,1.624,1.624,0,0,1-.833-.017,1.3,1.3,0,0,1-.926-1.235,1.425,1.425,0,0,1,.392-1.128,1.272,1.272,0,0,1,.815-.363,1.351,1.351,0,0,1,1.067.312l-.254.446a2.973,2.973,0,0,0-.381-.174.775.775,0,0,0-.884.227.905.905,0,0,0,.348,1.394.965.965,0,0,0,.833-.143Z"
			transform="translate(-124.297 -134.015)"
			fill="#3d3d3d"
		>
		</path>
		<path
			d="M131.69,159.145h-.55V156.5h.542v.286l.015.014a.839.839,0,0,1,1.06-.3l-.17.542a.927.927,0,0,0-.465-.053.45.45,0,0,0-.385.353,1.434,1.434,0,0,0-.044.343v1.371Z"
			transform="translate(-113.116 -134.068)"
			fill="#3d3d3d"
		>
		</path>
		<path
			d="M187.44,156.478h.542v.286a.869.869,0,0,1,1.073-.286l-.165.526a3.253,3.253,0,0,0-.352-.044.476.476,0,0,0-.36.119.515.515,0,0,0-.171.35,1.657,1.657,0,0,0-.016.242v1.457h-.55Z"
			transform="translate(-161.677 -134.051)"
			fill="#3d3d3d"
		>
		</path>
	</symbol>
	<symbol
		id="DinersClub"
		xmlns="http://www.w3.org/2000/svg"
		width="29.043"
		height="25.236"
		viewBox="0 0 29.043 25.236"
	>
		<path
			d="M54.612,0c.317.03.632.049.952.093a7.489,7.489,0,0,1,6.349,6.046,7.186,7.186,0,0,1-1.955,6.54,7.5,7.5,0,0,1-5.479,2.4c-1.138.009-2.275,0-3.413,0a7.3,7.3,0,0,1-6.84-4.863A7.656,7.656,0,0,1,47.6.864,7.175,7.175,0,0,1,50.749.021,1.353,1.353,0,0,0,50.926,0ZM51.086.627A6.771,6.771,0,0,0,44.446,7.52a6.64,6.64,0,1,0,13.271.02A6.775,6.775,0,0,0,51.086.627Z"
			transform="translate(-38.224)"
			fill="#3d3d3d"
		>
		</path>
		<path
			d="M154.159,174.927c-.1-.024-.2-.043-.306-.071a1.243,1.243,0,0,1-.862-.855,1.308,1.308,0,0,1,.248-1.212,1.289,1.289,0,1,1,1.2,2.094c-.063.01-.126.028-.19.042Zm.059-2.428a.668.668,0,0,0-.7.44,1.591,1.591,0,0,0,.155,1.494.678.678,0,0,0,1.187-.08,1.594,1.594,0,0,0-.058-1.475A.664.664,0,0,0,154.219,172.5Z"
			transform="translate(-133.607 -149.691)"
			fill="#3d3d3d"
		>
		</path>
		<path
			d="M0,172.8c.182,0,.365.009.547.01h.522c-.061.049-.091.093-.126.095-.167.007-.191.124-.192.263v1.743c0,.131.044.219.185.235.038,0,.072.041.109.062l-.013.058H0v-.032c.035-.029.07-.08.107-.084.161-.017.206-.117.206-.263v-1.739c0-.16-.059-.221-.21-.233A.729.729,0,0,1,0,172.9Q0,172.847,0,172.8Z"
			transform="translate(0 -150.088)"
			fill="#3d3d3d"
		>
		</path>
		<path
			d="M.245,132.258V132.1l.139-.02c.325-.054.417-.16.42-.506v-3.022a1.719,1.719,0,0,0-.013-.233c-.039-.277-.126-.364-.4-.394l-.154-.013v-.147H.631c.514,0,1.029-.018,1.542,0a2.374,2.374,0,0,1,1.8.789,2.2,2.2,0,0,1-1.092,3.591,4.663,4.663,0,0,1-.993.114c-.506.018-1.017,0-1.527,0ZM1.408,128v3.5a.47.47,0,0,0,.344.518,1.658,1.658,0,0,0,1.809-.789,2.536,2.536,0,0,0,.253-1.552,1.909,1.909,0,0,0-2.405-1.672Z"
			transform="translate(-0.21 -110.966)"
			fill="#3d3d3d"
		>
		</path>
		<path
			d="M206.381,124.49v2.442l.284-.212a1.087,1.087,0,0,1,1.748.686,1.711,1.711,0,0,1-1.107,2.073,1.486,1.486,0,0,1-1.049-.122.2.2,0,0,0-.253.026.149.149,0,0,1-.139.014c-.028-.013-.047-.081-.044-.124.021-.435.064-.869.071-1.3.011-.81,0-1.619,0-2.429v-.218a.333.333,0,0,0-.253-.359.12.12,0,0,1-.071-.062.083.083,0,0,1,.033-.072C205.847,124.717,206.1,124.611,206.381,124.49Zm.008,3.457h0c0,.244-.006.488,0,.732a.687.687,0,0,0,.21.491.633.633,0,0,0,.488.176.794.794,0,0,0,.622-.354,1.534,1.534,0,0,0-.161-1.908.707.707,0,0,0-1.081-.021.267.267,0,0,0-.076.17c-.01.238-.01.48-.01.715Z"
			transform="translate(-179.587 -108.127)"
			fill="#3d3d3d"
		>
		</path>
		<path
			d="M141.961,130.4l.119.02a.171.171,0,0,1,.011.05c-.038.263-.075.534-.126.8a.192.192,0,0,1-.085.131,2.678,2.678,0,0,1-2.8-.158,2.383,2.383,0,0,1,1.279-4.228,3.629,3.629,0,0,1,1.59.313.155.155,0,0,1,.076.11c.023.263.037.538.057.866-.076-.05-.155-.072-.163-.11a1.211,1.211,0,0,0-1.428-.971,1.729,1.729,0,0,0-1.606,1.6,2.436,2.436,0,0,0,.758,2.261,1.545,1.545,0,0,0,1.026.414,1.249,1.249,0,0,0,1.244-.946C141.932,130.5,141.944,130.452,141.961,130.4Z"
			transform="translate(-120.737 -110.31)"
			fill="#3d3d3d"
		>
		</path>
		<path
			d="M49.078,142.369v.158H47.76v-.146a.592.592,0,0,1,.075-.013c.317-.013.329-.025.329-.348v-1.525a.413.413,0,0,0-.264-.438c-.04-.017-.066-.072-.1-.11a.456.456,0,0,1,.106-.085c.238-.092.478-.177.739-.273v.489l.24-.179a1.467,1.467,0,0,1,.829-.318.69.69,0,0,1,.723.766c.014.544,0,1.09.006,1.634,0,.36,0,.363.345.382a.16.16,0,0,1,.066.011v.154h-1.3v-.143a.283.283,0,0,1,.047-.013c.353-.029.353-.028.353-.4v-1.431c0-.452-.293-.694-.712-.572a2.616,2.616,0,0,0-.513.243.2.2,0,0,0-.066.152V142.1c0,.216.044.263.253.263A1.057,1.057,0,0,1,49.078,142.369Z"
			transform="translate(-41.724 -121.234)"
			fill="#3d3d3d"
		>
		</path>
		<path
			d="M182.938,140.452l.892-.092c.126-.014.1.078.1.152v2.149c0,.313,0,.313.3.311h.158c-.052.068-.076.131-.11.139-.272.066-.545.12-.839.183v-.535l-.216.172a1.534,1.534,0,0,1-.765.365.685.685,0,0,1-.809-.727c-.008-.54,0-1.08,0-1.621,0-.292-.023-.321-.3-.415-.028-.009-.047-.051-.07-.079.024-.021.047-.057.072-.059.234-.017.469-.034.7-.033.03,0,.087.1.087.155.008.426,0,.852,0,1.278,0,.2,0,.406.01.607a.516.516,0,0,0,.771.492,2.684,2.684,0,0,0,.445-.284.2.2,0,0,0,.062-.143c0-.526.006-1.051,0-1.577a.272.272,0,0,0-.115-.191,2.164,2.164,0,0,0-.307-.117.559.559,0,0,1-.115-.089Z"
			transform="translate(-158.377 -121.91)"
			fill="#3d3d3d"
		>
		</path>
		<path
			d="M72.708,140.752a1.792,1.792,0,0,0,.186,1.013.85.85,0,0,0,.54.45.816.816,0,0,0,.682-.122,1.806,1.806,0,0,0,.273-.219c.07-.064.109-.055.145.037a1.554,1.554,0,0,1-.9.69,1.084,1.084,0,0,1-1.289-.723,1.9,1.9,0,0,1,.32-1.931,1.088,1.088,0,0,1,1.168-.3.969.969,0,0,1,.688.933c0,.131-.037.175-.162.173H72.708Zm.03-.2h1.083a.144.144,0,0,0,.112-.035.156.156,0,0,0,.053-.108.555.555,0,0,0-.431-.6c-.418-.07-.738.22-.818.744Z"
			transform="translate(-63.085 -121.239)"
			fill="#3d3d3d"
		>
		</path>
		<path
			d="M171.639,124.48c0,.087.014.156.014.227v4.219c0,.289.015.306.293.322.058,0,.126-.011.126.088s-.067.083-.126.083h-1.2l-.008-.158c.043,0,.072-.011.1-.012.3-.017.311-.029.311-.335v-3.643a.306.306,0,0,0-.226-.31c-.035-.011-.064-.05-.1-.076.029-.029.053-.07.087-.085C171.143,124.694,171.377,124.594,171.639,124.48Z"
			transform="translate(-149.16 -108.119)"
			fill="#3d3d3d"
		>
		</path>
		<path
			d="M111.4,140.389h-.137c-.009-.032-.02-.064-.029-.1a.623.623,0,0,0-.734-.526.415.415,0,0,0-.385.295.44.44,0,0,0,.14.476,2.288,2.288,0,0,0,.372.227c.177.1.365.168.535.276a.805.805,0,0,1,.039,1.341,1.354,1.354,0,0,1-1.437.024.165.165,0,0,1-.061-.112c-.023-.191-.04-.381-.051-.573,0-.039.034-.081.068-.158a4.264,4.264,0,0,0,.158.4.7.7,0,0,0,.738.417.425.425,0,0,0,.4-.3.467.467,0,0,0-.126-.526,2.005,2.005,0,0,0-.34-.221,5.739,5.739,0,0,1-.525-.3.8.8,0,0,1-.336-.7.791.791,0,0,1,.412-.656,1.254,1.254,0,0,1,1.208.025.116.116,0,0,1,.058.079C111.376,139.995,111.385,140.184,111.4,140.389Z"
			transform="translate(-95.791 -121.199)"
			fill="#3d3d3d"
		>
		</path>
		<path
			d="M67.13,172.952c.045-.045.071-.092.1-.092.4,0,.8,0,1.194.017a.553.553,0,0,1,.592.442.641.641,0,0,1-.4.743c-.013,0-.025.017-.059.041.329.371.435.92.928,1.149l-.024.039h-.632c-.028,0-.059-.05-.08-.084-.187-.3-.379-.6-.554-.9a.217.217,0,0,0-.129-.132.205.205,0,0,0-.18.019c0,.239,0,.478,0,.716,0,.149.038.281.227.276.04,0,.081.037.126.057l-.009.043H67.14c.039-.035.067-.083.1-.088.164-.03.217-.131.216-.3v-1.588C67.456,173.032,67.422,172.99,67.13,172.952Zm.774.543c0,.139-.006.28,0,.419,0,.039.054.106.087.108a.864.864,0,0,0,.294-.026c.307-.091.343-.394.283-.689a.481.481,0,0,0-.585-.323.167.167,0,0,0-.08.124c-.008.127,0,.258,0,.386Z"
			transform="translate(-58.645 -150.14)"
			fill="#3d3d3d"
		>
		</path>
		<path
			d="M11.221,174.393v-1.306c0-.2-.094-.271-.4-.319.064-.049.1-.1.126-.1h.811c-.046.06-.066.114-.1.131-.187.062-.244.131-.244.355v1.853a.815.815,0,0,1-.037.171.565.565,0,0,1-.172-.093q-.758-.878-1.517-1.764c-.032-.038-.058-.081-.086-.122l-.038.022c0,.049-.009.1-.009.146v1.246c0,.3.018.318.284.417a.171.171,0,0,1,.092.087H9c.062-.047.094-.092.126-.1a.25.25,0,0,0,.177-.1.27.27,0,0,0,.055-.2c.009-.549.008-1.1,0-1.651a.289.289,0,0,0-.24-.28c-.034-.011-.061-.046-.091-.07a.323.323,0,0,1,.109-.047,3.562,3.562,0,0,1,.487.008.329.329,0,0,1,.181.12c.418.488.833.979,1.249,1.469l.126.146Z"
			transform="translate(-7.862 -149.975)"
			fill="#3d3d3d"
		>
		</path>
		<path
			d="M86.22,175.023c.034-.025.067-.066.1-.072a.258.258,0,0,0,.243-.263c.011-.17.024-.34.027-.511,0-.354.009-.706,0-1.059-.009-.279-.059-.394-.369-.451.035-.02.07-.055.1-.057.174,0,.349-.009.522,0a.26.26,0,0,1,.162.085q.64.743,1.264,1.493a1.422,1.422,0,0,1,.1.151l.058-.034v-.288c0-.333,0-.665-.008-1-.009-.217-.058-.255-.262-.3a.189.189,0,0,1-.106-.068c.293-.072.594.01.9-.067l-.006.139c-.263.009-.341.087-.343.372,0,.649,0,1.3.009,1.947a.222.222,0,0,1-.008.038c-.1.059-.155-.013-.21-.076-.221-.263-.439-.519-.66-.775q-.431-.5-.867-1a.856.856,0,0,0-.083-.071.818.818,0,0,0-.024.131v1.262c0,.314.032.34.329.406a.464.464,0,0,1,.076.046.573.573,0,0,1-.15.057h-.782Z"
			transform="translate(-75.323 -149.905)"
			fill="#3d3d3d"
		>
		</path>
		<path
			d="M174.253,173.126v1.438c0,.292.027.323.295.384a.616.616,0,0,1,.063.022c-.011.029-.019.07-.028.07h-.852l-.011-.049c.029-.018.057-.049.087-.051.191-.02.253-.156.259-.323.01-.145.009-.29.01-.435v-1.091c0-.23-.057-.3-.272-.382-.033-.012-.057-.047-.085-.072l.016-.035h.65c.043,0,.088.06.126.1q.647.756,1.292,1.514c.033.038.063.08.094.12l.037-.014v-1.262c0-.233-.064-.3-.273-.351-.03-.007-.054-.043-.082-.066.029-.018.057-.051.087-.053h.688c.024,0,.049.032.073.047-.019.018-.037.045-.059.053-.219.08-.253.131-.253.373v1.84a.751.751,0,0,1-.052.188.616.616,0,0,1-.183-.1c-.523-.607-1.04-1.218-1.56-1.828A.516.516,0,0,0,174.253,173.126Z"
			transform="translate(-151.763 -149.905)"
			fill="#3d3d3d"
		>
		</path>
		<path
			d="M93.145,142.31v.164h-1.6l-.01-.162h.168c.268,0,.3-.037.3-.314v-1.6a.33.33,0,0,0-.225-.356c-.039-.016-.068-.059-.1-.091a.555.555,0,0,1,.1-.095c.173-.091.349-.177.526-.263.047-.024.1-.039.172-.07v.636l.037.016a1.089,1.089,0,0,1,.09-.131,3.889,3.889,0,0,1,.413-.421.4.4,0,0,1,.479-.025.331.331,0,0,1,.146.209.342.342,0,0,1-.042.254.268.268,0,0,1-.187.145.26.26,0,0,1-.225-.063c-.253-.222-.632.035-.674.322a1.069,1.069,0,0,0-.014.171v1.4c0,.237.035.272.253.277C92.891,142.313,93.015,142.31,93.145,142.31Z"
			transform="translate(-79.97 -121.182)"
			fill="#3d3d3d"
		>
		</path>
		<path
			d="M52.654,172.623a3.667,3.667,0,0,1-.021.561h-.078c-.008-.028-.016-.055-.021-.083a.329.329,0,0,0-.339-.318,3.08,3.08,0,0,0-.434.009.129.129,0,0,0-.088.087c-.008.263,0,.538,0,.824.157,0,.3.007.441,0a.235.235,0,0,0,.207-.2.186.186,0,0,1,.092-.095c.045.588.024.789-.067.8-.1-.343-.183-.381-.676-.31,0,.29-.01.584.009.875,0,.054.115.131.185.142a2.057,2.057,0,0,0,.463,0c.244-.022.388-.167.431-.459.039.05.082.081.077.1-.032.171-.073.34-.111.507H50.945l-.019-.042a.452.452,0,0,1,.126-.07.157.157,0,0,0,.154-.171v-1.869c0-.116-.068-.159-.169-.18a.4.4,0,0,1-.118-.075l.016-.038Z"
			transform="translate(-44.484 -149.931)"
			fill="#3d3d3d"
		>
		</path>
		<path
			d="M108.538,174.65h-.758c0-.029,0-.047.008-.049.229-.064.311-.246.379-.461.187-.6.391-1.191.586-1.786.019-.059.291-.246.331-.216a.314.314,0,0,1,.092.147c.215.632.422,1.267.642,1.9.052.147.057.352.281.367.01,0,.021.021.027.035a.5.5,0,0,1,.018.066h-.961l-.01-.029c.043-.028.085-.075.126-.08.119-.014.126-.078.094-.172-.052-.156-.095-.317-.155-.469a.175.175,0,0,0-.126-.092,5.465,5.465,0,0,0-.569,0,.158.158,0,0,0-.115.083,4.432,4.432,0,0,0-.14.44c-.032.117-.032.219.133.217.042,0,.085.038.126.059Zm.605-1.051-.284-.911h-.052l-.288.906Z"
			transform="translate(-94.158 -149.51)"
			fill="#3d3d3d"
		>
		</path>
		<path
			d="M195.14,174.678c.028-.026.057-.051.083-.078.078-.079.193-.145.228-.242.225-.637.432-1.282.645-1.923.029-.087.243-.271.321-.248a.217.217,0,0,1,.1.131c.195.564.379,1.129.578,1.693.042.122.083.243.126.364.035.1.072.192.193.21.028,0,.049.057.095.116h-.981l-.018-.043a.633.633,0,0,1,.149-.072c.1-.02.118-.08.09-.168-.052-.162-.1-.325-.164-.481a.179.179,0,0,0-.126-.093,4.509,4.509,0,0,0-.554,0,.187.187,0,0,0-.126.106c-.053.131-.082.284-.126.425s-.006.2.126.217a.168.168,0,0,1,.071.021.28.28,0,0,1,.051.062c-.019.012-.038.035-.057.035h-.683Zm1.36-1.042-.288-.911c-.032.013-.053.016-.057.026-.1.29-.192.581-.292.885Z"
			transform="translate(-170.476 -149.554)"
			fill="#3d3d3d"
		>
		</path>
		<path
			d="M36.692,139.49c.006.093.015.159.015.225v2.209c0,.339.006.346.334.359a.259.259,0,0,1,.071.008l.009.147H35.8l-.011-.158h.233a.164.164,0,0,0,.138-.05.179.179,0,0,0,.049-.144v-1.84a.364.364,0,0,0-.216-.327.518.518,0,0,1-.1-.114.648.648,0,0,1,.126-.085C36.231,139.646,36.448,139.574,36.692,139.49Z"
			transform="translate(-31.266 -121.156)"
			fill="#3d3d3d"
		>
		</path>
		<path
			d="M33.4,174.489H32.27l-.008-.042a.526.526,0,0,1,.155-.055.2.2,0,0,0,.155-.065.213.213,0,0,0,.054-.164c.008-.637,0-1.275,0-1.928-.234,0-.458-.01-.679.008-.057,0-.115.095-.159.156a.619.619,0,0,0-.058.155l-.061-.013.049-.542c.178.02.337.05.5.053.415.008.829,0,1.242,0a1.752,1.752,0,0,0,.284,0A1.408,1.408,0,0,0,34,171.96l-.063.6c-.215-.323-.215-.323-.618-.323h-.27v1.8c0,.275.025.3.273.372a.4.4,0,0,1,.092.055Z"
			transform="translate(-27.667 -149.358)"
			fill="#3d3d3d"
		>
		</path>
		<path
			d="M124.94,174.245c.042-.025.082-.07.126-.07.153,0,.234-.063.234-.23V172.02a6.6,6.6,0,0,0-.685.009c-.061,0-.111.125-.163.195a1.41,1.41,0,0,0-.076.131l-.037-.02.067-.626c.159.217.36.12.54.131.4.013.808.008,1.212,0,.173,0,.358.051.518-.121a1.871,1.871,0,0,1-.071.627h-.04c-.013-.047-.023-.095-.037-.142a.216.216,0,0,0-.216-.177h-.566v1.834c0,.237.02.263.243.331a.486.486,0,0,1,.091.051l-.009.041h-1.09Z"
			transform="translate(-108.625 -149.141)"
			fill="#3d3d3d"
		>
		</path>
		<path
			d="M216.52,174.7l-.126.557H214.61l-.01-.043a.877.877,0,0,1,.126-.049.2.2,0,0,0,.14-.08.221.221,0,0,0,.043-.161v-1.76c0-.154-.064-.233-.216-.23a.32.32,0,0,1-.091-.026v-.049a.7.7,0,0,1,.147-.033h.791a.326.326,0,0,1,.107.046c-.033.021-.066.06-.1.06-.143,0-.195.067-.193.21v1.76c0,.131.056.208.179.213a2.589,2.589,0,0,0,.478,0,.486.486,0,0,0,.379-.317.621.621,0,0,1,.095-.124Z"
			transform="translate(-187.477 -150.114)"
			fill="#3d3d3d"
		>
		</path>
		<path
			d="M144.873,175.146h-1l-.019-.032c.03-.022.061-.059.094-.063.173-.018.219-.121.216-.288v-1.7c0-.2-.033-.231-.214-.263-.035-.007-.064-.049-.1-.074l.027-.051a2.02,2.02,0,0,0,.288.035c.2,0,.4-.022.594-.028.039,0,.08.035.12.054-.033.022-.063.06-.1.066-.136.016-.167.1-.167.227v1.789a.205.205,0,0,0,.041.152.19.19,0,0,0,.134.074.429.429,0,0,1,.106.057Z"
			transform="translate(-125.669 -149.983)"
			fill="#3d3d3d"
		>
		</path>
		<path
			d="M38.99,127.854a.327.327,0,0,1-.31-.315.322.322,0,0,1,.293-.312.289.289,0,0,1,.218.083.313.313,0,0,1,.093.221A.317.317,0,0,1,38.99,127.854Z"
			transform="translate(-33.791 -110.505)"
			fill="#3d3d3d"
		>
		</path>
		<path
			d="M113.74,26.37a4.419,4.419,0,0,1,0,8.128Z"
			transform="translate(-99.364 -22.904)"
			fill="#3d3d3d"
		>
		</path>
		<path
			d="M71.191,26.41v8.131A4.354,4.354,0,0,1,68.5,30.662,4.3,4.3,0,0,1,71.191,26.41Z"
			transform="translate(-59.842 -22.939)"
			fill="#3d3d3d"
		>
		</path>
	</symbol>

	<symbol
		id="Elo"
		xmlns="http://www.w3.org/2000/svg"
		width="33.325"
		height="17.277"
		viewBox="0 0 33.325 17.277"
	>
		<path
			d="M13.372,26.551,1.114,32a7.264,7.264,0,0,1-.336-7.153,6.752,6.752,0,0,1,6.93-3.683A6.915,6.915,0,0,1,13.372,26.551ZM9.805,25.487a3.838,3.838,0,0,0-4.663-1.12,4.122,4.122,0,0,0-2.313,4.216Z"
			transform="translate(0.001 -17.939)"
			fill="#3d3d3d"
		>
		</path>
		<path
			d="M106.516,14.587l-1.076,2.687-.457-.2c-.6-.261-1.215-.508-1.812-.788a2.547,2.547,0,0,1-1.482-2.109,6.971,6.971,0,0,1-.045-.9V0h2.592V13.329a.349.349,0,0,0,.248.388C105.161,13.994,105.83,14.29,106.516,14.587Z"
			transform="translate(-87.006)"
			fill="#3d3d3d"
		>
		</path>
		<path
			d="M142.428,35.151a4.322,4.322,0,0,0,0,6.245L140.6,43.543A7.2,7.2,0,0,1,140.6,33Z"
			transform="translate(-118.386 -28.058)"
			fill="#3d3d3d"
		>
		</path>
		<path
			d="M176.5,27.315a4.2,4.2,0,0,0-1.93-2.748,3.909,3.909,0,0,0-3.254-.364l-.89-2.763c.419-.1.811-.217,1.211-.271a6.462,6.462,0,0,1,4.7,1.111,6.951,6.951,0,0,1,2.849,4.235c.048.2,0,.247-.181.283-.759.15-1.515.319-2.271.481C176.663,27.3,176.589,27.3,176.5,27.315Z"
			transform="translate(-145.886 -17.941)"
			fill="#3d3d3d"
		>
		</path>
		<path
			d="M170.49,79.659l.873-2.721a3.921,3.921,0,0,0,3.266-.362,4.212,4.212,0,0,0,1.939-2.756l2.692.572A6.719,6.719,0,0,1,170.49,79.659Z"
			transform="translate(-145.937 -62.765)"
			fill="#3d3d3d"
		>
		</path>
		<path
			d="M28.473,88.13,30.4,90.183a6.507,6.507,0,0,1-8.327.918l1.46-2.422A3.918,3.918,0,0,0,28.473,88.13Z"
			transform="translate(-18.892 -74.931)"
			fill="#3d3d3d"
		>
		</path>
	</symbol>

	<symbol
		id="AmericanExpress"
		xmlns="http://www.w3.org/2000/svg"
		width="23.174"
		height="24.041"
		viewBox="0 0 23.174 24.041"
	>
		<path
			d="M8.717,16.194c.122.167.241.324.354.484a.176.176,0,0,0,.161.085h2.093c.125,0,.128,0,.128-.137v-.6c0-.139,0-.134.129-.14.25-.01.5-.021.748-.043a1.381,1.381,0,0,0,.266-.079v.894c0,.076.022.109.1.107h1.359c.07,0,.1-.028.1-.1V16.2l.108.133c.093.119.188.237.278.36a.183.183,0,0,0,.164.081h7.2a1.9,1.9,0,0,0,1.2-.273v7.4c0,.149,0,.149-.135.149H.136C0,24.029,0,24.029,0,23.88V11.95C0,11.8,0,11.8.144,11.8H.963a.128.128,0,0,0,.144-.1c.046-.134.1-.266.152-.4a.1.1,0,0,1,.112-.082h.454a.1.1,0,0,1,.115.081c.05.137.108.272.156.409a.121.121,0,0,0,.052.079.112.112,0,0,0,.091.015.593.593,0,0,1,.067,0h8.376a.589.589,0,0,1,.067,0c.085.01.113-.028.111-.115v-.464c.144.181.268.337.39.5a.184.184,0,0,0,.164.081h2.14c.09,0,.131-.025.122-.124s0-.166,0-.263a.774.774,0,0,1,.072.045,1.559,1.559,0,0,0,.911.33c.494.01.989.01,1.483.018a.118.118,0,0,0,.129-.091c.049-.137.108-.272.155-.409a.106.106,0,0,1,.121-.084h.431a.114.114,0,0,1,.129.088c.049.14.1.281.165.416a.144.144,0,0,0,.1.075h2.14c.072,0,.095-.031.093-.1V11.15c.115.187.224.346.316.515a.239.239,0,0,0,.247.14h1.3c.1,0,.125-.033.125-.133V8.124c0-.1-.024-.125-.118-.124H20.006v.613l-.023.009-.172-.278c-.057-.093-.125-.267-.227-.327S19.335,8,19.206,8H18.135c-.144,0-.144,0-.144.149,0,.313,0,.625-.013.942l-.354-.86C17.529,8,17.529,8,17.29,8H14.86a1.762,1.762,0,0,0-1.148.382.371.371,0,0,1-.044.027V8.08c0-.061-.022-.087-.08-.081H5.4c-.1,0-.144.025-.171.122-.069.228-.144.448-.234.706l-.161-.469c-.032-.094-.066-.188-.095-.284A.092.092,0,0,0,4.639,8H2.916c-.08,0-.1.031-.1.106,0,.327,0,.655-.01.987L2.569,8.51c-.059-.14-.121-.281-.172-.424A.115.115,0,0,0,2.268,8H.957A.144.144,0,0,0,.8,8.106C.548,8.736.287,9.356.034,9.979A.074.074,0,0,1,0,10.021V.149C0,0,0,0,.144,0H22.963c.144,0,.144,0,.144.149V12.82c0,.149,0,.149-.144.149H9.284a.235.235,0,0,0-.224.115c-.1.149-.214.291-.327.448-.123-.167-.244-.324-.357-.484a.159.159,0,0,0-.144-.073H4.588c-.082,0-.111.019-.109.11v3.582c0,.087.023.116.108.115H8.211a.169.169,0,0,0,.152-.084C8.476,16.519,8.594,16.361,8.717,16.194Z"
			fill="#3d3d3d"
		>
		</path>
		<path
			d="M24.791,58.7c.024-.067.05-.134.073-.2.165-.491.33-.981.492-1.473a.121.121,0,0,1,.135-.1h.877c.08,0,.1.025.1.109v2.606c0,.079-.022.106-.1.1h-.454c-.089,0-.115-.025-.115-.118V57.67l-.029-.007c-.014.033-.03.064-.042.1-.212.618-.431,1.236-.633,1.857-.027.082-.063.118-.144.112a2.891,2.891,0,0,0-.376,0c-.08,0-.111-.028-.136-.1q-.314-.929-.634-1.855c-.013-.036-.027-.072-.042-.106h-.026V59.61c0,.094-.026.121-.115.116h-.462c-.062,0-.086-.018-.086-.085V57c0-.069.027-.085.086-.085h.926c.075,0,.09.045.109.1l.535,1.585c.01.031.023.061.034.091Z"
			transform="translate(-19.768 -48.416)"
			fill="#3d3d3d"
		>
		</path>
		<path
			d="M129.382,57.991v1.67c0,.087-.02.118-.108.115h-.482c-.063,0-.092-.015-.092-.088V57.052c0-.07.022-.094.089-.093h.7a.143.143,0,0,1,.126.087q.471.763.943,1.524c.024.04.055.079.08.118h.026V57.082c0-.087.02-.119.108-.115h.472c.063,0,.083.024.083.088V59.7c0,.06-.017.084-.077.084h-.675a.164.164,0,0,1-.108-.076c-.323-.518-.642-1.045-.962-1.558-.032-.052-.066-.1-.1-.149Z"
			transform="translate(-110.229 -48.458)"
			fill="#3d3d3d"
		>
		</path>
		<path
			d="M92.843,91.924l.875,1.024h-.794c-.032,0-.069-.043-.095-.075-.225-.275-.449-.549-.67-.827a.205.205,0,0,0-.2-.1,1.116,1.116,0,0,1-.155,0v.9c0,.082-.026.1-.1.1h-.472c-.083,0-.111-.022-.109-.112V90.215c0-.055.019-.078.073-.078.524,0,1.048-.009,1.57,0a.831.831,0,0,1,.789.746.882.882,0,0,1-.6,1ZM91.8,91.336h.778a.28.28,0,0,0,.214-.072.3.3,0,0,0,.021-.427.282.282,0,0,0-.2-.094c-.25-.012-.5,0-.751,0a.082.082,0,0,0-.059.055C91.8,90.979,91.8,91.158,91.8,91.336Z"
			transform="translate(-78.042 -76.681)"
			fill="#3d3d3d"
		>
		</path>
		<path
			d="M69.956,58.721l.877,1.027a4.834,4.834,0,0,0-.537,0,.466.466,0,0,1-.477-.227c-.181-.254-.39-.488-.587-.73a.327.327,0,0,0-.3-.052.129.129,0,0,0-.026.088v.812c0,.084-.023.11-.1.107h-.452c-.085,0-.111-.022-.111-.112v-2.6c0-.081.02-.112.1-.11h1.484a.834.834,0,0,1,.84.793.87.87,0,0,1-.6.961Zm-.6-.581H69.7a.281.281,0,0,0,.212-.082.307.307,0,0,0,0-.431.281.281,0,0,0-.209-.084h-.718c-.059,0-.077.024-.077.084v.43c0,.064.019.09.082.087C69.107,58.133,69.229,58.14,69.354,58.14Z"
			transform="translate(-58.446 -48.432)"
			fill="#3d3d3d"
		>
		</path>
		<path
			d="M50,58.356V57.063c0-.088.024-.113.109-.113H52.1c.082,0,.116.019.111.112a3.554,3.554,0,0,0,0,.391c0,.093-.029.112-.111.11h-1.31c-.095,0-.126.031-.119.125a1.748,1.748,0,0,1,0,.24c0,.085.022.116.108.115h1.273c.1,0,.128.03.122.13a3.723,3.723,0,0,0,0,.381c0,.075-.022.1-.093.1H50.794c-.1,0-.135.025-.126.128a2.223,2.223,0,0,1,0,.27c0,.078.024.1.1.1h1.32c.092,0,.125.024.119.122-.007.133,0,.267,0,.4,0,.076-.017.1-.1.1H50.1c-.072,0-.095-.024-.093-.1C50,59.232,50,58.795,50,58.356Z"
			transform="translate(-42.824 -48.45)"
			fill="#3d3d3d"
		>
		</path>
		<path
			d="M35.236,92.348h1.409c.086,0,.122.018.116.115-.009.14,0,.281,0,.421,0,.061-.013.091-.08.091H34.638c-.088,0-.079-.052-.079-.112V90.247c0-.067.023-.087.085-.087h2.034c.072,0,.086.03.085.1v.41c0,.079-.022.1-.1.1h-1.31c-.093,0-.126.028-.118.124a1.264,1.264,0,0,1,0,.24c-.01.1.024.133.122.131h1.148c.217,0,.217,0,.217.228v.261c0,.087-.023.1-.1.1H35.371c-.135,0-.135,0-.135.14Z"
			transform="translate(-29.599 -76.704)"
			fill="#3d3d3d"
		>
		</path>
		<path
			d="M110.859,92.365h1.418c.085,0,.113.024.109.113V92.9c0,.067-.017.094-.088.094h-2.034c-.063,0-.085-.021-.085-.087V90.271c0-.072.024-.091.089-.091h2.024c.075,0,.093.028.092.1v.41c0,.084-.03.1-.1.1h-1.31c-.085,0-.125.019-.116.116a1.711,1.711,0,0,1,0,.27c0,.085.027.109.1.109h1.31c.055,0,.073.024.073.078v.41c0,.081-.024.1-.1.1h-1.253c-.135,0-.135,0-.135.14C110.859,92.12,110.859,92.234,110.859,92.365Z"
			transform="translate(-94.367 -76.721)"
			fill="#3d3d3d"
		>
		</path>
		<path
			d="M3.223,59.761H2.536a.126.126,0,0,1-.086-.07c-.062-.149-.118-.288-.172-.434a.1.1,0,0,0-.108-.076H1.062a.092.092,0,0,0-.1.072c-.055.149-.109.3-.169.436-.013.031-.049.072-.075.072H.03c.063-.149.121-.3.179-.448q.468-1.133.936-2.273a.125.125,0,0,1,.135-.094h.7a.121.121,0,0,1,.129.091q.545,1.328,1.092,2.657a.616.616,0,0,1,.019.069ZM2.006,58.567l-.373-.96H1.6l-.372.961Z"
			transform="translate(-0.026 -48.445)"
			fill="#3d3d3d"
		>
		</path>
		<path
			d="M108.918,59.757H108.2c-.023,0-.055-.042-.066-.07q-.088-.21-.168-.425a.105.105,0,0,0-.112-.082h-1.1a.1.1,0,0,0-.111.084q-.077.215-.166.427c-.013.03-.05.069-.078.069h-.68c.014-.043.024-.076.037-.107q.538-1.306,1.075-2.613a.125.125,0,0,1,.135-.1h.7a.113.113,0,0,1,.125.081q.543,1.325,1.089,2.649A.253.253,0,0,1,108.918,59.757Zm-1.589-2.148H107.3l-.37.957h.775Z"
			transform="translate(-90.547 -48.443)"
			fill="#3d3d3d"
		>
		</path>
		<path
			d="M146.984,90.117c-.085.2-.158.379-.241.555a.141.141,0,0,1-.109.051h-1.069a.249.249,0,0,0-.242.353.225.225,0,0,0,.133.117.509.509,0,0,0,.151.022h.693a.737.737,0,0,1,.739.857.835.835,0,0,1-.778.833c-.086,0-.172.015-.258.016h-1.185c-.077,0-.111-.018-.106-.106v-.421c0-.081.024-.1.1-.1H146.1c.172,0,.27-.087.268-.239s-.1-.239-.273-.239h-.654a.787.787,0,0,1-.66-.307.909.909,0,0,1-.1-.837.855.855,0,0,1,.623-.541,1.335,1.335,0,0,1,.238-.021h1.329Z"
			transform="translate(-123.866 -76.661)"
			fill="#3d3d3d"
		>
		</path>
		<path
			d="M129.642,90.149c-.085.2-.161.382-.244.561-.011.024-.063.039-.1.039h-1.079a.226.226,0,0,0-.2.073.247.247,0,0,0-.059.21c.014.127.116.206.276.207h.718a.745.745,0,0,1,.733.951.78.78,0,0,1-.774.736c-.344.027-.692.015-1.039.019h-.415c-.055,0-.085-.013-.083-.078V92.4c0-.084.049-.078.1-.078h1.31a.222.222,0,0,0,.2-.093.242.242,0,0,0,.031-.223.233.233,0,0,0-.231-.161h-.685a.849.849,0,0,1-.574-.21.892.892,0,0,1,.3-1.43,1.109,1.109,0,0,1,.347-.063h1.368Z"
			transform="translate(-109.025 -76.687)"
			fill="#3d3d3d"
		>
		</path>
		<path
			d="M72.43,92.041v.8c0,.091-.02.124-.112.119-.161-.007-.321,0-.481,0-.069,0-.088-.025-.088-.094V90.247c0-.076.023-.1.095-.1h1.521a.865.865,0,0,1,.842.873.9.9,0,0,1-.718,1,1.456,1.456,0,0,1-.267.028C72.964,92.044,72.706,92.041,72.43,92.041Zm0-.624h.791a.292.292,0,0,0,.226-.082.316.316,0,0,0,.1-.228.328.328,0,0,0-.077-.237.3.3,0,0,0-.217-.107c-.25-.01-.5,0-.752,0-.022,0-.06.034-.06.054-.007.194,0,.391,0,.6Z"
			transform="translate(-61.453 -76.695)"
			fill="#3d3d3d"
		>
		</path>
		<path
			d="M51.967,92.11l-.287.391c-.1.149-.208.288-.316.43-.02.027-.053.06-.08.061H50.5l.26-.342c.253-.328.5-.658.761-.984a.11.11,0,0,0,0-.161q-.484-.622-.963-1.251l-.046-.067h.738a.167.167,0,0,1,.154.079c.169.234.343.467.515.7l.069.088c.034-.043.063-.078.089-.113.171-.23.339-.461.511-.69a.143.143,0,0,1,.09-.06h.758a.82.82,0,0,1-.043.073c-.316.409-.63.818-.949,1.224a.124.124,0,0,0,0,.185c.32.41.634.824.95,1.236l.066.093h-.805c-.029,0-.063-.042-.085-.072-.175-.234-.347-.472-.521-.707Z"
			transform="translate(-43.252 -76.727)"
			fill="#3d3d3d"
		>
		</path>
		<path
			d="M95.974,59.132c-.093.209-.174.394-.26.576a.1.1,0,0,1-.082.046,1.169,1.169,0,0,1-1.216-1.112,1.681,1.681,0,0,1,.212-1.181,1.122,1.122,0,0,1,.9-.513c.287-.019.564,0,.847-.009.066,0,.092.022.09.093v.448c0,.073-.02.1-.093.1h-.6a.667.667,0,0,0-.718.707,1.37,1.37,0,0,0,.053.412.593.593,0,0,0,.574.44C95.774,59.134,95.863,59.132,95.974,59.132Z"
			transform="translate(-80.841 -48.441)"
			fill="#3d3d3d"
		>
		</path>
		<path
			d="M87.32,58.36V57.069c0-.09.023-.125.113-.121H87.9c.065,0,.092.018.09.091v2.633c0,.069-.019.1-.088.094h-.481c-.08,0-.1-.03-.1-.1C87.321,59.227,87.32,58.793,87.32,58.36Z"
			transform="translate(-74.788 -48.448)"
			fill="#3d3d3d"
		>
		</path>
	</symbol>

	<symbol id="TruckPDP" xmlns="http://www.w3.org/2000/svg" width="20" height="20"
		viewBox="0 0 512 512">
		<path
			d="M119.467 337.067c-28.237 0-51.2 22.963-51.2 51.2 0 28.237 22.963 51.2 51.2 51.2s51.2-22.963 51.2-51.2c0-28.237-22.964-51.2-51.2-51.2zm0 85.333c-18.825 0-34.133-15.309-34.133-34.133 0-18.825 15.309-34.133 34.133-34.133s34.133 15.309 34.133 34.133c0 18.824-15.309 34.133-34.133 34.133zM409.6 337.067c-28.237 0-51.2 22.963-51.2 51.2 0 28.237 22.963 51.2 51.2 51.2 28.237 0 51.2-22.963 51.2-51.2 0-28.237-22.963-51.2-51.2-51.2zm0 85.333c-18.825 0-34.133-15.309-34.133-34.133 0-18.825 15.309-34.133 34.133-34.133 18.825 0 34.133 15.309 34.133 34.133 0 18.824-15.308 34.133-34.133 34.133z" />
		<path
			d="M510.643 289.784l-76.8-119.467a8.535 8.535 0 0 0-7.177-3.917H332.8a8.53 8.53 0 0 0-8.533 8.533v213.333a8.525 8.525 0 0 0 8.533 8.533h34.133v-17.067h-25.6V183.467h80.674l72.926 113.442v82.825h-42.667V396.8h51.2a8.525 8.525 0 0 0 8.533-8.533V294.4a8.51 8.51 0 0 0-1.356-4.616z" />
		<path
			d="M375.467 277.333V217.6h68.267v-17.067h-76.8a8.53 8.53 0 0 0-8.533 8.533v76.8a8.525 8.525 0 0 0 8.533 8.533h128v-17.067H375.467zM332.8 106.667H8.533A8.536 8.536 0 0 0 0 115.2v273.067a8.53 8.53 0 0 0 8.533 8.533H76.8v-17.067H17.067v-256h307.2v256H162.133V396.8H332.8a8.525 8.525 0 0 0 8.533-8.533V115.2a8.53 8.53 0 0 0-8.533-8.533z" />
		<path
			d="M8.533 345.6h51.2v17.067h-51.2zm170.667 0h145.067v17.067H179.2zm290.133 0h34.133v17.067h-34.133zm-435.2-204.8H332.8v17.067H34.133zm76.8 238.933H128V396.8h-17.067zm290.134 0h17.067V396.8h-17.067zM34.133 72.533H153.6V89.6H34.133zM0 72.533h17.067V89.6H0z" />
	</symbol>


</svg>