<svg style="display:none">
	<symbol id="Logo" viewBox="0 0 373.251 22.86" fill="none" xmlns="http://www.w3.org/2000/svg">
		<path
			d="M0,22.846V0H4.388V18.761h17.7v4.085ZM25.569,0h4.388V22.846H25.569ZM50.685,22.846H45.541L32.832,0h4.993L48.113,18.912,58.25,0h4.993ZM87.9,7.262c0-2.269-1.362-3.329-4.236-3.329H70.656v6.354H83.97c2.572.151,3.934-.908,3.934-3.026m-.151,15.584-5.9-8.321H70.5v8.321H66.117V0H84.575c4.842,0,8.019,2.875,8.019,7.262a6.633,6.633,0,0,1-5.749,6.96l6.2,8.624ZM109.237,3.782,103.79,13.919h10.893Zm10.288,19.063L116.953,18H101.672L99.1,22.846H94.107L106.513,0h5.447l12.406,22.846ZM149.331,7.262c0-2.269-1.362-3.329-4.236-3.329H132.083v6.354H145.4c2.572.151,3.934-.908,3.934-3.026m0,15.584-5.9-8.321H132.083v8.321H127.7V0h18.458c4.842,0,8.019,2.875,8.019,7.262a6.633,6.633,0,0,1-5.749,6.96l6.2,8.624h-5.3ZM159.77,0h4.388V22.846H159.77Zm22.846,3.782-5.447,10.137h10.893ZM192.9,22.846,190.332,18H175.051l-2.572,4.842h-4.842L179.893,0h5.447l12.406,22.846ZM234.814,11.5c0-4.539-3.177-7.414-8.17-7.414H216.053V18.761h11.2a7.1,7.1,0,0,0,7.565-6.506V11.5m4.69-.3a11.683,11.683,0,0,1-3.782,8.624,12.455,12.455,0,0,1-8.775,3.026H211.363V0H226.19C234.36,0,239.5,4.69,239.5,11.2m15.13-7.414-5.447,10.137H260.08L254.634,3.782Zm10.288,19.063L262.2,18H246.918l-2.572,4.842H239.5L251.91,0h5.6l12.406,22.846Zm28.293,0h-4.993L275.513,0h4.993l10.288,18.912L300.931,0h4.993ZM308.8,0h4.388V22.846H308.8Zm11.347,22.846V0h4.388V18.761h17.551v4.085ZM358.272,3.782l-5.447,10.137h10.893Zm10.288,19.063L365.989,18H350.708l-2.572,4.842h-4.842L355.4,0h5.447l12.406,22.846Z"
			fill="#a61e07" />
	</symbol>

	<symbol id="ChevronLeft" xmlns="http://www.w3.org/2000/svg" fill="none" viewBox="0 0 24 24"
		stroke="currentColor">
		<path stroke-linecap="round" stroke-linejoin="round" d="M15.75 19.5L8.25 12l7.5-7.5" />
	</symbol>

	<symbol id="ChevronRight" xmlns="http://www.w3.org/2000/svg" fill="none" viewBox="0 0 24 24"
		stroke="currentColor">
		<path stroke-linecap="round" stroke-linejoin="round" d="M8.25 4.5l7.5 7.5-7.5 7.5" />
	</symbol>

	<symbol id="ChevronUp" xmlns="http://www.w3.org/2000/svg" fill="none" viewBox="0 0 24 24"
		stroke="currentColor">
		<path stroke-linecap="round" stroke-linejoin="round" d="M4.5 15.75l7.5-7.5 7.5 7.5" />
	</symbol>

	<symbol id="ChevronDown" xmlns="http://www.w3.org/2000/svg" fill="none" viewBox="0 0 24 24"
		stroke="currentColor">
		<path stroke-linecap="round" stroke-linejoin="round" d="M19.5 8.25l-7.5 7.5-7.5-7.5" />
	</symbol>

	<symbol id="QuestionMarkCircle" xmlns="http://www.w3.org/2000/svg" fill="none" viewBox="0 0 24 24"
		stroke="currentColor">
		<path stroke-linecap="round" stroke-linejoin="round"
			d="M9.879 7.519c1.171-1.025 3.071-1.025 4.242 0 1.172 1.025 1.172 2.687 0 3.712-.203.179-.43.326-.67.442-.745.361-1.45.999-1.45 1.827v.75M21 12a9 9 0 11-18 0 9 9 0 0118 0zm-9 5.25h.008v.008H12v-.008z" />
	</symbol>

	<symbol id="User" width="21.194" height="19" viewBox="0 0 21.194 19"
		xmlns="http://www.w3.org/2000/svg">
		<path
			d="M28.7,30.9H7.5l.156-.59C8.75,26.179,8.9,26,15,22.524c-1.468-1.772-1.678-3.306-1.542-5.555.152-2.518,1.8-5.068,4.642-5.068s4.49,2.55,4.642,5.068a7.02,7.02,0,0,1-1.554,5.558l.117.069c5.8,3.4,6.149,3.608,7.236,7.715Zm-19.973-.94h18.75c-.86-3.159-1.258-3.393-6.646-6.555l-1.11-.652.4-.428c1.6-1.737,1.822-3.094,1.688-5.3-.125-2.08-1.438-4.185-3.7-4.185s-3.578,2.1-3.7,4.184c-.134,2.215.083,3.574,1.682,5.3l.4.434-.514.293C9.93,26.495,9.605,26.679,8.723,29.961Z"
			transform="translate(-7.501 -11.901)" fill="#5d5d5d"></path>
	</symbol>

	<symbol id="ShoppingCart" width="22.764" height="31.361" viewBox="0 0 22.764 31.361"
		xmlns="http://www.w3.org/2000/svg">
		<g transform="translate(-4.934 6)">
			<path
				d="M90.223,10.082l-3.587,0V5.1a5.1,5.1,0,0,0-10.2,0V10.08H72.892a.558.558,0,0,0-.53.474c-.019.185-2.159,20.034-2.183,20.279a.556.556,0,0,0,.56.528H92.385a.559.559,0,0,0,.558-.559c-.023-.214-2.161-20.064-2.183-20.264A.554.554,0,0,0,90.223,10.082ZM77.551,5.1a3.984,3.984,0,0,1,7.968,0V10.08H77.551ZM71.364,30.243l.042-.387c.308-2.882,1.171-10.884,1.8-16.712l.21-1.947h3.02v2.167a.558.558,0,0,0,1.116,0V11.2h7.968v2.167a.558.558,0,0,0,1.117,0V11.2h3.072L91.76,30.243h-20.4Z"
				transform="translate(-65.245 -6)" fill="#5c5c5c"></path>
		</g>
		<path d="M-10418.36-35.082l1.435,2.711-4.143,6.964h7.581l1.542,2.578h-10.155l-1.731-2.859Z"
			transform="translate(10431.642 51.119)" fill="#862a13"></path>
		<path d="M-10475.689-.637l5.916,9.544h2.509l5.745-9.544h-3.117l-3.951,6.391-4.052-6.391Z"
			transform="translate(10479.201 19.423)" fill="#c52d16"></path>
	</symbol>

	<symbol id="Bars3" xmlns="http://www.w3.org/2000/svg" viewBox="0 0 20 20" stroke="currentColor"
		fill="none">
		<path fill-rule="evenodd" clip-rule="evenodd"
			d="M2.5 5.00033C2.5 4.54009 2.8731 4.16699 3.33333 4.16699H16.6667C17.1269 4.16699 17.5 4.54009 17.5 5.00033C17.5 5.46056 17.1269 5.83366 16.6667 5.83366H3.33333C2.8731 5.83366 2.5 5.46056 2.5 5.00033ZM2.5 10.0003C2.5 9.54009 2.8731 9.16699 3.33333 9.16699H16.6667C17.1269 9.16699 17.5 9.54009 17.5 10.0003C17.5 10.4606 17.1269 10.8337 16.6667 10.8337H3.33333C2.8731 10.8337 2.5 10.4606 2.5 10.0003ZM2.5 15.0003C2.5 14.5401 2.8731 14.167 3.33333 14.167H16.6667C17.1269 14.167 17.5 14.5401 17.5 15.0003C17.5 15.4606 17.1269 15.8337 16.6667 15.8337H3.33333C2.8731 15.8337 2.5 15.4606 2.5 15.0003Z"
			fill="currentColor" />
	</symbol>

	<symbol id="Heart" xmlns="http://www.w3.org/2000/svg" fill="none" viewBox="0 0 24 24"
		stroke="currentColor">
		<path stroke-linecap="round" stroke-linejoin="round"
			d="M21 8.25c0-2.485-2.099-4.5-4.688-4.5-1.935 0-3.597 1.126-4.312 2.733-.715-1.607-2.377-2.733-4.313-2.733C5.1 3.75 3 5.765 3 8.25c0 7.22 9 12 9 12s9-4.78 9-12z" />
	</symbol>

	<symbol id="MagnifyingGlass" width="20" height="20" viewBox="0 0 20 20" fill="none"
		xmlns="http://www.w3.org/2000/svg">
		<path fill-rule="evenodd" clip-rule="evenodd"
			d="M8.33366 3.33366C5.57223 3.33366 3.33366 5.57223 3.33366 8.33366C3.33366 11.0951 5.57223 13.3337 8.33366 13.3337C11.0951 13.3337 13.3337 11.0951 13.3337 8.33366C13.3337 5.57223 11.0951 3.33366 8.33366 3.33366ZM1.66699 8.33366C1.66699 4.65176 4.65176 1.66699 8.33366 1.66699C12.0156 1.66699 15.0003 4.65176 15.0003 8.33366C15.0003 9.87425 14.4778 11.2928 13.6002 12.4217L18.0896 16.9111C18.415 17.2365 18.415 17.7641 18.0896 18.0896C17.7641 18.415 17.2365 18.415 16.9111 18.0896L12.4217 13.6002C11.2928 14.4778 9.87425 15.0003 8.33366 15.0003C4.65176 15.0003 1.66699 12.0156 1.66699 8.33366Z"
			fill="currentColor" />
	</symbol>

	<symbol id="XMark" xmlns="http://www.w3.org/2000/svg" fill="none" viewBox="0 0 24 24"
		stroke="currentColor">
		<path stroke-linecap="round" stroke-linejoin="round" d="M6 18L18 6M6 6l12 12" />
	</symbol>

	<symbol id="Plus" xmlns="http://www.w3.org/2000/svg" fill="none" viewBox="0 0 24 24"
		stroke="currentColor">
		<path stroke-linecap="round" stroke-linejoin="round" d="M12 4.5v15m7.5-7.5h-15" />
	</symbol>

	<symbol id="Minus" xmlns="http://www.w3.org/2000/svg" fill="none" viewBox="0 0 24 24"
		stroke="currentColor">
		<path stroke-linecap="round" stroke-linejoin="round" d="M19.5 12h-15" />
	</symbol>

	<symbol id="MapPin" xmlns="http://www.w3.org/2000/svg" fill="none" viewBox="0 0 24 24"
		stroke="currentColor">
		<path stroke-linecap="round" stroke-linejoin="round" d="M15 10.5a3 3 0 11-6 0 3 3 0 016 0z" />
		<path stroke-linecap="round" stroke-linejoin="round"
			d="M19.5 10.5c0 7.142-7.5 11.25-7.5 11.25S4.5 17.642 4.5 10.5a7.5 7.5 0 1115 0z" />
	</symbol>

	<symbol id="Phone" xmlns="http://www.w3.org/2000/svg" fill="none" viewBox="0 0 24 24"
		stroke="currentColor">
		<path stroke-linecap="round" stroke-linejoin="round"
			d="M2.25 6.75c0 8.284 6.716 15 15 15h2.25a2.25 2.25 0 002.25-2.25v-1.372c0-.516-.351-.966-.852-1.091l-4.423-1.106c-.44-.11-.902.055-1.173.417l-.97 1.293c-.282.376-.769.542-1.21.38a12.035 12.035 0 01-7.143-7.143c-.162-.441.004-.928.38-1.21l1.293-.97c.363-.271.527-.734.417-1.173L6.963 3.102a1.125 1.125 0 00-1.091-.852H4.5A2.25 2.25 0 002.25 4.5v2.25z" />
	</symbol>

	<symbol id="Elo" xmlns="http://www.w3.org/2000/svg" viewBox="0 0 40 14" stroke="currentColor"
		fill="none">
		<path
			d="M6.57655 3.09309C6.98496 2.95495 7.4234 2.88288 7.87985 2.88288C9.87385 2.88288 11.5375 4.3003 11.9159 6.18018L14.7387 5.6036C14.0901 2.40841 11.2672 0 7.87985 0C7.10508 0 6.36033 0.126126 5.66364 0.36036L6.57655 3.09309Z"
			fill="currentColor" />
		<path
			d="M3.24323 12.2463L5.15314 10.0841C4.30029 9.32733 3.76576 8.22823 3.76576 6.997C3.76576 5.77178 4.30029 4.66667 5.15314 3.91592L3.24323 1.75977C1.79579 3.04505 0.882874 4.91292 0.882874 7.00301C0.882874 9.08709 1.79579 10.961 3.24323 12.2463Z"
			fill="currentColor" />
		<path
			d="M11.9159 7.82617C11.5315 9.70605 9.87387 11.1175 7.87988 11.1175C7.42342 11.1175 6.98498 11.0454 6.57057 10.9073L5.65765 13.64C6.35435 13.8742 7.1051 14.0003 7.87988 14.0003C11.2673 14.0003 14.0901 11.5979 14.7387 8.40275L11.9159 7.82617Z"
			fill="currentColor" />
		<path
			d="M24.1441 9.75962C23.6757 10.2161 23.045 10.4924 22.3484 10.4803C21.8679 10.4743 21.4234 10.3302 21.0511 10.0899L20.1141 11.5794C20.7568 11.9818 21.5075 12.2221 22.3243 12.2341C23.5075 12.2521 24.5886 11.7836 25.3754 11.0209L24.1441 9.75962ZM22.4505 3.68755C20.0961 3.65151 18.1502 5.5374 18.1141 7.89175C18.1021 8.77463 18.3544 9.60346 18.8048 10.2881L26.5405 6.97884C26.1081 5.12298 24.4505 3.72358 22.4505 3.68755ZM19.8859 8.22809C19.8739 8.13199 19.8679 8.02989 19.8679 7.92779C19.8919 6.5404 21.033 5.42929 22.4204 5.45331C23.1772 5.46532 23.8499 5.80767 24.3003 6.34821L19.8859 8.22809ZM28.973 1.76562V10.0119L30.4024 10.6065L29.7237 12.2341L28.3063 11.6455C27.988 11.5074 27.7718 11.2972 27.6096 11.0569C27.4535 10.8167 27.3333 10.4803 27.3333 10.0359V1.76562H28.973Z"
			fill="currentColor" />
		<path
			d="M34.1321 5.57925C34.3844 5.49516 34.6487 5.45312 34.9309 5.45312C36.1502 5.45312 37.1592 6.31798 37.3934 7.46513L39.1171 7.11078C38.7207 5.15882 36.997 3.69336 34.9309 3.69336C34.4565 3.69336 34 3.77144 33.5796 3.90958L34.1321 5.57925ZM32.0961 11.1588L33.2613 9.84351C32.7387 9.38105 32.4144 8.70837 32.4144 7.95762C32.4144 7.20687 32.7448 6.5342 33.2613 6.07774L32.0961 4.76243C31.2132 5.54321 30.6547 6.69036 30.6547 7.96363C30.6547 9.2369 31.2132 10.378 32.0961 11.1588ZM37.3934 8.46813C37.1592 9.61528 36.1442 10.4801 34.9309 10.4801C34.6547 10.4801 34.3844 10.4321 34.1321 10.348L33.5736 12.0177C34 12.1618 34.4565 12.2399 34.9309 12.2399C36.997 12.2399 38.7207 10.7744 39.1171 8.82249L37.3934 8.46813Z"
			fill="currentColor" />
	</symbol>

	<symbol id="Mastercard" xmlns="http://www.w3.org/2000/svg" viewBox="0 0 26 20" fill="none"
		stroke="currentColor">
		<g clip-path="url(#clip0_81_156)">
			<path
				d="M4.77191 19.9552V18.6263C4.77191 18.1167 4.46174 17.7846 3.95265 17.7846C3.68527 17.7846 3.39918 17.8734 3.19971 18.159C3.04463 17.9151 2.82538 17.7846 2.49116 17.7846C2.36689 17.7793 2.24323 17.8048 2.13124 17.8589C2.01926 17.913 1.92244 17.9941 1.84944 18.0948V17.8274H1.42859V19.9536H1.84944V18.737C1.84944 18.3627 2.07083 18.1836 2.381 18.1836C2.69116 18.1836 2.86816 18.383 2.86816 18.737V19.9552H3.28902V18.737C3.28902 18.3627 3.51041 18.1836 3.82057 18.1836C4.13073 18.1836 4.30773 18.383 4.30773 18.737V19.9552H4.77191ZM11.6821 17.8509H10.9067V17.2092H10.4869V17.8509H10.0441V18.2253H10.4869V19.2242C10.4869 19.7114 10.6639 19.9996 11.1954 19.9996C11.3968 19.9954 11.5941 19.9422 11.7703 19.8445L11.6371 19.4702C11.5177 19.5449 11.3791 19.5833 11.2382 19.5809C11.0168 19.5809 10.9061 19.4477 10.9061 19.2263V18.2082H11.6815V17.8536L11.6821 17.8509ZM15.6243 17.7846C15.5097 17.7821 15.3964 17.8093 15.2954 17.8637C15.1945 17.918 15.1093 17.9977 15.0484 18.0948V17.8274H14.6275V19.9536H15.0484V18.7595C15.0484 18.405 15.2254 18.1836 15.5136 18.1836C15.6109 18.1875 15.7074 18.2024 15.8013 18.2279L15.9345 17.829C15.8329 17.8034 15.729 17.7885 15.6243 17.7846ZM9.66656 18.006C9.44517 17.8509 9.13501 17.7846 8.80292 17.7846C8.27137 17.7846 7.93928 18.0285 7.93928 18.4493C7.93928 18.8039 8.18314 19.0028 8.64784 19.0697L8.86923 19.0916C9.11308 19.136 9.26816 19.2247 9.26816 19.3354C9.26816 19.4905 9.09116 19.6028 8.75854 19.6028C8.50456 19.608 8.2558 19.5303 8.04998 19.3814L7.82859 19.7135C8.13875 19.9349 8.51522 19.9809 8.73768 19.9809C9.358 19.9809 9.69009 19.6932 9.69009 19.2943C9.69009 18.9199 9.42271 18.7408 8.95907 18.6739L8.73768 18.652C8.53822 18.6301 8.36335 18.5632 8.36335 18.4306C8.36335 18.2755 8.54036 18.1632 8.78421 18.1632C9.05159 18.1632 9.31576 18.2739 9.44891 18.3402L9.66656 18.006ZM16.0896 18.8921C16.0896 19.5338 16.5104 19.9996 17.197 19.9996C17.5072 19.9996 17.7286 19.9333 17.95 19.7558L17.7286 19.4237C17.5718 19.5506 17.3768 19.6209 17.1751 19.6231C16.8008 19.6231 16.5104 19.3354 16.5104 18.9146C16.5104 18.4937 16.797 18.2082 17.1751 18.2082C17.3768 18.2104 17.5718 18.2807 17.7286 18.4076L17.95 18.0755C17.7286 17.8985 17.5072 17.8317 17.197 17.8317C16.5323 17.7873 16.0896 18.2525 16.0896 18.8948V18.8921ZM13.1216 17.7846C12.5013 17.7846 12.0805 18.2274 12.0805 18.8921C12.0805 19.5568 12.5232 19.9996 13.1655 19.9996C13.4779 20.0062 13.7831 19.9046 14.0291 19.7119L13.8077 19.4017C13.6298 19.5396 13.4125 19.6172 13.1874 19.6231C12.8997 19.6231 12.5896 19.4461 12.5457 19.0697H14.1184V18.8927C14.1184 18.2279 13.7195 17.7852 13.1216 17.7852V17.7846ZM13.0997 18.1836C13.4099 18.1836 13.6313 18.383 13.6532 18.7151H12.5019C12.5682 18.405 12.7692 18.1836 13.0997 18.1836ZM7.36335 18.8921V17.829H6.94249V18.0964C6.78741 17.8969 6.56816 17.7862 6.25586 17.7862C5.658 17.7862 5.21469 18.2515 5.21469 18.8937C5.21469 19.536 5.65747 20.0012 6.25586 20.0012C6.56602 20.0012 6.78741 19.8905 6.94249 19.691V19.9584H7.36335V18.8921ZM5.658 18.8921C5.658 18.4932 5.90185 18.1836 6.32271 18.1836C6.72164 18.1836 6.96442 18.4937 6.96442 18.8921C6.96442 19.313 6.69704 19.6007 6.32271 19.6007C5.90185 19.6226 5.658 19.2905 5.658 18.8921ZM22.0259 17.7846C21.9113 17.7821 21.798 17.8093 21.697 17.8637C21.5961 17.918 21.5109 17.9977 21.45 18.0948V17.8274H21.0291V19.9536H21.4495V18.7595C21.4495 18.405 21.6265 18.1836 21.9147 18.1836C22.012 18.1875 22.1085 18.2024 22.2024 18.2279L22.3355 17.829C22.234 17.8034 22.13 17.7885 22.0254 17.7846H22.0259ZM20.3869 18.8921V17.829H19.966V18.0964C19.8109 17.8969 19.5917 17.7862 19.2794 17.7862C18.6815 17.7862 18.2382 18.2515 18.2382 18.8937C18.2382 19.536 18.681 20.0012 19.2794 20.0012C19.5896 20.0012 19.8109 19.8905 19.966 19.691V19.9584H20.3869V18.8921ZM18.6815 18.8921C18.6815 18.4932 18.9254 18.1836 19.3462 18.1836C19.7452 18.1836 19.988 18.4937 19.988 18.8921C19.988 19.313 19.7206 19.6007 19.3462 19.6007C18.9254 19.6226 18.6815 19.2905 18.6815 18.8921ZM24.6618 18.8921V16.9873H24.2409V18.0948C24.0858 17.8953 23.8666 17.7846 23.5543 17.7846C22.9564 17.7846 22.5131 18.2499 22.5131 18.8921C22.5131 19.5344 22.9559 19.9996 23.5543 19.9996C23.8644 19.9996 24.0858 19.8889 24.2409 19.6894V19.9568H24.6618V18.8921ZM22.9564 18.8921C22.9564 18.4932 23.2003 18.1836 23.6211 18.1836C24.02 18.1836 24.2628 18.4937 24.2628 18.8921C24.2628 19.313 23.9954 19.6007 23.6211 19.6007C23.1997 19.6231 22.9559 19.291 22.9559 18.8921H22.9564Z"
				fill="currentColor" />
			<path
				d="M9.95478 7.97327C9.95505 6.76731 10.2281 5.57704 10.7536 4.49159C11.279 3.40613 12.0433 2.45361 12.989 1.70535C11.8128 0.780601 10.4002 0.205442 8.9126 0.045623C7.42499 -0.114196 5.92242 0.147775 4.57667 0.801588C3.23091 1.4554 2.09627 2.47468 1.30244 3.74289C0.508619 5.01111 0.0876465 6.47709 0.0876465 7.97327C0.0876465 9.46944 0.508619 10.9354 1.30244 12.2036C2.09627 13.4719 3.23091 14.4911 4.57667 15.1449C5.92242 15.7988 7.42499 16.0607 8.9126 15.9009C10.4002 15.7411 11.8128 15.1659 12.989 14.2412C12.0433 13.4929 11.279 12.5404 10.7536 11.4549C10.2281 10.3695 9.95505 9.17922 9.95478 7.97327Z"
				fill="currentColor" />
			<path
				d="M25.9019 7.97297C25.9029 9.46805 25.4832 10.9333 24.6907 12.201C23.8982 13.4688 22.7648 14.4879 21.4203 15.1418C20.0758 15.7957 18.5744 16.0579 17.0879 15.8986C15.6013 15.7393 14.1896 15.1648 13.0142 14.2409C13.9601 13.4928 14.7245 12.5403 15.25 11.4548C15.7755 10.3693 16.0485 9.17898 16.0485 7.97297C16.0485 6.76696 15.7755 5.5766 15.25 4.4911C14.7245 3.4056 13.9601 2.45312 13.0142 1.70506C14.1896 0.781104 15.6013 0.20662 17.0879 0.0473072C18.5744 -0.112005 20.0758 0.150287 21.4203 0.804186C22.7648 1.45808 23.8982 2.47719 24.6907 3.74493C25.4832 5.01268 25.9029 6.47789 25.9019 7.97297Z"
				fill="currentColor" fill-opacity="0.4" />
			<path fill-rule="evenodd" clip-rule="evenodd"
				d="M13.0141 1.70508H12.989C12.0432 2.45333 11.279 3.40585 10.7536 4.49131C10.2281 5.57677 9.95504 6.76704 9.95477 7.97299C9.95504 9.17894 10.2281 10.3692 10.7536 11.4547C11.279 12.5401 12.0433 13.4926 12.989 14.2409H13.0141C13.0141 14.2409 13.0141 14.2409 13.0141 14.2409C13.9601 13.4928 14.7245 12.5404 15.25 11.4549C15.7755 10.3694 16.0484 9.17899 16.0484 7.97299C16.0484 6.76698 15.7755 5.57661 15.25 4.49111C14.7245 3.40561 13.9601 2.45314 13.0141 1.70508Z"
				fill="currentColor" fill-opacity="0.6" />
		</g>
		<defs>
			<clipPath id="clip0_81_156">
				<rect width="25.8027" height="20" fill="white" transform="translate(0.0986328)" />
			</clipPath>
		</defs>
	</symbol>

	<symbol id="Visa" xmlns="http://www.w3.org/2000/svg" viewBox="0 0 40 12" fill="none"
		stroke="currentColor">
		<path d="M14.2514 11.8628L16.2325 0.237305H19.4012L17.4187 11.8628H14.2514Z" fill="currentColor" />
		<path
			d="M28.8667 0.488266C28.2389 0.252744 27.2552 0 26.0267 0C22.8956 0 20.6902 1.57674 20.6714 3.83653C20.6537 5.50698 22.2459 6.43886 23.4479 6.99494C24.6813 7.56486 25.0959 7.92824 25.09 8.437C25.0821 9.21631 24.105 9.57221 23.1942 9.57221C21.926 9.57221 21.2522 9.39601 20.2115 8.96208L19.8031 8.77728L19.3585 11.3797C20.0986 11.7043 21.4671 11.9854 22.8882 12C26.2191 12 28.3815 10.4413 28.4061 8.02807C28.4179 6.70556 27.5737 5.69921 25.7455 4.86948C24.638 4.33169 23.9597 3.97282 23.9669 3.42826C23.9669 2.94504 24.541 2.42833 25.7816 2.42833C26.8177 2.41223 27.5684 2.6382 28.1533 2.87372L28.4372 3.00787L28.8667 0.488266Z"
			fill="currentColor" />
		<path
			d="M37.0208 0.237305H34.5723C33.8138 0.237305 33.2461 0.444322 32.913 1.20137L28.2071 11.8552H31.5345C31.5345 11.8552 32.0785 10.4228 32.2015 10.1082C32.5651 10.1082 35.7976 10.1132 36.2597 10.1132C36.3545 10.5202 36.6452 11.8552 36.6452 11.8552H39.5855L37.0208 0.237305ZM33.136 7.74409C33.3981 7.07428 34.3985 4.49428 34.3985 4.49428C34.3798 4.52522 34.6587 3.82121 34.8186 3.38473L35.0328 4.38703C35.0328 4.38703 35.6395 7.16205 35.7663 7.74391H33.136V7.74409Z"
			fill="currentColor" />
		<path
			d="M0.45503 0.237305L0.414551 0.479138C1.66716 0.782359 2.78593 1.22123 3.76542 1.76717L6.57706 11.8441L9.92966 11.8404L14.9183 0.237305H11.5615L8.45929 8.16502L8.12885 6.55384C8.11337 6.50406 8.09654 6.4542 8.07932 6.40422L7.00087 1.21879C6.80912 0.482646 6.25282 0.262959 5.56461 0.237305H0.45503Z"
			fill="currentColor" />
	</symbol>

	<symbol id="Pix" viewBox="0 0 512 512" xmlns="http://www.w3.org/2000/svg" fill="none"
		stroke="currentColor">
		<defs />
		<g fill="currentColor" fill-rule="evenodd">
			<path
				d="M393.072 391.897c-20.082 0-38.969-7.81-53.176-22.02l-77.069-77.067c-5.375-5.375-14.773-5.395-20.17 0l-76.784 76.786c-14.209 14.207-33.095 22.019-53.179 22.019h-9.247l97.521 97.52c30.375 30.375 79.614 30.375 109.988 0l97.239-97.238h-15.123zm-105.049 74.327c-8.55 8.53-19.93 13.25-32.05 13.25h-.02c-12.12 0-23.522-4.721-32.05-13.25l-56.855-56.855c7.875-4.613 15.165-10.248 21.758-16.84l63.948-63.948 64.23 64.23c7.637 7.66 16.188 14.013 25.478 18.952l-54.439 54.46zM310.958 22.78c-30.374-30.374-79.613-30.374-109.988 0l-97.52 97.52h9.247c20.082 0 38.97 7.834 53.178 22.02l76.784 76.785c5.57 5.592 14.622 5.57 20.17 0l77.069-77.068c14.207-14.187 33.094-22.02 53.176-22.02h15.123l-97.239-97.237zm6.028 96.346l-64.23 64.23-63.97-63.97c-6.593-6.592-13.86-12.206-21.736-16.818l56.853-56.877c17.69-17.645 46.476-17.668 64.121 0l54.44 54.461c-9.292 4.961-17.842 11.315-25.479 18.974h.001z" />
			<path
				d="M489.149 200.97l-58.379-58.377h-37.706c-13.838 0-27.394 5.635-37.185 15.426l-77.068 77.069c-7.202 7.18-16.623 10.77-26.067 10.77-9.443 0-18.885-3.59-26.066-10.77l-76.785-76.785c-9.792-9.814-23.346-15.427-37.207-15.427h-31.81L22.78 200.97c-30.374 30.375-30.374 79.614 0 109.988l58.095 58.074 31.81.021c13.86 0 27.416-5.635 37.208-15.426l76.784-76.764c13.925-13.947 38.208-13.924 52.133-.02l77.068 77.066c9.791 9.792 23.346 15.405 37.185 15.405h37.706l58.379-58.356c30.374-30.374 30.374-79.613 0-109.988zm-362.19 129.724c-3.763 3.786-8.942 5.917-14.273 5.917H94.302l-48.59-48.564c-17.689-17.69-17.689-46.476 0-64.143L94.3 175.296h18.385c5.331 0 10.51 2.154 14.295 5.918l74.74 74.74-74.761 74.74zm339.257-42.647l-48.848 48.87h-24.305c-5.309 0-10.508-2.155-14.251-5.92l-75.023-75.043 75.023-75.023c3.743-3.764 8.942-5.918 14.252-5.918h24.304l48.847 48.891c8.573 8.551 13.273 19.93 13.273 32.05 0 12.141-4.7 23.52-13.273 32.093z" />
		</g>
	</symbol>

	<symbol id="Facebook" xmlns="http://www.w3.org/2000/svg" width="17.412" height="18.107"
		viewBox="0 0 17.412 18.107">
		<path
			d="M16.451,0H.961A.981.981,0,0,0,0,1V17.108a.981.981,0,0,0,.961,1H9.3V11.1H7.031V8.363H9.3V6.347c0-2.338,1.373-3.612,3.379-3.612a18.105,18.105,0,0,1,2.027.107V5.287H13.315c-1.091,0-1.3.539-1.3,1.33V8.362h2.6l-.34,2.733H12.014v7.013H16.45a.982.982,0,0,0,.962-1V1a.981.981,0,0,0-.962-1Z"
			transform="translate(0 -0.001)" fill="#5d5d5d"></path>
	</symbol>

	<symbol id="Instagram" xmlns="http://www.w3.org/2000/svg" width="17.412" height="18.107"
		viewBox="0 0 17.412 18.107">
		<path
			d="M12.225,0H5.187A5.3,5.3,0,0,0,0,5.394v7.319a5.3,5.3,0,0,0,5.187,5.394h7.038a5.3,5.3,0,0,0,5.187-5.394V5.394A5.3,5.3,0,0,0,12.225,0Zm3.436,12.713a3.506,3.506,0,0,1-3.436,3.573H5.187a3.506,3.506,0,0,1-3.436-3.573V5.394A3.506,3.506,0,0,1,5.187,1.822h7.038a3.506,3.506,0,0,1,3.436,3.573Z"
			transform="translate(0 0)" fill="#5d5d5d"></path>
		<path
			d="M137.5,133a4.687,4.687,0,1,0,4.5,4.683A4.6,4.6,0,0,0,137.5,133Zm0,7.545a2.864,2.864,0,1,1,2.752-2.862A2.808,2.808,0,0,1,137.5,140.545Z"
			transform="translate(-128.797 -128.63)" fill="#5d5d5d"></path>
		<ellipse cx="1.079" cy="1.122" rx="1.079" ry="1.122" transform="translate(12.139 3.283)"
			fill="#5d5d5d"></ellipse>
	</symbol>

	<symbol id="Tiktok" xmlns="http://www.w3.org/2000/svg" viewBox="0 0 24 24" stroke="currentColor"
		fill="none" stroke-linecap="round" stroke-linejoin="round">
		<path stroke="none" d="M0 0h24v24H0z" fill="none" />
		<path d="M9 12a4 4 0 1 0 4 4v-12a5 5 0 0 0 5 5" />
	</symbol>

	<symbol id="Truck" xmlns="http://www.w3.org/2000/svg" viewBox="0 0 36 28" stroke="currentColor"
		fill="none">
		<path
			d="M14 22.333C14 24.174 12.5077 25.6663 10.6667 25.6663C8.82576 25.6663 7.33337 24.174 7.33337 22.333M14 22.333C14 20.4921 12.5077 18.9997 10.6667 18.9997C8.82576 18.9997 7.33337 20.4921 7.33337 22.333M14 22.333H24M7.33337 22.333H4.00004V15.6663M30.6667 22.333C30.6667 24.174 29.1743 25.6663 27.3334 25.6663C25.4924 25.6663 24 24.174 24 22.333M30.6667 22.333C30.6667 20.4921 29.1743 18.9997 27.3334 18.9997C25.4924 18.9997 24 20.4921 24 22.333M30.6667 22.333H34V12.333M2.33337 2.33301H20.6667V22.333M34 12.333H20.6667M34 12.333L29 3.99967H20.6667M4.00004 8.99967H10.6667"
			stroke-linecap="round" stroke-linejoin="round" />
	</symbol>

	<symbol id="Discount" xmlns="http://www.w3.org/2000/svg" viewBox="0 0 34 34" stroke="currentColor"
		fill="none">
		<path
			d="M12 21.9998L22 11.9998M13.6667 12.8332C13.6667 13.2934 13.2936 13.6665 12.8333 13.6665C12.3731 13.6665 12 13.2934 12 12.8332C12 12.3729 12.3731 11.9998 12.8333 11.9998C13.2936 11.9998 13.6667 12.3729 13.6667 12.8332ZM22 21.1665C22 21.6267 21.6269 21.9998 21.1667 21.9998C20.7064 21.9998 20.3333 21.6267 20.3333 21.1665C20.3333 20.7063 20.7064 20.3332 21.1667 20.3332C21.6269 20.3332 22 20.7063 22 21.1665ZM5.33334 8.99979C5.33334 8.02733 5.71965 7.0947 6.40728 6.40707C7.09491 5.71943 8.02755 5.33313 9.00001 5.33313H10.6667C11.6348 5.33257 12.5635 4.94913 13.25 4.26646L14.4167 3.09979C14.7574 2.75713 15.1625 2.4852 15.6087 2.29964C16.0549 2.11408 16.5334 2.01855 17.0167 2.01855C17.4999 2.01855 17.9784 2.11408 18.4246 2.29964C18.8708 2.4852 19.2759 2.75713 19.6167 3.09979L20.7833 4.26646C21.4699 4.94913 22.3985 5.33257 23.3667 5.33313H25.0333C26.0058 5.33313 26.9384 5.71943 27.6261 6.40707C28.3137 7.0947 28.7 8.02733 28.7 8.99979V10.6665C28.7006 11.6346 29.084 12.5633 29.7667 13.2498L30.9333 14.4165C31.276 14.7572 31.5479 15.1623 31.7335 15.6085C31.9191 16.0547 32.0146 16.5332 32.0146 17.0165C32.0146 17.4997 31.9191 17.9782 31.7335 18.4244C31.5479 18.8706 31.276 19.2757 30.9333 19.6165L29.7667 20.7831C29.084 21.4696 28.7006 22.3983 28.7 23.3665V25.0331C28.7 26.0056 28.3137 26.9382 27.6261 27.6259C26.9384 28.3135 26.0058 28.6998 25.0333 28.6998H23.3667C22.3985 28.7003 21.4699 29.0838 20.7833 29.7665L19.6167 30.9331C19.2759 31.2758 18.8708 31.5477 18.4246 31.7333C17.9784 31.9188 17.4999 32.0144 17.0167 32.0144C16.5334 32.0144 16.0549 31.9188 15.6087 31.7333C15.1625 31.5477 14.7574 31.2758 14.4167 30.9331L13.25 29.7665C12.5635 29.0838 11.6348 28.7003 10.6667 28.6998H9.00001C8.02755 28.6998 7.09491 28.3135 6.40728 27.6259C5.71965 26.9382 5.33334 26.0056 5.33334 25.0331V23.3665C5.33279 22.3983 4.94934 21.4696 4.26667 20.7831L3.10001 19.6165C2.75734 19.2757 2.48541 18.8706 2.29985 18.4244C2.11429 17.9782 2.01877 17.4997 2.01877 17.0165C2.01877 16.5332 2.11429 16.0547 2.29985 15.6085C2.48541 15.1623 2.75734 14.7572 3.10001 14.4165L4.26667 13.2498C4.94934 12.5633 5.33279 11.6346 5.33334 10.6665V8.99979Z"
			stroke-linecap="round" stroke-linejoin="round" />
	</symbol>

	<symbol id="Return" xmlns="http://www.w3.org/2000/svg" viewBox="0 0 34 30" stroke="currentColor"
		fill="none">
		<path
			d="M32 6.66699H2M32 6.66699L27 11.667M32 6.66699L27 1.66699M7 28.3337L2 23.3337M2 23.3337L7 18.3337M2 23.3337H32"
			stroke-linecap="round" stroke-linejoin="round" />
	</symbol>

	<symbol id="CreditCard" xmlns="http://www.w3.org/2000/svg" viewBox="0 0 34 28"
		stroke="currentColor" fill="none">
		<path
			d="M2 10.6663H32M8.66667 18.9997H8.68333M15.3333 18.9997H18.6667M7 2.33301H27C29.7614 2.33301 32 4.57158 32 7.33301V20.6663C32 23.4278 29.7614 25.6663 27 25.6663H7C4.23858 25.6663 2 23.4278 2 20.6663V7.33301C2 4.57158 4.23858 2.33301 7 2.33301Z"
			stroke-linecap="round" stroke-linejoin="round" />
	</symbol>

	<symbol id="Deco" xmlns="http://www.w3.org/2000/svg" viewBox="0 0 58 20" stroke="currentColor"
		fill="none">
		<path
			d="M49.5359 16.9432C47.3666 16.9432 46.9948 14.8019 47.6797 12.7178C48.2221 11.0615 49.5066 9.31991 51.4201 9.31991C53.676 9.31991 53.9039 11.6038 53.247 13.6026C52.6753 15.3162 51.3908 16.9432 49.5359 16.9432ZM48.879 19.9973C52.6473 19.9973 56.0159 17.9133 57.3578 14.1449C58.7569 10.1767 57.1859 6.2085 52.0477 6.2085C47.9369 6.2085 44.7962 8.77758 43.5969 12.1755C42.2551 16.0011 43.7115 19.9973 48.879 19.9973ZM36.3747 19.9973C37.8591 19.9973 39.3729 19.6829 40.4282 19.2271C40.8 18.1998 40.828 17.2004 40.5428 16.201C39.8006 16.4862 38.7732 16.7727 37.7165 16.7727C34.861 16.7727 34.6051 14.6606 35.2048 12.8617C35.8617 10.9496 37.574 9.40786 40.287 9.40786C41.0012 9.40786 41.6861 9.52246 42.1138 9.77963C42.856 8.78025 43.2838 7.78086 43.3704 6.7535C42.7428 6.46834 41.6861 6.21117 40.3163 6.21117C35.863 6.21117 32.3505 8.80956 31.0953 12.406C29.896 15.8039 30.8101 20 36.3774 20L36.3747 19.9973ZM21.0442 11.8037C21.8143 10.0901 23.0136 9.09206 24.5846 9.09206C25.9838 9.09206 26.2116 9.86225 25.9838 10.4619C25.6413 11.2894 24.47 11.8037 21.0442 11.8037ZM22.2714 19.9973C23.7278 19.9973 25.7826 19.7122 27.4962 18.8554C27.7813 17.9133 27.7534 16.9712 27.4389 15.9998C26.3542 16.5421 24.8405 16.8566 23.4707 16.8566C21.4439 16.8566 20.3299 16.1997 20.3592 14.5447C25.8972 14.6873 28.7807 13.6879 29.7228 11.2334C30.6649 8.7496 29.0379 6.2085 25.1829 6.2085C21.0721 6.2085 18.046 9.14935 16.932 12.3181C15.7621 15.6867 16.5043 19.9973 22.2701 19.9973H22.2714ZM5.72293 19.9973C9.52059 19.9973 11.6806 18.2557 14.1924 12.9177C15.5622 9.97684 16.7335 7.09329 18.0753 4.23905L19.6743 4.7534C20.1021 4.89598 20.3313 4.6388 20.1314 4.23905L18.1899 0.270827C18.0473 -0.0143302 17.7329 -0.0436454 17.533 0.0429678L12.708 1.86984C12.3082 2.01242 12.3362 2.38419 12.7359 2.49745L14.1631 2.95451C12.9931 5.6102 11.5367 9.60641 10.3654 12.1182C9.05155 14.9165 8.39595 16.8859 6.16933 16.8859C3.9427 16.8859 3.57093 15.1443 4.51301 12.6605C5.59768 9.77697 7.42455 8.92016 9.5086 9.51979C10.0802 8.72028 10.508 7.52103 10.6785 6.43636C10.0789 6.26447 9.36469 6.2085 8.76639 6.2085C5.3978 6.2085 2.05719 7.95009 0.687373 11.6038C-1.0822 16.3143 0.554122 19.9973 5.7216 19.9973H5.72293Z"
			fill="currentColor" />
	</symbol>

	<symbol id="Discord" xmlns="http://www.w3.org/2000/svg" viewBox="0 0 127.14 96.36"
		stroke="currentColor" fill="none">
		<g id="图层_2" data-name="图层 2">
			<g id="Discord_Logos" data-name="Discord Logos">
				<g id="Discord_Logo_-_Large_-_White" data-name="Discord Logo - Large - White">
					<path class="cls-1"
						d="M107.7,8.07A105.15,105.15,0,0,0,81.47,0a72.06,72.06,0,0,0-3.36,6.83A97.68,97.68,0,0,0,49,6.83,72.37,72.37,0,0,0,45.64,0,105.89,105.89,0,0,0,19.39,8.09C2.79,32.65-1.71,56.6.54,80.21h0A105.73,105.73,0,0,0,32.71,96.36,77.7,77.7,0,0,0,39.6,85.25a68.42,68.42,0,0,1-10.85-5.18c.91-.66,1.8-1.34,2.66-2a75.57,75.57,0,0,0,64.32,0c.87.71,1.76,1.39,2.66,2a68.68,68.68,0,0,1-10.87,5.19,77,77,0,0,0,6.89,11.1A105.25,105.25,0,0,0,126.6,80.22h0C129.24,52.84,122.09,29.11,107.7,8.07ZM42.45,65.69C36.18,65.69,31,60,31,53s5-12.74,11.43-12.74S54,46,53.89,53,48.84,65.69,42.45,65.69Zm42.24,0C78.41,65.69,73.25,60,73.25,53s5-12.74,11.44-12.74S96.23,46,96.12,53,91.08,65.69,84.69,65.69Z" />
				</g>
			</g>
		</g>
	</symbol>

	<symbol id="FilterList" xmlns="http://www.w3.org/2000/svg" viewBox="0 0 16 16" fill="none">
		<path
			d="M6.66667 12H9.33333V10.6667H6.66667V12ZM2 4V5.33333H14V4H2ZM4 8.66667H12V7.33333H4V8.66667Z"
			fill="currentColor" />
	</symbol>

	<symbol id="ChevronUp" xmlns="http://www.w3.org/2000/svg" viewBox="0 0 16 16"
		stroke="currentColor" fill="none">
		<path fill-rule="evenodd" clip-rule="evenodd"
			d="M7.52851 5.52827C7.78886 5.26792 8.21097 5.26792 8.47132 5.52827L12.4713 9.52827C12.7317 9.78862 12.7317 10.2107 12.4713 10.4711C12.211 10.7314 11.7889 10.7314 11.5285 10.4711L7.99992 6.94248L4.47132 10.4711C4.21097 10.7314 3.78886 10.7314 3.52851 10.4711C3.26816 10.2107 3.26816 9.78862 3.52851 9.52827L7.52851 5.52827Z"
			fill="black" />
	</symbol>

	<symbol id="Trash" width="20" height="20" viewBox="0 0 20 20" fill="none"
		xmlns="http://www.w3.org/2000/svg">
		<path fill-rule="evenodd" clip-rule="evenodd"
			d="M7.15482 2.15483C7.46738 1.84227 7.89131 1.66667 8.33333 1.66667H11.6667C12.1087 1.66667 12.5326 1.84227 12.8452 2.15483C13.1577 2.46739 13.3333 2.89131 13.3333 3.33334V5H15.8236C15.8295 4.99994 15.8353 4.99994 15.8412 5H16.6667C17.1269 5 17.5 5.3731 17.5 5.83334C17.5 6.29357 17.1269 6.66667 16.6667 6.66667H16.6001L15.833 15.8715C15.8231 16.5207 15.5609 17.1413 15.1011 17.6011C14.6323 18.0699 13.9964 18.3333 13.3333 18.3333H6.66667C6.00362 18.3333 5.36774 18.0699 4.8989 17.6011C4.43906 17.1413 4.17685 16.5207 4.16696 15.8715L3.39989 6.66667H3.33333C2.8731 6.66667 2.5 6.29357 2.5 5.83334C2.5 5.3731 2.8731 5 3.33333 5H4.15878C4.16467 4.99994 4.17055 4.99994 4.17641 5H6.66667V3.33334C6.66667 2.89131 6.84226 2.46739 7.15482 2.15483ZM5.07233 6.66667L5.83045 15.7641C5.83237 15.7871 5.83333 15.8102 5.83333 15.8333C5.83333 16.0543 5.92113 16.2663 6.07741 16.4226C6.23369 16.5789 6.44565 16.6667 6.66667 16.6667H13.3333C13.5543 16.6667 13.7663 16.5789 13.9226 16.4226C14.0789 16.2663 14.1667 16.0543 14.1667 15.8333C14.1667 15.8102 14.1676 15.7871 14.1695 15.7641L14.9277 6.66667H5.07233ZM11.6667 5H8.33333V3.33334H11.6667V5ZM8.33333 8.33334C8.79357 8.33334 9.16667 8.70643 9.16667 9.16667V14.1667C9.16667 14.6269 8.79357 15 8.33333 15C7.8731 15 7.5 14.6269 7.5 14.1667V9.16667C7.5 8.70643 7.8731 8.33334 8.33333 8.33334ZM11.6667 8.33334C12.1269 8.33334 12.5 8.70643 12.5 9.16667V14.1667C12.5 14.6269 12.1269 15 11.6667 15C11.2064 15 10.8333 14.6269 10.8333 14.1667V9.16667C10.8333 8.70643 11.2064 8.33334 11.6667 8.33334Z"
			fill="currentColor" />
	</symbol>

	<symbol id="WhatsApp" xmlns="http://www.w3.org/2000/svg" viewBox="0 0 18 18" fill="none">
		<path fill-rule="evenodd" clip-rule="evenodd"
			d="M13.333 3.94275C12.0977 2.88909 10.5203 2.32246 8.89688 2.34921C7.27345 2.37596 5.71558 2.99425 4.51564 4.08804C3.3157 5.18184 2.55617 6.67594 2.3796 8.28996C2.20302 9.90398 2.62153 11.527 3.5566 12.8543C3.72398 13.0919 3.75547 13.3996 3.63972 13.6661L2.88341 15.408L5.56246 14.9305C5.73665 14.8995 5.9162 14.9247 6.07512 15.0025C7.53336 15.7165 9.20204 15.8737 10.768 15.4448C12.334 15.0158 13.6896 14.0301 14.5804 12.6727C15.4712 11.3152 15.836 9.67933 15.6064 8.07201C15.3767 6.46468 14.5684 4.99641 13.333 3.94275ZM8.86942 0.682773C10.8987 0.649334 12.8704 1.35761 14.4146 2.67469C15.9588 3.99177 16.9692 5.8271 17.2563 7.83626C17.5433 9.84542 17.0873 11.8903 15.9738 13.5871C14.8603 15.2839 13.1658 16.516 11.2083 17.0522C9.34061 17.5638 7.35601 17.4083 5.59455 16.6177L1.64654 17.3213C1.34428 17.3752 1.03687 17.2585 0.846507 17.0176C0.656144 16.7767 0.613663 16.4506 0.735949 16.169L1.93091 13.417C0.947723 11.8367 0.519412 9.96793 0.722814 8.1087C0.943534 6.09118 1.89294 4.22355 3.39287 2.85631C4.8928 1.48907 6.84013 0.716212 8.86942 0.682773ZM6.03312 5.61685C6.26754 5.38243 6.58548 5.25073 6.917 5.25073C7.24852 5.25073 7.56646 5.38243 7.80088 5.61685C8.03531 5.85127 8.167 6.16921 8.167 6.50073V7.33407C8.167 7.66558 8.03531 7.98353 7.80088 8.21795C7.71659 8.30224 7.62149 8.37326 7.51885 8.42964C7.68255 8.89999 7.95113 9.33224 8.30998 9.69109C8.66883 10.0499 9.10107 10.3185 9.57143 10.4822C9.62781 10.3796 9.69882 10.2845 9.78312 10.2002C10.0175 9.96576 10.3355 9.83407 10.667 9.83407H11.5003C11.8319 9.83407 12.1498 9.96576 12.3842 10.2002C12.6186 10.4346 12.7503 10.7525 12.7503 11.0841C12.7503 11.4156 12.6186 11.7335 12.3842 11.9679C12.1498 12.2024 11.8319 12.3341 11.5003 12.3341H10.667C9.34092 12.3341 8.06915 11.8073 7.13147 10.8696C6.19378 9.93192 5.667 8.66015 5.667 7.33407V6.50073C5.667 6.16921 5.79869 5.85127 6.03312 5.61685Z"
			fill="currentColor" />
	</symbol>

	<symbol id="NotFound" xmlns="http://www.w3.org/2000/svg" width="199" height="229.059"
		viewBox="0 0 199 229.059">
		<g id="noun_Sad_2267597" opacity="0.22">
			<path id="Caminho_1767" data-name="Caminho 1767"
				d="M225.8,0H74.9A19.587,19.587,0,0,0,55.2,19.419V199.594a19.587,19.587,0,0,0,19.7,19.419H225.8a4.326,4.326,0,0,0,4.356-4.294V4.294A4.326,4.326,0,0,0,225.8,0Zm-15.16,188.759h10.8v21.665h-10.8Zm10.8-8.589H87.7V8.589H221.44ZM63.913,19.419A10.922,10.922,0,0,1,74.9,8.589h4.086V180.17H74.9c-.309,0-.61,0-.915.026h-.266c-.222,0-.436.03-.671.052l-.257.021c-.3.034-.6.069-.871.112h0c-.292.043-.579.094-.871.15l-.248.052-.645.15-.24.06c-.283.073-.566.15-.845.236h0c-.274.086-.54.176-.81.271l-.231.086-.61.236-.222.09c-.266.116-.531.232-.788.352h-.031c-.248.12-.492.245-.736.374l-.222.116-.558.318-.2.125c-.24.142-.479.292-.71.429Zm0,180.175A10.927,10.927,0,0,1,74.9,188.759h127.02v6.54H83.342a4.295,4.295,0,1,0,0,8.589H201.924v6.536H74.9a10.923,10.923,0,0,1-10.991-10.83Z"
				transform="translate(-31.153)"></path>
			<ellipse id="Elipse_55" data-name="Elipse 55" cx="8.404" cy="8.284" rx="8.404" ry="8.284"
				transform="translate(81.173 82.92)"></ellipse>
			<ellipse id="Elipse_56" data-name="Elipse 56" cx="8.404" cy="8.284" rx="8.404" ry="8.284"
				transform="translate(146.576 82.92)"></ellipse>
			<path id="Caminho_1768" data-name="Caminho 1768"
				d="M274.882,251.255c-.157-.477-3.982-11.715-18.733-11.715s-18.589,11.238-18.733,11.715h0a4.291,4.291,0,0,0,3.469,5.625,4.36,4.36,0,0,0,4.821-2.971c.3-.786,2.514-5.763,10.455-5.763s10.146,4.977,10.455,5.763a4.36,4.36,0,0,0,4.825,2.985,4.313,4.313,0,0,0,3.7-4.274,4.184,4.184,0,0,0-.231-1.366Z"
				transform="translate(-133.86 -136.673)"></path>
			<text id="Created_by_AomAm" data-name="Created by AomAm" transform="translate(0 225.059)"
				font-size="1" font-family="HelveticaNeue, Helvetica Neue">
				<tspan x="0" y="0">Created by AomAm</tspan>
			</text>
			<text id="from_the_Noun_Project" data-name="from the Noun Project"
				transform="translate(0 228.059)" font-size="1" font-family="HelveticaNeue, Helvetica Neue">
				<tspan x="0" y="0">from the Noun Project</tspan>
			</text>
		</g>
	</symbol>

	<symbol id="Mail" xmlns="http://www.w3.org/2000/svg" width="46" height="46" viewBox="0 0 46 46">
		<circle cx="23" cy="23" r="23" fill="#fff"></circle>
		<g transform="translate(-9 -57.247)">
			<g transform="translate(17.113 70.247)">
				<g transform="translate(0 0)">
					<path d="M46.016,68.267H17.067L31.541,80.19,46.18,68.3A1.006,1.006,0,0,0,46.016,68.267Z"
						transform="translate(-17.067 -68.267)" fill="#af0100"></path>
				</g>
			</g>
			<g transform="translate(16 70.648)">
				<g transform="translate(0 0)">
					<path
						d="M16.29,110.665a1.113,1.113,0,0,1-1.411,0L0,98.406v19.189a1.113,1.113,0,0,0,1.113,1.113H30.062a1.113,1.113,0,0,0,1.113-1.113V98.571Z"
						transform="translate(0 -98.406)" fill="#af0100"></path>
				</g>
			</g>
		</g>
	</symbol>

	<symbol id="DoubleRightArrow" xmlns="http://www.w3.org/2000/svg" width="21.757" height="24.964"
		viewBox="0 0 21.757 24.964">
		<g opacity="0.29">
			<path
				d="M5.989,2a1.135,1.135,0,0,0-.824,1.936l10.2,10.552L5.165,25.043A1.135,1.135,0,1,0,6.8,26.62L17.759,15.28a1.135,1.135,0,0,0,0-1.579L6.8,2.361A1.135,1.135,0,0,0,5.989,2ZM14.5,2a1.135,1.135,0,0,0-.824,1.936l10.2,10.552L13.68,25.043a1.135,1.135,0,1,0,1.633,1.578L26.273,15.28a1.135,1.135,0,0,0,0-1.579L15.313,2.361A1.135,1.135,0,0,0,14.5,2Z"
				transform="translate(-4.835 -2.002)" fill="#fff" fill-rule="evenodd"></path>
		</g>
	</symbol>

	<symbol id="RightArrow" xmlns="http://www.w3.org/2000/svg" width="26.215" height="26.214"
		viewBox="0 0 26.215 26.214">
		<g transform="translate(-38.19 12.917) rotate(-3)">
			<g transform="matrix(0.695, 0.719, -0.719, 0.695, 51.444, -10.239)">
				<path
					d="M.405,8.1l7.249,2.814,2.792,7.249a.581.581,0,0,0,.563.383h0a.581.581,0,0,0,.563-.383L18.505.828A.585.585,0,0,0,18.37.175.626.626,0,0,0,17.717.04L.383,6.974A.665.665,0,0,0,0,7.537.635.635,0,0,0,.405,8.1ZM16.862,1.706,11.031,16.249l-2.116-5.47L11.8,7.92l-.855-.855L8.194,9.788,2.319,7.537Z"
					transform="translate(0 0)" fill="#fff" />
			</g>
		</g>
	</symbol>

	<symbol id="InstagramHeader" xmlns="http://www.w3.org/2000/svg" width="13.147" height="13.147"
		viewBox="0 0 13.147 13.147">
		<g transform="translate(0 0)">
			<path
				d="M9.231,0H3.917A3.921,3.921,0,0,0,0,3.917V9.231a3.921,3.921,0,0,0,3.917,3.917H9.231a3.921,3.921,0,0,0,3.917-3.917V3.917A3.921,3.921,0,0,0,9.231,0Zm2.594,9.231a2.594,2.594,0,0,1-2.594,2.594H3.917A2.594,2.594,0,0,1,1.323,9.231V3.917A2.594,2.594,0,0,1,3.917,1.323H9.231a2.594,2.594,0,0,1,2.594,2.594Z"
				transform="translate(0 0)" fill="#5c5c5c"></path>
			<path
				d="M136.4,133a3.4,3.4,0,1,0,3.4,3.4A3.4,3.4,0,0,0,136.4,133Zm0,5.478a2.078,2.078,0,1,1,2.078-2.078A2.078,2.078,0,0,1,136.4,138.478Z"
				transform="translate(-129.827 -129.827)" fill="#5c5c5c"></path>
			<ellipse cx="0.815" cy="0.815" rx="0.815" ry="0.815" transform="translate(9.165 2.384)"
				fill="#5c5c5c"></ellipse>
		</g>
	</symbol>

	<symbol id="FacebookHeader" xmlns="http://www.w3.org/2000/svg" width="12.747" height="12.747"
		viewBox="0 0 12.747 12.747">
		<path
			d="M12.043,0H.7A.7.7,0,0,0,0,.7v11.34a.7.7,0,0,0,.7.7h6.1V7.812H5.147V5.888H6.808V4.469A2.318,2.318,0,0,1,9.282,1.926,13.778,13.778,0,0,1,10.767,2V3.722H9.748c-.8,0-.953.38-.953.937V5.887H10.7l-.249,1.924H8.795v4.937h3.248a.7.7,0,0,0,.7-.7V.7a.7.7,0,0,0-.7-.7Z"
			transform="translate(0 -0.001)" fill="#5c5c5c"></path>
	</symbol>

	<symbol id="WhatsappHeader" xmlns="http://www.w3.org/2000/svg" width="13.838" height="13.951"
		viewBox="0 0 13.838 13.951">
		<path
			d="M8.271.008A6.922,6.922,0,0,0,2.443,10.061l-.735,3.566a.269.269,0,0,0,.326.316l3.494-.828A6.919,6.919,0,1,0,8.271.008ZM12.44,10.75A5.421,5.421,0,0,1,6.2,11.772l-.487-.242-2.142.508L4.02,9.848l-.24-.469a5.422,5.422,0,0,1,1-6.29A5.418,5.418,0,1,1,12.44,10.75Z"
			transform="translate(-1.69 0)" fill="#5c5c5c"></path>
		<path
			d="M111.424,112.253l-1.34-.385a.5.5,0,0,0-.494.13l-.328.334a.488.488,0,0,1-.531.112,7.154,7.154,0,0,1-2.308-2.035.488.488,0,0,1,.039-.541l.286-.37a.5.5,0,0,0,.062-.507l-.564-1.275a.5.5,0,0,0-.78-.179,2.254,2.254,0,0,0-.872,1.33c-.1.939.308,2.123,1.83,3.544,1.759,1.642,3.168,1.859,4.085,1.637a2.254,2.254,0,0,0,1.2-1.045A.5.5,0,0,0,111.424,112.253Z"
			transform="translate(-101.148 -103.833)" fill="#5c5c5c"></path>
	</symbol>

	<symbol id="MyStores" xmlns="http://www.w3.org/2000/svg" width="9.416" height="13"
		viewBox="0 0 9.416 13">
		<path
			d="M75.281,0a4.713,4.713,0,0,0-4.708,4.708c0,3.222,4.213,7.952,4.393,8.151a.424.424,0,0,0,.631,0c.179-.2,4.393-4.93,4.393-8.151A4.713,4.713,0,0,0,75.281,0Zm0,7.077A2.369,2.369,0,1,1,77.65,4.708,2.371,2.371,0,0,1,75.281,7.077Z"
			transform="translate(-70.573)" fill="#5c5c5c"></path>
	</symbol>

	<symbol id="Wishlist" xmlns="http://www.w3.org/2000/svg" width="22.455" height="19"
		viewBox="0 0 22.455 19">
		<g transform="translate(17.567 -236)">
			<g transform="translate(-17.567 236)">
				<path
					d="M146.007,251.965l-5.8-5.832c-.251-.314-2.352-2.383-2.634-2.665-1.1-1.1-2.038-1.944-2.038-3.7a4.691,4.691,0,0,1,.972-2.79,5.231,5.231,0,0,1,4.139-2.226,5.133,5.133,0,0,1,3.323,1.348,8.148,8.148,0,0,1,1.818,2.289,2.338,2.338,0,0,1,.219.376h.063a14.781,14.781,0,0,1,1.129-1.724,2.286,2.286,0,0,0,.282-.314,6.335,6.335,0,0,1,1.975-1.536,4.829,4.829,0,0,1,5.079.658,5.274,5.274,0,0,1,1.724,2.383,4.333,4.333,0,0,1-.157,3.323,11.441,11.441,0,0,1-1.913,2.195c-1.38,1.38-2.728,2.728-4.107,4.076-.188.188-.314.345-.47.533C149.237,248.736,146.1,251.809,146.007,251.965ZM151.275,234h.439a5.775,5.775,0,0,1,3.386,1.348l1.035,1.1a5.044,5.044,0,0,1,.533.878,5.464,5.464,0,0,1,.6,2.195v.408a4.608,4.608,0,0,1-.22,1.285,7.932,7.932,0,0,1-.5,1.035,30.034,30.034,0,0,1-2.947,3.1c-.251.282-.5.533-.752.784-.408.439-6.71,6.678-6.835,6.866-.125-.094-2.069-2.069-2.257-2.226a1.228,1.228,0,0,0-.251-.314l-6.96-6.992a7.3,7.3,0,0,1-.815-.878,4.95,4.95,0,0,1-.878-3.449,5.8,5.8,0,0,1,.345-1.317,6.333,6.333,0,0,1,3.355-3.386,5.049,5.049,0,0,1,2.351-.408,6.408,6.408,0,0,1,4.7,2.728l.439.6a1.227,1.227,0,0,0,.251-.314,9.929,9.929,0,0,1,1.442-1.6l.47-.345a5.051,5.051,0,0,1,1.411-.752A4.777,4.777,0,0,1,151.275,234Z"
					transform="translate(-134.808 -234)" fill="#5d5d5d" fill-rule="evenodd"></path>
			</g>
		</g>
	</symbol>

	<symbol id="HeartFooter" xmlns="http://www.w3.org/2000/svg" width="11.722" height="10.761"
		viewBox="0 0 11.722 10.761">
		<g transform="translate(0 0)">
			<path
				d="M8.608,30a2.708,2.708,0,0,0-1.733.623,4.077,4.077,0,0,0-1.014,1.268,4.076,4.076,0,0,0-1.014-1.268A2.708,2.708,0,0,0,3.114,30,3.257,3.257,0,0,0,0,33.512c0,2.163,1.67,3.643,4.2,5.883.429.38.916.812,1.422,1.272a.356.356,0,0,0,.482,0c.506-.46.992-.891,1.422-1.272,2.528-2.24,4.2-3.72,4.2-5.883A3.257,3.257,0,0,0,8.608,30Z"
				transform="translate(0 -30)" fill="#0080c7"></path>
		</g>
	</symbol>

	<symbol id="PhoneFooter" xmlns="http://www.w3.org/2000/svg" width="10.982" height="11.464"
		viewBox="0 0 10.982 11.464">
		<path
			d="M3.137,7.62a11.774,11.774,0,0,0,3.89,3.169,5.884,5.884,0,0,0,2.177.67c.053,0,.1,0,.155,0a1.771,1.771,0,0,0,1.4-.625.051.051,0,0,0,.009-.012,6.022,6.022,0,0,1,.441-.475c.107-.107.217-.219.322-.333a1.178,1.178,0,0,0,0-1.708L10.152,6.884a1.093,1.093,0,0,0-.8-.385,1.129,1.129,0,0,0-.813.382l-.818.85c-.075-.045-.153-.086-.226-.124a2.793,2.793,0,0,1-.251-.143A8.785,8.785,0,0,1,5.172,5.509a5.22,5.22,0,0,1-.7-1.159c.215-.2.416-.413.61-.62.069-.074.139-.147.21-.221a1.24,1.24,0,0,0,.379-.855A1.23,1.23,0,0,0,5.293,1.8L4.613,1.09c-.08-.083-.155-.164-.233-.247C4.229.682,4.071.515,3.916.366A1.118,1.118,0,0,0,3.112,0,1.151,1.151,0,0,0,2.3.368l-.854.888A1.857,1.857,0,0,0,.921,2.425a4.554,4.554,0,0,0,.318,1.9,11.156,11.156,0,0,0,1.9,3.295ZM1.479,2.475a1.278,1.278,0,0,1,.363-.808l.85-.884a.6.6,0,0,1,.42-.2.575.575,0,0,1,.411.207c.153.147.3.3.452.466l.238.252.681.708a.655.655,0,0,1,.215.444.655.655,0,0,1-.215.444l-.212.223c-.212.223-.411.435-.63.637l-.011.012a.478.478,0,0,0-.114.527l.007.019a5.636,5.636,0,0,0,.8,1.356,9.273,9.273,0,0,0,2.2,2.086,3.232,3.232,0,0,0,.3.171,2.793,2.793,0,0,1,.251.143l.025.014a.463.463,0,0,0,.222.059.478.478,0,0,0,.34-.162L8.93,7.3a.6.6,0,0,1,.418-.211.567.567,0,0,1,.4.211l1.377,1.43a.587.587,0,0,1-.007.9c-.1.107-.2.209-.3.316a6.731,6.731,0,0,0-.477.515,1.232,1.232,0,0,1-.98.432c-.039,0-.08,0-.119,0a5.347,5.347,0,0,1-1.969-.613,11.185,11.185,0,0,1-3.7-3.017,10.677,10.677,0,0,1-1.8-3.124,3.968,3.968,0,0,1-.288-1.656Z"
			transform="translate(-0.912)" fill="#3d3d3d" />
	</symbol>

	<symbol id="WhatsappFooter" xmlns="http://www.w3.org/2000/svg" width="11.095" height="11.633"
		viewBox="0 0 11.095 11.633">
		<path
			d="M6.967.007A5.684,5.684,0,0,0,1.69,5.787a5.93,5.93,0,0,0,.6,2.6L1.7,11.363a.22.22,0,0,0,.261.264l2.8-.69a5.351,5.351,0,0,0,2.384.6,5.66,5.66,0,0,0,5.631-5.584A5.658,5.658,0,0,0,6.967.007Zm3.343,8.957a4.233,4.233,0,0,1-3.072,1.323A4.163,4.163,0,0,1,5.3,9.816l-.39-.2L3.2,10.037l.362-1.825L3.366,7.82a4.662,4.662,0,0,1,.8-5.245,4.227,4.227,0,0,1,6.143,0,4.646,4.646,0,0,1,0,6.389Z"
			transform="translate(-1.69 0)" fill="#3d3d3d" />
		<path
			d="M110.068,111.449l-1.075-.321a.39.39,0,0,0-.4.109l-.263.278a.381.381,0,0,1-.426.093,5.814,5.814,0,0,1-1.851-1.7.42.42,0,0,1,.031-.451l.229-.309a.43.43,0,0,0,.049-.423l-.452-1.063a.393.393,0,0,0-.626-.149,1.887,1.887,0,0,0-.7,1.109,3.725,3.725,0,0,0,1.468,2.955c1.411,1.369,2.54,1.55,3.276,1.365a1.831,1.831,0,0,0,.961-.871A.422.422,0,0,0,110.068,111.449Z"
			transform="translate(-101.828 -104.429)" fill="#3d3d3d" />
	</symbol>

	<symbol id="MailFooter" xmlns="http://www.w3.org/2000/svg" width="11.319" height="8.561"
		viewBox="0 0 11.319 8.561">
		<path
			d="M11.062,6H.257A.263.263,0,0,0,0,6.268v8.026a.263.263,0,0,0,.257.268h10.8a.263.263,0,0,0,.257-.268V6.268A.263.263,0,0,0,11.062,6ZM10.8,13.379,7.618,10.065l-.364.378L10.7,14.026H.62l3.445-3.583L3.7,10.065.515,13.379V6.535H10.8Z"
			transform="translate(0 -6)" fill="#3d3d3d" />
		<path d="M11.77,8,7.145,12.81,2.52,8H2v.216l4.963,5.161a.25.25,0,0,0,.364,0L12.29,8.216V8Z"
			transform="translate(-1.485 -7.465)" fill="#3d3d3d" />
	</symbol>

</svg>